<svg width="1040" height="520" viewBox="0 0 1040 520" fill="none" xmlns="http://www.w3.org/2000/svg">
<g clip-path="url(#clip0_1035_1692)">
<mask id="mask0_1035_1692" style="mask-type:alpha" maskUnits="userSpaceOnUse" x="-72" y="0" width="1235" height="520">
<path d="M1163 0H-72V520H1163V0Z" fill="url(#paint0_radial_1035_1692)" fill-opacity="0.9"/>
</mask>
<g mask="url(#mask0_1035_1692)">
<g opacity="0.14">
<path d="M25.5 0H-7V32.5H25.5V0Z" fill="#E2E7F0" fill-opacity="0.3" stroke="#E2E7F0" stroke-width="1.5"/>
<path d="M58 0H25.5V32.5H58V0Z" stroke="#E2E7F0" stroke-width="1.5"/>
<path d="M90.5 0H58V32.5H90.5V0Z" stroke="#E2E7F0" stroke-width="1.5"/>
<path d="M123 0H90.5V32.5H123V0Z" stroke="#E2E7F0" stroke-width="1.5"/>
<path d="M155.5 0H123V32.5H155.5V0Z" stroke="#E2E7F0" stroke-width="1.5"/>
<path d="M188 0H155.5V32.5H188V0Z" stroke="#E2E7F0" stroke-width="1.5"/>
<path d="M220.5 0H188V32.5H220.5V0Z" fill="#E2E7F0" fill-opacity="0.3" stroke="#E2E7F0" stroke-width="1.5"/>
<path d="M253 0H220.5V32.5H253V0Z" stroke="#E2E7F0" stroke-width="1.5"/>
<path d="M285.5 0H253V32.5H285.5V0Z" stroke="#E2E7F0" stroke-width="1.5"/>
<path d="M318 0H285.5V32.5H318V0Z" stroke="#E2E7F0" stroke-width="1.5"/>
<path d="M350.5 0H318V32.5H350.5V0Z" stroke="#E2E7F0" stroke-width="1.5"/>
<path d="M383 0H350.5V32.5H383V0Z" stroke="#E2E7F0" stroke-width="1.5"/>
<path d="M415.5 0H383V32.5H415.5V0Z" stroke="#E2E7F0" stroke-width="1.5"/>
<path d="M448 0H415.5V32.5H448V0Z" stroke="#E2E7F0" stroke-width="1.5"/>
<path d="M480.5 0H448V32.5H480.5V0Z" stroke="#E2E7F0" stroke-width="1.5"/>
<path d="M513 0H480.5V32.5H513V0Z" stroke="#E2E7F0" stroke-width="1.5"/>
<path d="M545.5 0H513V32.5H545.5V0Z" stroke="#E2E7F0" stroke-width="1.5"/>
<path d="M578 0H545.5V32.5H578V0Z" stroke="#E2E7F0" stroke-width="1.5"/>
<path d="M610.5 0H578V32.5H610.5V0Z" stroke="#E2E7F0" stroke-width="1.5"/>
<path d="M643 0H610.5V32.5H643V0Z" stroke="#E2E7F0" stroke-width="1.5"/>
<path d="M675.5 0H643V32.5H675.5V0Z" stroke="#E2E7F0" stroke-width="1.5"/>
<path d="M708 0H675.5V32.5H708V0Z" stroke="#E2E7F0" stroke-width="1.5"/>
<path d="M740.5 0H708V32.5H740.5V0Z" stroke="#E2E7F0" stroke-width="1.5"/>
<path d="M773 0H740.5V32.5H773V0Z" fill="#E2E7F0" fill-opacity="0.3" stroke="#E2E7F0" stroke-width="1.5"/>
<path d="M805.5 0H773V32.5H805.5V0Z" stroke="#E2E7F0" stroke-width="1.5"/>
<path d="M838 0H805.5V32.5H838V0Z" stroke="#E2E7F0" stroke-width="1.5"/>
<path d="M870.5 0H838V32.5H870.5V0Z" fill="#E2E7F0" fill-opacity="0.3" stroke="#E2E7F0" stroke-width="1.5"/>
<path d="M903 0H870.5V32.5H903V0Z" stroke="#E2E7F0" stroke-width="1.5"/>
<path d="M935.5 0H903V32.5H935.5V0Z" stroke="#E2E7F0" stroke-width="1.5"/>
<path d="M968 0H935.5V32.5H968V0Z" stroke="#E2E7F0" stroke-width="1.5"/>
<path d="M1000.5 0H968V32.5H1000.5V0Z" stroke="#E2E7F0" stroke-width="1.5"/>
<path d="M1033 0H1000.5V32.5H1033V0Z" stroke="#E2E7F0" stroke-width="1.5"/>
<path d="M1065.5 0H1033V32.5H1065.5V0Z" stroke="#E2E7F0" stroke-width="1.5"/>
<path d="M25.5 32.5H-7V65H25.5V32.5Z" stroke="#E2E7F0" stroke-width="1.5"/>
<path d="M58 32.5H25.5V65H58V32.5Z" stroke="#E2E7F0" stroke-width="1.5"/>
<path d="M90.5 32.5H58V65H90.5V32.5Z" stroke="#E2E7F0" stroke-width="1.5"/>
<path d="M123 32.5H90.5V65H123V32.5Z" stroke="#E2E7F0" stroke-width="1.5"/>
<path d="M155.5 32.5H123V65H155.5V32.5Z" fill="#E2E7F0" fill-opacity="0.3" stroke="#E2E7F0" stroke-width="1.5"/>
<path d="M188 32.5H155.5V65H188V32.5Z" stroke="#E2E7F0" stroke-width="1.5"/>
<path d="M220.5 32.5H188V65H220.5V32.5Z" stroke="#E2E7F0" stroke-width="1.5"/>
<path d="M253 32.5H220.5V65H253V32.5Z" stroke="#E2E7F0" stroke-width="1.5"/>
<path d="M285.5 32.5H253V65H285.5V32.5Z" stroke="#E2E7F0" stroke-width="1.5"/>
<path d="M318 32.5H285.5V65H318V32.5Z" stroke="#E2E7F0" stroke-width="1.5"/>
<path d="M350.5 32.5H318V65H350.5V32.5Z" stroke="#E2E7F0" stroke-width="1.5"/>
<path d="M383 32.5H350.5V65H383V32.5Z" stroke="#E2E7F0" stroke-width="1.5"/>
<path d="M415.5 32.5H383V65H415.5V32.5Z" stroke="#E2E7F0" stroke-width="1.5"/>
<path d="M448 32.5H415.5V65H448V32.5Z" stroke="#E2E7F0" stroke-width="1.5"/>
<path d="M480.5 32.5H448V65H480.5V32.5Z" stroke="#E2E7F0" stroke-width="1.5"/>
<path d="M513 32.5H480.5V65H513V32.5Z" stroke="#E2E7F0" stroke-width="1.5"/>
<path d="M545.5 32.5H513V65H545.5V32.5Z" stroke="#E2E7F0" stroke-width="1.5"/>
<path d="M578 32.5H545.5V65H578V32.5Z" stroke="#E2E7F0" stroke-width="1.5"/>
<path d="M610.5 32.5H578V65H610.5V32.5Z" stroke="#E2E7F0" stroke-width="1.5"/>
<path d="M643 32.5H610.5V65H643V32.5Z" stroke="#E2E7F0" stroke-width="1.5"/>
<path d="M675.5 32.5H643V65H675.5V32.5Z" stroke="#E2E7F0" stroke-width="1.5"/>
<path d="M708 32.5H675.5V65H708V32.5Z" stroke="#E2E7F0" stroke-width="1.5"/>
<path d="M740.5 32.5H708V65H740.5V32.5Z" stroke="#E2E7F0" stroke-width="1.5"/>
<path d="M773 32.5H740.5V65H773V32.5Z" stroke="#E2E7F0" stroke-width="1.5"/>
<path d="M805.5 32.5H773V65H805.5V32.5Z" stroke="#E2E7F0" stroke-width="1.5"/>
<path d="M838 32.5H805.5V65H838V32.5Z" stroke="#E2E7F0" stroke-width="1.5"/>
<path d="M870.5 32.5H838V65H870.5V32.5Z" stroke="#E2E7F0" stroke-width="1.5"/>
<path d="M903 32.5H870.5V65H903V32.5Z" stroke="#E2E7F0" stroke-width="1.5"/>
<path d="M935.5 32.5H903V65H935.5V32.5Z" stroke="#E2E7F0" stroke-width="1.5"/>
<path d="M968 32.5H935.5V65H968V32.5Z" stroke="#E2E7F0" stroke-width="1.5"/>
<path d="M1000.5 32.5H968V65H1000.5V32.5Z" fill="#E2E7F0" fill-opacity="0.3" stroke="#E2E7F0" stroke-width="1.5"/>
<path d="M1033 32.5H1000.5V65H1033V32.5Z" stroke="#E2E7F0" stroke-width="1.5"/>
<path d="M1065.5 32.5H1033V65H1065.5V32.5Z" stroke="#E2E7F0" stroke-width="1.5"/>
<path d="M25.5 65H-7V97.5H25.5V65Z" stroke="#E2E7F0" stroke-width="1.5"/>
<path d="M58 65H25.5V97.5H58V65Z" stroke="#E2E7F0" stroke-width="1.5"/>
<path d="M90.5 65H58V97.5H90.5V65Z" stroke="#E2E7F0" stroke-width="1.5"/>
<path d="M123 65H90.5V97.5H123V65Z" stroke="#E2E7F0" stroke-width="1.5"/>
<path d="M155.5 65H123V97.5H155.5V65Z" stroke="#E2E7F0" stroke-width="1.5"/>
<path d="M188 65H155.5V97.5H188V65Z" stroke="#E2E7F0" stroke-width="1.5"/>
<path d="M220.5 65H188V97.5H220.5V65Z" stroke="#E2E7F0" stroke-width="1.5"/>
<path d="M253 65H220.5V97.5H253V65Z" stroke="#E2E7F0" stroke-width="1.5"/>
<path d="M285.5 65H253V97.5H285.5V65Z" stroke="#E2E7F0" stroke-width="1.5"/>
<path d="M318 65H285.5V97.5H318V65Z" stroke="#E2E7F0" stroke-width="1.5"/>
<path d="M350.5 65H318V97.5H350.5V65Z" stroke="#E2E7F0" stroke-width="1.5"/>
<path d="M383 65H350.5V97.5H383V65Z" stroke="#E2E7F0" stroke-width="1.5"/>
<path d="M415.5 65H383V97.5H415.5V65Z" stroke="#E2E7F0" stroke-width="1.5"/>
<path d="M448 65H415.5V97.5H448V65Z" stroke="#E2E7F0" stroke-width="1.5"/>
<path d="M480.5 65H448V97.5H480.5V65Z" stroke="#E2E7F0" stroke-width="1.5"/>
<path d="M513 65H480.5V97.5H513V65Z" stroke="#E2E7F0" stroke-width="1.5"/>
<path d="M545.5 65H513V97.5H545.5V65Z" stroke="#E2E7F0" stroke-width="1.5"/>
<path d="M578 65H545.5V97.5H578V65Z" stroke="#E2E7F0" stroke-width="1.5"/>
<path d="M610.5 65H578V97.5H610.5V65Z" stroke="#E2E7F0" stroke-width="1.5"/>
<path d="M643 65H610.5V97.5H643V65Z" stroke="#E2E7F0" stroke-width="1.5"/>
<path d="M675.5 65H643V97.5H675.5V65Z" stroke="#E2E7F0" stroke-width="1.5"/>
<path d="M708 65H675.5V97.5H708V65Z" stroke="#E2E7F0" stroke-width="1.5"/>
<path d="M740.5 65H708V97.5H740.5V65Z" stroke="#E2E7F0" stroke-width="1.5"/>
<path d="M773 65H740.5V97.5H773V65Z" stroke="#E2E7F0" stroke-width="1.5"/>
<path d="M805.5 65H773V97.5H805.5V65Z" stroke="#E2E7F0" stroke-width="1.5"/>
<path d="M838 65H805.5V97.5H838V65Z" stroke="#E2E7F0" stroke-width="1.5"/>
<path d="M870.5 65H838V97.5H870.5V65Z" stroke="#E2E7F0" stroke-width="1.5"/>
<path d="M903 65H870.5V97.5H903V65Z" stroke="#E2E7F0" stroke-width="1.5"/>
<path d="M935.5 65H903V97.5H935.5V65Z" stroke="#E2E7F0" stroke-width="1.5"/>
<path d="M968 65H935.5V97.5H968V65Z" stroke="#E2E7F0" stroke-width="1.5"/>
<path d="M1000.5 65H968V97.5H1000.5V65Z" stroke="#E2E7F0" stroke-width="1.5"/>
<path d="M1033 65H1000.5V97.5H1033V65Z" stroke="#E2E7F0" stroke-width="1.5"/>
<path d="M1065.5 65H1033V97.5H1065.5V65Z" stroke="#E2E7F0" stroke-width="1.5"/>
<path d="M25.5 97.5H-7V130H25.5V97.5Z" stroke="#E2E7F0" stroke-width="1.5"/>
<path d="M58 97.5H25.5V130H58V97.5Z" stroke="#E2E7F0" stroke-width="1.5"/>
<path d="M90.5 97.5H58V130H90.5V97.5Z" stroke="#E2E7F0" stroke-width="1.5"/>
<path d="M123 97.5H90.5V130H123V97.5Z" stroke="#E2E7F0" stroke-width="1.5"/>
<path d="M155.5 97.5H123V130H155.5V97.5Z" stroke="#E2E7F0" stroke-width="1.5"/>
<path d="M188 97.5H155.5V130H188V97.5Z" stroke="#E2E7F0" stroke-width="1.5"/>
<path d="M220.5 97.5H188V130H220.5V97.5Z" stroke="#E2E7F0" stroke-width="1.5"/>
<path d="M253 97.5H220.5V130H253V97.5Z" stroke="#E2E7F0" stroke-width="1.5"/>
<path d="M285.5 97.5H253V130H285.5V97.5Z" stroke="#E2E7F0" stroke-width="1.5"/>
<path d="M318 97.5H285.5V130H318V97.5Z" stroke="#E2E7F0" stroke-width="1.5"/>
<path d="M350.5 97.5H318V130H350.5V97.5Z" stroke="#E2E7F0" stroke-width="1.5"/>
<path d="M383 97.5H350.5V130H383V97.5Z" stroke="#E2E7F0" stroke-width="1.5"/>
<path d="M415.5 97.5H383V130H415.5V97.5Z" stroke="#E2E7F0" stroke-width="1.5"/>
<path d="M448 97.5H415.5V130H448V97.5Z" stroke="#E2E7F0" stroke-width="1.5"/>
<path d="M480.5 97.5H448V130H480.5V97.5Z" stroke="#E2E7F0" stroke-width="1.5"/>
<path d="M513 97.5H480.5V130H513V97.5Z" stroke="#E2E7F0" stroke-width="1.5"/>
<path d="M545.5 97.5H513V130H545.5V97.5Z" stroke="#E2E7F0" stroke-width="1.5"/>
<path d="M578 97.5H545.5V130H578V97.5Z" stroke="#E2E7F0" stroke-width="1.5"/>
<path d="M610.5 97.5H578V130H610.5V97.5Z" stroke="#E2E7F0" stroke-width="1.5"/>
<path d="M643 97.5H610.5V130H643V97.5Z" stroke="#E2E7F0" stroke-width="1.5"/>
<path d="M675.5 97.5H643V130H675.5V97.5Z" stroke="#E2E7F0" stroke-width="1.5"/>
<path d="M708 97.5H675.5V130H708V97.5Z" stroke="#E2E7F0" stroke-width="1.5"/>
<path d="M740.5 97.5H708V130H740.5V97.5Z" stroke="#E2E7F0" stroke-width="1.5"/>
<path d="M773 97.5H740.5V130H773V97.5Z" stroke="#E2E7F0" stroke-width="1.5"/>
<path d="M805.5 97.5H773V130H805.5V97.5Z" stroke="#E2E7F0" stroke-width="1.5"/>
<path d="M838 97.5H805.5V130H838V97.5Z" stroke="#E2E7F0" stroke-width="1.5"/>
<path d="M870.5 97.5H838V130H870.5V97.5Z" stroke="#E2E7F0" stroke-width="1.5"/>
<path d="M903 97.5H870.5V130H903V97.5Z" fill="#E2E7F0" fill-opacity="0.3" stroke="#E2E7F0" stroke-width="1.5"/>
<path d="M935.5 97.5H903V130H935.5V97.5Z" stroke="#E2E7F0" stroke-width="1.5"/>
<path d="M968 97.5H935.5V130H968V97.5Z" stroke="#E2E7F0" stroke-width="1.5"/>
<path d="M1000.5 97.5H968V130H1000.5V97.5Z" stroke="#E2E7F0" stroke-width="1.5"/>
<path d="M1033 97.5H1000.5V130H1033V97.5Z" stroke="#E2E7F0" stroke-width="1.5"/>
<path d="M1065.5 97.5H1033V130H1065.5V97.5Z" fill="#E2E7F0" fill-opacity="0.3" stroke="#E2E7F0" stroke-width="1.5"/>
<path d="M25.5 130H-7V162.5H25.5V130Z" stroke="#E2E7F0" stroke-width="1.5"/>
<path d="M58 130H25.5V162.5H58V130Z" stroke="#E2E7F0" stroke-width="1.5"/>
<path d="M90.5 130H58V162.5H90.5V130Z" stroke="#E2E7F0" stroke-width="1.5"/>
<path d="M123 130H90.5V162.5H123V130Z" stroke="#E2E7F0" stroke-width="1.5"/>
<path d="M155.5 130H123V162.5H155.5V130Z" fill="#E2E7F0" fill-opacity="0.3" stroke="#E2E7F0" stroke-width="1.5"/>
<path d="M188 130H155.5V162.5H188V130Z" stroke="#E2E7F0" stroke-width="1.5"/>
<path d="M220.5 130H188V162.5H220.5V130Z" stroke="#E2E7F0" stroke-width="1.5"/>
<path d="M253 130H220.5V162.5H253V130Z" stroke="#E2E7F0" stroke-width="1.5"/>
<path d="M285.5 130H253V162.5H285.5V130Z" stroke="#E2E7F0" stroke-width="1.5"/>
<path d="M318 130H285.5V162.5H318V130Z" stroke="#E2E7F0" stroke-width="1.5"/>
<path d="M350.5 130H318V162.5H350.5V130Z" stroke="#E2E7F0" stroke-width="1.5"/>
<path d="M383 130H350.5V162.5H383V130Z" stroke="#E2E7F0" stroke-width="1.5"/>
<path d="M415.5 130H383V162.5H415.5V130Z" stroke="#E2E7F0" stroke-width="1.5"/>
<path d="M448 130H415.5V162.5H448V130Z" stroke="#E2E7F0" stroke-width="1.5"/>
<path d="M480.5 130H448V162.5H480.5V130Z" stroke="#E2E7F0" stroke-width="1.5"/>
<path d="M513 130H480.5V162.5H513V130Z" stroke="#E2E7F0" stroke-width="1.5"/>
<path d="M545.5 130H513V162.5H545.5V130Z" stroke="#E2E7F0" stroke-width="1.5"/>
<path d="M578 130H545.5V162.5H578V130Z" stroke="#E2E7F0" stroke-width="1.5"/>
<path d="M610.5 130H578V162.5H610.5V130Z" stroke="#E2E7F0" stroke-width="1.5"/>
<path d="M643 130H610.5V162.5H643V130Z" stroke="#E2E7F0" stroke-width="1.5"/>
<path d="M675.5 130H643V162.5H675.5V130Z" stroke="#E2E7F0" stroke-width="1.5"/>
<path d="M708 130H675.5V162.5H708V130Z" stroke="#E2E7F0" stroke-width="1.5"/>
<path d="M740.5 130H708V162.5H740.5V130Z" stroke="#E2E7F0" stroke-width="1.5"/>
<path d="M773 130H740.5V162.5H773V130Z" stroke="#E2E7F0" stroke-width="1.5"/>
<path d="M805.5 130H773V162.5H805.5V130Z" stroke="#E2E7F0" stroke-width="1.5"/>
<path d="M838 130H805.5V162.5H838V130Z" stroke="#E2E7F0" stroke-width="1.5"/>
<path d="M870.5 130H838V162.5H870.5V130Z" stroke="#E2E7F0" stroke-width="1.5"/>
<path d="M903 130H870.5V162.5H903V130Z" stroke="#E2E7F0" stroke-width="1.5"/>
<path d="M935.5 130H903V162.5H935.5V130Z" stroke="#E2E7F0" stroke-width="1.5"/>
<path d="M968 130H935.5V162.5H968V130Z" stroke="#E2E7F0" stroke-width="1.5"/>
<path d="M1000.5 130H968V162.5H1000.5V130Z" stroke="#E2E7F0" stroke-width="1.5"/>
<path d="M1033 130H1000.5V162.5H1033V130Z" stroke="#E2E7F0" stroke-width="1.5"/>
<path d="M1065.5 130H1033V162.5H1065.5V130Z" stroke="#E2E7F0" stroke-width="1.5"/>
<path d="M25.5 162.5H-7V195H25.5V162.5Z" stroke="#E2E7F0" stroke-width="1.5"/>
<path d="M58 162.5H25.5V195H58V162.5Z" stroke="#E2E7F0" stroke-width="1.5"/>
<path d="M90.5 162.5H58V195H90.5V162.5Z" stroke="#E2E7F0" stroke-width="1.5"/>
<path d="M123 162.5H90.5V195H123V162.5Z" stroke="#E2E7F0" stroke-width="1.5"/>
<path d="M155.5 162.5H123V195H155.5V162.5Z" stroke="#E2E7F0" stroke-width="1.5"/>
<path d="M188 162.5H155.5V195H188V162.5Z" stroke="#E2E7F0" stroke-width="1.5"/>
<path d="M220.5 162.5H188V195H220.5V162.5Z" stroke="#E2E7F0" stroke-width="1.5"/>
<path d="M253 162.5H220.5V195H253V162.5Z" stroke="#E2E7F0" stroke-width="1.5"/>
<path d="M285.5 162.5H253V195H285.5V162.5Z" stroke="#E2E7F0" stroke-width="1.5"/>
<path d="M318 162.5H285.5V195H318V162.5Z" stroke="#E2E7F0" stroke-width="1.5"/>
<path d="M350.5 162.5H318V195H350.5V162.5Z" stroke="#E2E7F0" stroke-width="1.5"/>
<path d="M383 162.5H350.5V195H383V162.5Z" stroke="#E2E7F0" stroke-width="1.5"/>
<path d="M415.5 162.5H383V195H415.5V162.5Z" stroke="#E2E7F0" stroke-width="1.5"/>
<path d="M448 162.5H415.5V195H448V162.5Z" stroke="#E2E7F0" stroke-width="1.5"/>
<path d="M480.5 162.5H448V195H480.5V162.5Z" stroke="#E2E7F0" stroke-width="1.5"/>
<path d="M513 162.5H480.5V195H513V162.5Z" stroke="#E2E7F0" stroke-width="1.5"/>
<path d="M545.5 162.5H513V195H545.5V162.5Z" stroke="#E2E7F0" stroke-width="1.5"/>
<path d="M578 162.5H545.5V195H578V162.5Z" stroke="#E2E7F0" stroke-width="1.5"/>
<path d="M610.5 162.5H578V195H610.5V162.5Z" stroke="#E2E7F0" stroke-width="1.5"/>
<path d="M643 162.5H610.5V195H643V162.5Z" stroke="#E2E7F0" stroke-width="1.5"/>
<path d="M675.5 162.5H643V195H675.5V162.5Z" stroke="#E2E7F0" stroke-width="1.5"/>
<path d="M708 162.5H675.5V195H708V162.5Z" stroke="#E2E7F0" stroke-width="1.5"/>
<path d="M740.5 162.5H708V195H740.5V162.5Z" stroke="#E2E7F0" stroke-width="1.5"/>
<path d="M773 162.5H740.5V195H773V162.5Z" stroke="#E2E7F0" stroke-width="1.5"/>
<path d="M805.5 162.5H773V195H805.5V162.5Z" stroke="#E2E7F0" stroke-width="1.5"/>
<path d="M838 162.5H805.5V195H838V162.5Z" stroke="#E2E7F0" stroke-width="1.5"/>
<path d="M870.5 162.5H838V195H870.5V162.5Z" stroke="#E2E7F0" stroke-width="1.5"/>
<path d="M903 162.5H870.5V195H903V162.5Z" fill="#E2E7F0" fill-opacity="0.3" stroke="#E2E7F0" stroke-width="1.5"/>
<path d="M935.5 162.5H903V195H935.5V162.5Z" stroke="#E2E7F0" stroke-width="1.5"/>
<path d="M968 162.5H935.5V195H968V162.5Z" stroke="#E2E7F0" stroke-width="1.5"/>
<path d="M1000.5 162.5H968V195H1000.5V162.5Z" stroke="#E2E7F0" stroke-width="1.5"/>
<path d="M1033 162.5H1000.5V195H1033V162.5Z" stroke="#E2E7F0" stroke-width="1.5"/>
<path d="M1065.5 162.5H1033V195H1065.5V162.5Z" stroke="#E2E7F0" stroke-width="1.5"/>
<path d="M25.5 195H-7V227.5H25.5V195Z" stroke="#E2E7F0" stroke-width="1.5"/>
<path d="M58 195H25.5V227.5H58V195Z" stroke="#E2E7F0" stroke-width="1.5"/>
<path d="M90.5 195H58V227.5H90.5V195Z" stroke="#E2E7F0" stroke-width="1.5"/>
<path d="M123 195H90.5V227.5H123V195Z" stroke="#E2E7F0" stroke-width="1.5"/>
<path d="M155.5 195H123V227.5H155.5V195Z" stroke="#E2E7F0" stroke-width="1.5"/>
<path d="M188 195H155.5V227.5H188V195Z" stroke="#E2E7F0" stroke-width="1.5"/>
<path d="M220.5 195H188V227.5H220.5V195Z" stroke="#E2E7F0" stroke-width="1.5"/>
<path d="M253 195H220.5V227.5H253V195Z" stroke="#E2E7F0" stroke-width="1.5"/>
<path d="M285.5 195H253V227.5H285.5V195Z" stroke="#E2E7F0" stroke-width="1.5"/>
<path d="M318 195H285.5V227.5H318V195Z" stroke="#E2E7F0" stroke-width="1.5"/>
<path d="M350.5 195H318V227.5H350.5V195Z" stroke="#E2E7F0" stroke-width="1.5"/>
<path d="M383 195H350.5V227.5H383V195Z" stroke="#E2E7F0" stroke-width="1.5"/>
<path d="M415.5 195H383V227.5H415.5V195Z" stroke="#E2E7F0" stroke-width="1.5"/>
<path d="M448 195H415.5V227.5H448V195Z" stroke="#E2E7F0" stroke-width="1.5"/>
<path d="M480.5 195H448V227.5H480.5V195Z" stroke="#E2E7F0" stroke-width="1.5"/>
<path d="M513 195H480.5V227.5H513V195Z" stroke="#E2E7F0" stroke-width="1.5"/>
<path d="M545.5 195H513V227.5H545.5V195Z" stroke="#E2E7F0" stroke-width="1.5"/>
<path d="M578 195H545.5V227.5H578V195Z" stroke="#E2E7F0" stroke-width="1.5"/>
<path d="M610.5 195H578V227.5H610.5V195Z" stroke="#E2E7F0" stroke-width="1.5"/>
<path d="M643 195H610.5V227.5H643V195Z" stroke="#E2E7F0" stroke-width="1.5"/>
<path d="M675.5 195H643V227.5H675.5V195Z" stroke="#E2E7F0" stroke-width="1.5"/>
<path d="M708 195H675.5V227.5H708V195Z" stroke="#E2E7F0" stroke-width="1.5"/>
<path d="M740.5 195H708V227.5H740.5V195Z" stroke="#E2E7F0" stroke-width="1.5"/>
<path d="M773 195H740.5V227.5H773V195Z" stroke="#E2E7F0" stroke-width="1.5"/>
<path d="M805.5 195H773V227.5H805.5V195Z" stroke="#E2E7F0" stroke-width="1.5"/>
<path d="M838 195H805.5V227.5H838V195Z" stroke="#E2E7F0" stroke-width="1.5"/>
<path d="M870.5 195H838V227.5H870.5V195Z" stroke="#E2E7F0" stroke-width="1.5"/>
<path d="M903 195H870.5V227.5H903V195Z" stroke="#E2E7F0" stroke-width="1.5"/>
<path d="M935.5 195H903V227.5H935.5V195Z" stroke="#E2E7F0" stroke-width="1.5"/>
<path d="M968 195H935.5V227.5H968V195Z" stroke="#E2E7F0" stroke-width="1.5"/>
<path d="M1000.5 195H968V227.5H1000.5V195Z" stroke="#E2E7F0" stroke-width="1.5"/>
<path d="M1033 195H1000.5V227.5H1033V195Z" stroke="#E2E7F0" stroke-width="1.5"/>
<path d="M1065.5 195H1033V227.5H1065.5V195Z" fill="#E2E7F0" fill-opacity="0.3" stroke="#E2E7F0" stroke-width="1.5"/>
<path d="M25.5 227.5H-7V260H25.5V227.5Z" stroke="#E2E7F0" stroke-width="1.5"/>
<path d="M58 227.5H25.5V260H58V227.5Z" stroke="#E2E7F0" stroke-width="1.5"/>
<path d="M90.5 227.5H58V260H90.5V227.5Z" stroke="#E2E7F0" stroke-width="1.5"/>
<path d="M123 227.5H90.5V260H123V227.5Z" stroke="#E2E7F0" stroke-width="1.5"/>
<path d="M155.5 227.5H123V260H155.5V227.5Z" fill="#E2E7F0" fill-opacity="0.3" stroke="#E2E7F0" stroke-width="1.5"/>
<path d="M188 227.5H155.5V260H188V227.5Z" stroke="#E2E7F0" stroke-width="1.5"/>
<path d="M220.5 227.5H188V260H220.5V227.5Z" stroke="#E2E7F0" stroke-width="1.5"/>
<path d="M253 227.5H220.5V260H253V227.5Z" stroke="#E2E7F0" stroke-width="1.5"/>
<path d="M285.5 227.5H253V260H285.5V227.5Z" stroke="#E2E7F0" stroke-width="1.5"/>
<path d="M318 227.5H285.5V260H318V227.5Z" stroke="#E2E7F0" stroke-width="1.5"/>
<path d="M350.5 227.5H318V260H350.5V227.5Z" stroke="#E2E7F0" stroke-width="1.5"/>
<path d="M383 227.5H350.5V260H383V227.5Z" stroke="#E2E7F0" stroke-width="1.5"/>
<path d="M415.5 227.5H383V260H415.5V227.5Z" stroke="#E2E7F0" stroke-width="1.5"/>
<path d="M448 227.5H415.5V260H448V227.5Z" stroke="#E2E7F0" stroke-width="1.5"/>
<path d="M480.5 227.5H448V260H480.5V227.5Z" stroke="#E2E7F0" stroke-width="1.5"/>
<path d="M513 227.5H480.5V260H513V227.5Z" stroke="#E2E7F0" stroke-width="1.5"/>
<path d="M545.5 227.5H513V260H545.5V227.5Z" stroke="#E2E7F0" stroke-width="1.5"/>
<path d="M578 227.5H545.5V260H578V227.5Z" stroke="#E2E7F0" stroke-width="1.5"/>
<path d="M610.5 227.5H578V260H610.5V227.5Z" stroke="#E2E7F0" stroke-width="1.5"/>
<path d="M643 227.5H610.5V260H643V227.5Z" stroke="#E2E7F0" stroke-width="1.5"/>
<path d="M675.5 227.5H643V260H675.5V227.5Z" stroke="#E2E7F0" stroke-width="1.5"/>
<path d="M708 227.5H675.5V260H708V227.5Z" stroke="#E2E7F0" stroke-width="1.5"/>
<path d="M740.5 227.5H708V260H740.5V227.5Z" stroke="#E2E7F0" stroke-width="1.5"/>
<path d="M773 227.5H740.5V260H773V227.5Z" stroke="#E2E7F0" stroke-width="1.5"/>
<path d="M805.5 227.5H773V260H805.5V227.5Z" stroke="#E2E7F0" stroke-width="1.5"/>
<path d="M838 227.5H805.5V260H838V227.5Z" stroke="#E2E7F0" stroke-width="1.5"/>
<path d="M870.5 227.5H838V260H870.5V227.5Z" stroke="#E2E7F0" stroke-width="1.5"/>
<path d="M903 227.5H870.5V260H903V227.5Z" stroke="#E2E7F0" stroke-width="1.5"/>
<path d="M935.5 227.5H903V260H935.5V227.5Z" fill="#E2E7F0" fill-opacity="0.3" stroke="#E2E7F0" stroke-width="1.5"/>
<path d="M968 227.5H935.5V260H968V227.5Z" stroke="#E2E7F0" stroke-width="1.5"/>
<path d="M1000.5 227.5H968V260H1000.5V227.5Z" stroke="#E2E7F0" stroke-width="1.5"/>
<path d="M1033 227.5H1000.5V260H1033V227.5Z" stroke="#E2E7F0" stroke-width="1.5"/>
<path d="M1065.5 227.5H1033V260H1065.5V227.5Z" stroke="#E2E7F0" stroke-width="1.5"/>
<path d="M25.5 260H-7V292.5H25.5V260Z" stroke="#E2E7F0" stroke-width="1.5"/>
<path d="M58 260H25.5V292.5H58V260Z" stroke="#E2E7F0" stroke-width="1.5"/>
<path d="M90.5 260H58V292.5H90.5V260Z" stroke="#E2E7F0" stroke-width="1.5"/>
<path d="M123 260H90.5V292.5H123V260Z" fill="#E2E7F0" fill-opacity="0.3" stroke="#E2E7F0" stroke-width="1.5"/>
<path d="M155.5 260H123V292.5H155.5V260Z" stroke="#E2E7F0" stroke-width="1.5"/>
<path d="M188 260H155.5V292.5H188V260Z" stroke="#E2E7F0" stroke-width="1.5"/>
<path d="M220.5 260H188V292.5H220.5V260Z" stroke="#E2E7F0" stroke-width="1.5"/>
<path d="M253 260H220.5V292.5H253V260Z" stroke="#E2E7F0" stroke-width="1.5"/>
<path d="M285.5 260H253V292.5H285.5V260Z" stroke="#E2E7F0" stroke-width="1.5"/>
<path d="M318 260H285.5V292.5H318V260Z" stroke="#E2E7F0" stroke-width="1.5"/>
<path d="M350.5 260H318V292.5H350.5V260Z" stroke="#E2E7F0" stroke-width="1.5"/>
<path d="M383 260H350.5V292.5H383V260Z" stroke="#E2E7F0" stroke-width="1.5"/>
<path d="M415.5 260H383V292.5H415.5V260Z" stroke="#E2E7F0" stroke-width="1.5"/>
<path d="M448 260H415.5V292.5H448V260Z" stroke="#E2E7F0" stroke-width="1.5"/>
<path d="M480.5 260H448V292.5H480.5V260Z" stroke="#E2E7F0" stroke-width="1.5"/>
<path d="M513 260H480.5V292.5H513V260Z" stroke="#E2E7F0" stroke-width="1.5"/>
<path d="M545.5 260H513V292.5H545.5V260Z" stroke="#E2E7F0" stroke-width="1.5"/>
<path d="M578 260H545.5V292.5H578V260Z" stroke="#E2E7F0" stroke-width="1.5"/>
<path d="M610.5 260H578V292.5H610.5V260Z" stroke="#E2E7F0" stroke-width="1.5"/>
<path d="M643 260H610.5V292.5H643V260Z" stroke="#E2E7F0" stroke-width="1.5"/>
<path d="M675.5 260H643V292.5H675.5V260Z" stroke="#E2E7F0" stroke-width="1.5"/>
<path d="M708 260H675.5V292.5H708V260Z" stroke="#E2E7F0" stroke-width="1.5"/>
<path d="M740.5 260H708V292.5H740.5V260Z" stroke="#E2E7F0" stroke-width="1.5"/>
<path d="M773 260H740.5V292.5H773V260Z" stroke="#E2E7F0" stroke-width="1.5"/>
<path d="M805.5 260H773V292.5H805.5V260Z" stroke="#E2E7F0" stroke-width="1.5"/>
<path d="M838 260H805.5V292.5H838V260Z" stroke="#E2E7F0" stroke-width="1.5"/>
<path d="M870.5 260H838V292.5H870.5V260Z" stroke="#E2E7F0" stroke-width="1.5"/>
<path d="M903 260H870.5V292.5H903V260Z" stroke="#E2E7F0" stroke-width="1.5"/>
<path d="M935.5 260H903V292.5H935.5V260Z" stroke="#E2E7F0" stroke-width="1.5"/>
<path d="M968 260H935.5V292.5H968V260Z" stroke="#E2E7F0" stroke-width="1.5"/>
<path d="M1000.5 260H968V292.5H1000.5V260Z" stroke="#E2E7F0" stroke-width="1.5"/>
<path d="M1033 260H1000.5V292.5H1033V260Z" stroke="#E2E7F0" stroke-width="1.5"/>
<path d="M1065.5 260H1033V292.5H1065.5V260Z" stroke="#E2E7F0" stroke-width="1.5"/>
<path d="M25.5 292.5H-7V325H25.5V292.5Z" stroke="#E2E7F0" stroke-width="1.5"/>
<path d="M58 292.5H25.5V325H58V292.5Z" fill="#E2E7F0" fill-opacity="0.3" stroke="#E2E7F0" stroke-width="1.5"/>
<path d="M90.5 292.5H58V325H90.5V292.5Z" stroke="#E2E7F0" stroke-width="1.5"/>
<path d="M123 292.5H90.5V325H123V292.5Z" stroke="#E2E7F0" stroke-width="1.5"/>
<path d="M155.5 292.5H123V325H155.5V292.5Z" stroke="#E2E7F0" stroke-width="1.5"/>
<path d="M188 292.5H155.5V325H188V292.5Z" stroke="#E2E7F0" stroke-width="1.5"/>
<path d="M220.5 292.5H188V325H220.5V292.5Z" stroke="#E2E7F0" stroke-width="1.5"/>
<path d="M253 292.5H220.5V325H253V292.5Z" stroke="#E2E7F0" stroke-width="1.5"/>
<path d="M285.5 292.5H253V325H285.5V292.5Z" stroke="#E2E7F0" stroke-width="1.5"/>
<path d="M318 292.5H285.5V325H318V292.5Z" stroke="#E2E7F0" stroke-width="1.5"/>
<path d="M350.5 292.5H318V325H350.5V292.5Z" stroke="#E2E7F0" stroke-width="1.5"/>
<path d="M383 292.5H350.5V325H383V292.5Z" stroke="#E2E7F0" stroke-width="1.5"/>
<path d="M415.5 292.5H383V325H415.5V292.5Z" stroke="#E2E7F0" stroke-width="1.5"/>
<path d="M448 292.5H415.5V325H448V292.5Z" stroke="#E2E7F0" stroke-width="1.5"/>
<path d="M480.5 292.5H448V325H480.5V292.5Z" stroke="#E2E7F0" stroke-width="1.5"/>
<path d="M513 292.5H480.5V325H513V292.5Z" stroke="#E2E7F0" stroke-width="1.5"/>
<path d="M545.5 292.5H513V325H545.5V292.5Z" stroke="#E2E7F0" stroke-width="1.5"/>
<path d="M578 292.5H545.5V325H578V292.5Z" stroke="#E2E7F0" stroke-width="1.5"/>
<path d="M610.5 292.5H578V325H610.5V292.5Z" stroke="#E2E7F0" stroke-width="1.5"/>
<path d="M643 292.5H610.5V325H643V292.5Z" stroke="#E2E7F0" stroke-width="1.5"/>
<path d="M675.5 292.5H643V325H675.5V292.5Z" stroke="#E2E7F0" stroke-width="1.5"/>
<path d="M708 292.5H675.5V325H708V292.5Z" stroke="#E2E7F0" stroke-width="1.5"/>
<path d="M740.5 292.5H708V325H740.5V292.5Z" stroke="#E2E7F0" stroke-width="1.5"/>
<path d="M773 292.5H740.5V325H773V292.5Z" stroke="#E2E7F0" stroke-width="1.5"/>
<path d="M805.5 292.5H773V325H805.5V292.5Z" stroke="#E2E7F0" stroke-width="1.5"/>
<path d="M838 292.5H805.5V325H838V292.5Z" stroke="#E2E7F0" stroke-width="1.5"/>
<path d="M870.5 292.5H838V325H870.5V292.5Z" stroke="#E2E7F0" stroke-width="1.5"/>
<path d="M903 292.5H870.5V325H903V292.5Z" stroke="#E2E7F0" stroke-width="1.5"/>
<path d="M935.5 292.5H903V325H935.5V292.5Z" stroke="#E2E7F0" stroke-width="1.5"/>
<path d="M968 292.5H935.5V325H968V292.5Z" stroke="#E2E7F0" stroke-width="1.5"/>
<path d="M1000.5 292.5H968V325H1000.5V292.5Z" stroke="#E2E7F0" stroke-width="1.5"/>
<path d="M1033 292.5H1000.5V325H1033V292.5Z" stroke="#E2E7F0" stroke-width="1.5"/>
<path d="M1065.5 292.5H1033V325H1065.5V292.5Z" stroke="#E2E7F0" stroke-width="1.5"/>
<path d="M25.5 325H-7V357.5H25.5V325Z" stroke="#E2E7F0" stroke-width="1.5"/>
<path d="M58 325H25.5V357.5H58V325Z" stroke="#E2E7F0" stroke-width="1.5"/>
<path d="M90.5 325H58V357.5H90.5V325Z" stroke="#E2E7F0" stroke-width="1.5"/>
<path d="M123 325H90.5V357.5H123V325Z" stroke="#E2E7F0" stroke-width="1.5"/>
<path d="M155.5 325H123V357.5H155.5V325Z" stroke="#E2E7F0" stroke-width="1.5"/>
<path d="M188 325H155.5V357.5H188V325Z" fill="#E2E7F0" fill-opacity="0.3" stroke="#E2E7F0" stroke-width="1.5"/>
<path d="M220.5 325H188V357.5H220.5V325Z" stroke="#E2E7F0" stroke-width="1.5"/>
<path d="M253 325H220.5V357.5H253V325Z" stroke="#E2E7F0" stroke-width="1.5"/>
<path d="M285.5 325H253V357.5H285.5V325Z" stroke="#E2E7F0" stroke-width="1.5"/>
<path d="M318 325H285.5V357.5H318V325Z" stroke="#E2E7F0" stroke-width="1.5"/>
<path d="M350.5 325H318V357.5H350.5V325Z" stroke="#E2E7F0" stroke-width="1.5"/>
<path d="M383 325H350.5V357.5H383V325Z" stroke="#E2E7F0" stroke-width="1.5"/>
<path d="M415.5 325H383V357.5H415.5V325Z" fill="#E2E7F0" fill-opacity="0.3" stroke="#E2E7F0" stroke-width="1.5"/>
<path d="M448 325H415.5V357.5H448V325Z" stroke="#E2E7F0" stroke-width="1.5"/>
<path d="M480.5 325H448V357.5H480.5V325Z" stroke="#E2E7F0" stroke-width="1.5"/>
<path d="M513 325H480.5V357.5H513V325Z" stroke="#E2E7F0" stroke-width="1.5"/>
<path d="M545.5 325H513V357.5H545.5V325Z" stroke="#E2E7F0" stroke-width="1.5"/>
<path d="M578 325H545.5V357.5H578V325Z" stroke="#E2E7F0" stroke-width="1.5"/>
<path d="M610.5 325H578V357.5H610.5V325Z" stroke="#E2E7F0" stroke-width="1.5"/>
<path d="M643 325H610.5V357.5H643V325Z" stroke="#E2E7F0" stroke-width="1.5"/>
<path d="M675.5 325H643V357.5H675.5V325Z" stroke="#E2E7F0" stroke-width="1.5"/>
<path d="M708 325H675.5V357.5H708V325Z" stroke="#E2E7F0" stroke-width="1.5"/>
<path d="M740.5 325H708V357.5H740.5V325Z" stroke="#E2E7F0" stroke-width="1.5"/>
<path d="M773 325H740.5V357.5H773V325Z" stroke="#E2E7F0" stroke-width="1.5"/>
<path d="M805.5 325H773V357.5H805.5V325Z" stroke="#E2E7F0" stroke-width="1.5"/>
<path d="M838 325H805.5V357.5H838V325Z" stroke="#E2E7F0" stroke-width="1.5"/>
<path d="M870.5 325H838V357.5H870.5V325Z" stroke="#E2E7F0" stroke-width="1.5"/>
<path d="M903 325H870.5V357.5H903V325Z" stroke="#E2E7F0" stroke-width="1.5"/>
<path d="M935.5 325H903V357.5H935.5V325Z" stroke="#E2E7F0" stroke-width="1.5"/>
<path d="M968 325H935.5V357.5H968V325Z" stroke="#E2E7F0" stroke-width="1.5"/>
<path d="M1000.5 325H968V357.5H1000.5V325Z" stroke="#E2E7F0" stroke-width="1.5"/>
<path d="M1033 325H1000.5V357.5H1033V325Z" stroke="#E2E7F0" stroke-width="1.5"/>
<path d="M1065.5 325H1033V357.5H1065.5V325Z" stroke="#E2E7F0" stroke-width="1.5"/>
<path d="M25.5 357.5H-7V390H25.5V357.5Z" stroke="#E2E7F0" stroke-width="1.5"/>
<path d="M58 357.5H25.5V390H58V357.5Z" stroke="#E2E7F0" stroke-width="1.5"/>
<path d="M90.5 357.5H58V390H90.5V357.5Z" stroke="#E2E7F0" stroke-width="1.5"/>
<path d="M123 357.5H90.5V390H123V357.5Z" stroke="#E2E7F0" stroke-width="1.5"/>
<path d="M155.5 357.5H123V390H155.5V357.5Z" stroke="#E2E7F0" stroke-width="1.5"/>
<path d="M188 357.5H155.5V390H188V357.5Z" stroke="#E2E7F0" stroke-width="1.5"/>
<path d="M220.5 357.5H188V390H220.5V357.5Z" stroke="#E2E7F0" stroke-width="1.5"/>
<path d="M253 357.5H220.5V390H253V357.5Z" stroke="#E2E7F0" stroke-width="1.5"/>
<path d="M285.5 357.5H253V390H285.5V357.5Z" stroke="#E2E7F0" stroke-width="1.5"/>
<path d="M318 357.5H285.5V390H318V357.5Z" stroke="#E2E7F0" stroke-width="1.5"/>
<path d="M350.5 357.5H318V390H350.5V357.5Z" stroke="#E2E7F0" stroke-width="1.5"/>
<path d="M383 357.5H350.5V390H383V357.5Z" stroke="#E2E7F0" stroke-width="1.5"/>
<path d="M415.5 357.5H383V390H415.5V357.5Z" stroke="#E2E7F0" stroke-width="1.5"/>
<path d="M448 357.5H415.5V390H448V357.5Z" stroke="#E2E7F0" stroke-width="1.5"/>
<path d="M480.5 357.5H448V390H480.5V357.5Z" stroke="#E2E7F0" stroke-width="1.5"/>
<path d="M513 357.5H480.5V390H513V357.5Z" stroke="#E2E7F0" stroke-width="1.5"/>
<path d="M545.5 357.5H513V390H545.5V357.5Z" stroke="#E2E7F0" stroke-width="1.5"/>
<path d="M578 357.5H545.5V390H578V357.5Z" stroke="#E2E7F0" stroke-width="1.5"/>
<path d="M610.5 357.5H578V390H610.5V357.5Z" stroke="#E2E7F0" stroke-width="1.5"/>
<path d="M643 357.5H610.5V390H643V357.5Z" stroke="#E2E7F0" stroke-width="1.5"/>
<path d="M675.5 357.5H643V390H675.5V357.5Z" stroke="#E2E7F0" stroke-width="1.5"/>
<path d="M708 357.5H675.5V390H708V357.5Z" stroke="#E2E7F0" stroke-width="1.5"/>
<path d="M740.5 357.5H708V390H740.5V357.5Z" stroke="#E2E7F0" stroke-width="1.5"/>
<path d="M773 357.5H740.5V390H773V357.5Z" stroke="#E2E7F0" stroke-width="1.5"/>
<path d="M805.5 357.5H773V390H805.5V357.5Z" stroke="#E2E7F0" stroke-width="1.5"/>
<path d="M838 357.5H805.5V390H838V357.5Z" fill="#E2E7F0" fill-opacity="0.3" stroke="#E2E7F0" stroke-width="1.5"/>
<path d="M870.5 357.5H838V390H870.5V357.5Z" stroke="#E2E7F0" stroke-width="1.5"/>
<path d="M903 357.5H870.5V390H903V357.5Z" stroke="#E2E7F0" stroke-width="1.5"/>
<path d="M935.5 357.5H903V390H935.5V357.5Z" stroke="#E2E7F0" stroke-width="1.5"/>
<path d="M968 357.5H935.5V390H968V357.5Z" stroke="#E2E7F0" stroke-width="1.5"/>
<path d="M1000.5 357.5H968V390H1000.5V357.5Z" stroke="#E2E7F0" stroke-width="1.5"/>
<path d="M1033 357.5H1000.5V390H1033V357.5Z" stroke="#E2E7F0" stroke-width="1.5"/>
<path d="M1065.5 357.5H1033V390H1065.5V357.5Z" fill="#E2E7F0" fill-opacity="0.3" stroke="#E2E7F0" stroke-width="1.5"/>
<path d="M25.5 390H-7V422.5H25.5V390Z" fill="#E2E7F0" fill-opacity="0.3" stroke="#E2E7F0" stroke-width="1.5"/>
<path d="M58 390H25.5V422.5H58V390Z" stroke="#E2E7F0" stroke-width="1.5"/>
<path d="M90.5 390H58V422.5H90.5V390Z" stroke="#E2E7F0" stroke-width="1.5"/>
<path d="M123 390H90.5V422.5H123V390Z" stroke="#E2E7F0" stroke-width="1.5"/>
<path d="M155.5 390H123V422.5H155.5V390Z" stroke="#E2E7F0" stroke-width="1.5"/>
<path d="M188 390H155.5V422.5H188V390Z" stroke="#E2E7F0" stroke-width="1.5"/>
<path d="M220.5 390H188V422.5H220.5V390Z" stroke="#E2E7F0" stroke-width="1.5"/>
<path d="M253 390H220.5V422.5H253V390Z" stroke="#E2E7F0" stroke-width="1.5"/>
<path d="M285.5 390H253V422.5H285.5V390Z" stroke="#E2E7F0" stroke-width="1.5"/>
<path d="M318 390H285.5V422.5H318V390Z" stroke="#E2E7F0" stroke-width="1.5"/>
<path d="M350.5 390H318V422.5H350.5V390Z" fill="#E2E7F0" fill-opacity="0.3" stroke="#E2E7F0" stroke-width="1.5"/>
<path d="M383 390H350.5V422.5H383V390Z" stroke="#E2E7F0" stroke-width="1.5"/>
<path d="M415.5 390H383V422.5H415.5V390Z" stroke="#E2E7F0" stroke-width="1.5"/>
<path d="M448 390H415.5V422.5H448V390Z" stroke="#E2E7F0" stroke-width="1.5"/>
<path d="M480.5 390H448V422.5H480.5V390Z" stroke="#E2E7F0" stroke-width="1.5"/>
<path d="M513 390H480.5V422.5H513V390Z" stroke="#E2E7F0" stroke-width="1.5"/>
<path d="M545.5 390H513V422.5H545.5V390Z" stroke="#E2E7F0" stroke-width="1.5"/>
<path d="M578 390H545.5V422.5H578V390Z" stroke="#E2E7F0" stroke-width="1.5"/>
<path d="M610.5 390H578V422.5H610.5V390Z" stroke="#E2E7F0" stroke-width="1.5"/>
<path d="M643 390H610.5V422.5H643V390Z" stroke="#E2E7F0" stroke-width="1.5"/>
<path d="M675.5 390H643V422.5H675.5V390Z" stroke="#E2E7F0" stroke-width="1.5"/>
<path d="M708 390H675.5V422.5H708V390Z" stroke="#E2E7F0" stroke-width="1.5"/>
<path d="M740.5 390H708V422.5H740.5V390Z" stroke="#E2E7F0" stroke-width="1.5"/>
<path d="M773 390H740.5V422.5H773V390Z" fill="#E2E7F0" fill-opacity="0.3" stroke="#E2E7F0" stroke-width="1.5"/>
<path d="M805.5 390H773V422.5H805.5V390Z" stroke="#E2E7F0" stroke-width="1.5"/>
<path d="M838 390H805.5V422.5H838V390Z" stroke="#E2E7F0" stroke-width="1.5"/>
<path d="M870.5 390H838V422.5H870.5V390Z" stroke="#E2E7F0" stroke-width="1.5"/>
<path d="M903 390H870.5V422.5H903V390Z" stroke="#E2E7F0" stroke-width="1.5"/>
<path d="M935.5 390H903V422.5H935.5V390Z" stroke="#E2E7F0" stroke-width="1.5"/>
<path d="M968 390H935.5V422.5H968V390Z" stroke="#E2E7F0" stroke-width="1.5"/>
<path d="M1000.5 390H968V422.5H1000.5V390Z" stroke="#E2E7F0" stroke-width="1.5"/>
<path d="M1033 390H1000.5V422.5H1033V390Z" stroke="#E2E7F0" stroke-width="1.5"/>
<path d="M1065.5 390H1033V422.5H1065.5V390Z" stroke="#E2E7F0" stroke-width="1.5"/>
<path d="M25.5 422.5H-7V455H25.5V422.5Z" stroke="#E2E7F0" stroke-width="1.5"/>
<path d="M58 422.5H25.5V455H58V422.5Z" stroke="#E2E7F0" stroke-width="1.5"/>
<path d="M90.5 422.5H58V455H90.5V422.5Z" stroke="#E2E7F0" stroke-width="1.5"/>
<path d="M123 422.5H90.5V455H123V422.5Z" fill="#E2E7F0" fill-opacity="0.3" stroke="#E2E7F0" stroke-width="1.5"/>
<path d="M155.5 422.5H123V455H155.5V422.5Z" stroke="#E2E7F0" stroke-width="1.5"/>
<path d="M188 422.5H155.5V455H188V422.5Z" stroke="#E2E7F0" stroke-width="1.5"/>
<path d="M220.5 422.5H188V455H220.5V422.5Z" stroke="#E2E7F0" stroke-width="1.5"/>
<path d="M253 422.5H220.5V455H253V422.5Z" stroke="#E2E7F0" stroke-width="1.5"/>
<path d="M285.5 422.5H253V455H285.5V422.5Z" stroke="#E2E7F0" stroke-width="1.5"/>
<path d="M318 422.5H285.5V455H318V422.5Z" stroke="#E2E7F0" stroke-width="1.5"/>
<path d="M350.5 422.5H318V455H350.5V422.5Z" stroke="#E2E7F0" stroke-width="1.5"/>
<path d="M383 422.5H350.5V455H383V422.5Z" stroke="#E2E7F0" stroke-width="1.5"/>
<path d="M415.5 422.5H383V455H415.5V422.5Z" stroke="#E2E7F0" stroke-width="1.5"/>
<path d="M448 422.5H415.5V455H448V422.5Z" stroke="#E2E7F0" stroke-width="1.5"/>
<path d="M480.5 422.5H448V455H480.5V422.5Z" stroke="#E2E7F0" stroke-width="1.5"/>
<path d="M513 422.5H480.5V455H513V422.5Z" stroke="#E2E7F0" stroke-width="1.5"/>
<path d="M545.5 422.5H513V455H545.5V422.5Z" stroke="#E2E7F0" stroke-width="1.5"/>
<path d="M578 422.5H545.5V455H578V422.5Z" stroke="#E2E7F0" stroke-width="1.5"/>
<path d="M610.5 422.5H578V455H610.5V422.5Z" stroke="#E2E7F0" stroke-width="1.5"/>
<path d="M643 422.5H610.5V455H643V422.5Z" stroke="#E2E7F0" stroke-width="1.5"/>
<path d="M675.5 422.5H643V455H675.5V422.5Z" stroke="#E2E7F0" stroke-width="1.5"/>
<path d="M708 422.5H675.5V455H708V422.5Z" stroke="#E2E7F0" stroke-width="1.5"/>
<path d="M740.5 422.5H708V455H740.5V422.5Z" stroke="#E2E7F0" stroke-width="1.5"/>
<path d="M773 422.5H740.5V455H773V422.5Z" stroke="#E2E7F0" stroke-width="1.5"/>
<path d="M805.5 422.5H773V455H805.5V422.5Z" stroke="#E2E7F0" stroke-width="1.5"/>
<path d="M838 422.5H805.5V455H838V422.5Z" stroke="#E2E7F0" stroke-width="1.5"/>
<path d="M870.5 422.5H838V455H870.5V422.5Z" stroke="#E2E7F0" stroke-width="1.5"/>
<path d="M903 422.5H870.5V455H903V422.5Z" stroke="#E2E7F0" stroke-width="1.5"/>
<path d="M935.5 422.5H903V455H935.5V422.5Z" stroke="#E2E7F0" stroke-width="1.5"/>
<path d="M968 422.5H935.5V455H968V422.5Z" stroke="#E2E7F0" stroke-width="1.5"/>
<path d="M1000.5 422.5H968V455H1000.5V422.5Z" stroke="#E2E7F0" stroke-width="1.5"/>
<path d="M1033 422.5H1000.5V455H1033V422.5Z" stroke="#E2E7F0" stroke-width="1.5"/>
<path d="M1065.5 422.5H1033V455H1065.5V422.5Z" stroke="#E2E7F0" stroke-width="1.5"/>
<path d="M25.5 455H-7V487.5H25.5V455Z" stroke="#E2E7F0" stroke-width="1.5"/>
<path d="M58 455H25.5V487.5H58V455Z" stroke="#E2E7F0" stroke-width="1.5"/>
<path d="M90.5 455H58V487.5H90.5V455Z" stroke="#E2E7F0" stroke-width="1.5"/>
<path d="M123 455H90.5V487.5H123V455Z" stroke="#E2E7F0" stroke-width="1.5"/>
<path d="M155.5 455H123V487.5H155.5V455Z" stroke="#E2E7F0" stroke-width="1.5"/>
<path d="M188 455H155.5V487.5H188V455Z" stroke="#E2E7F0" stroke-width="1.5"/>
<path d="M220.5 455H188V487.5H220.5V455Z" stroke="#E2E7F0" stroke-width="1.5"/>
<path d="M253 455H220.5V487.5H253V455Z" stroke="#E2E7F0" stroke-width="1.5"/>
<path d="M285.5 455H253V487.5H285.5V455Z" stroke="#E2E7F0" stroke-width="1.5"/>
<path d="M318 455H285.5V487.5H318V455Z" stroke="#E2E7F0" stroke-width="1.5"/>
<path d="M350.5 455H318V487.5H350.5V455Z" stroke="#E2E7F0" stroke-width="1.5"/>
<path d="M383 455H350.5V487.5H383V455Z" stroke="#E2E7F0" stroke-width="1.5"/>
<path d="M415.5 455H383V487.5H415.5V455Z" stroke="#E2E7F0" stroke-width="1.5"/>
<path d="M448 455H415.5V487.5H448V455Z" stroke="#E2E7F0" stroke-width="1.5"/>
<path d="M480.5 455H448V487.5H480.5V455Z" stroke="#E2E7F0" stroke-width="1.5"/>
<path d="M513 455H480.5V487.5H513V455Z" stroke="#E2E7F0" stroke-width="1.5"/>
<path d="M545.5 455H513V487.5H545.5V455Z" stroke="#E2E7F0" stroke-width="1.5"/>
<path d="M578 455H545.5V487.5H578V455Z" stroke="#E2E7F0" stroke-width="1.5"/>
<path d="M610.5 455H578V487.5H610.5V455Z" stroke="#E2E7F0" stroke-width="1.5"/>
<path d="M643 455H610.5V487.5H643V455Z" stroke="#E2E7F0" stroke-width="1.5"/>
<path d="M675.5 455H643V487.5H675.5V455Z" stroke="#E2E7F0" stroke-width="1.5"/>
<path d="M708 455H675.5V487.5H708V455Z" stroke="#E2E7F0" stroke-width="1.5"/>
<path d="M740.5 455H708V487.5H740.5V455Z" stroke="#E2E7F0" stroke-width="1.5"/>
<path d="M773 455H740.5V487.5H773V455Z" stroke="#E2E7F0" stroke-width="1.5"/>
<path d="M805.5 455H773V487.5H805.5V455Z" stroke="#E2E7F0" stroke-width="1.5"/>
<path d="M838 455H805.5V487.5H838V455Z" stroke="#E2E7F0" stroke-width="1.5"/>
<path d="M870.5 455H838V487.5H870.5V455Z" stroke="#E2E7F0" stroke-width="1.5"/>
<path d="M903 455H870.5V487.5H903V455Z" fill="#E2E7F0" fill-opacity="0.3" stroke="#E2E7F0" stroke-width="1.5"/>
<path d="M935.5 455H903V487.5H935.5V455Z" stroke="#E2E7F0" stroke-width="1.5"/>
<path d="M968 455H935.5V487.5H968V455Z" stroke="#E2E7F0" stroke-width="1.5"/>
<path d="M1000.5 455H968V487.5H1000.5V455Z" stroke="#E2E7F0" stroke-width="1.5"/>
<path d="M1033 455H1000.5V487.5H1033V455Z" stroke="#E2E7F0" stroke-width="1.5"/>
<path d="M1065.5 455H1033V487.5H1065.5V455Z" fill="#E2E7F0" fill-opacity="0.3" stroke="#E2E7F0" stroke-width="1.5"/>
<path d="M25.5 487.5H-7V520H25.5V487.5Z" stroke="#E2E7F0" stroke-width="1.5"/>
<path d="M58 487.5H25.5V520H58V487.5Z" stroke="#E2E7F0" stroke-width="1.5"/>
<path d="M90.5 487.5H58V520H90.5V487.5Z" stroke="#E2E7F0" stroke-width="1.5"/>
<path d="M123 487.5H90.5V520H123V487.5Z" stroke="#E2E7F0" stroke-width="1.5"/>
<path d="M155.5 487.5H123V520H155.5V487.5Z" fill="#E2E7F0" fill-opacity="0.3" stroke="#E2E7F0" stroke-width="1.5"/>
<path d="M188 487.5H155.5V520H188V487.5Z" stroke="#E2E7F0" stroke-width="1.5"/>
<path d="M220.5 487.5H188V520H220.5V487.5Z" stroke="#E2E7F0" stroke-width="1.5"/>
<path d="M253 487.5H220.5V520H253V487.5Z" stroke="#E2E7F0" stroke-width="1.5"/>
<path d="M285.5 487.5H253V520H285.5V487.5Z" stroke="#E2E7F0" stroke-width="1.5"/>
<path d="M318 487.5H285.5V520H318V487.5Z" stroke="#E2E7F0" stroke-width="1.5"/>
<path d="M350.5 487.5H318V520H350.5V487.5Z" stroke="#E2E7F0" stroke-width="1.5"/>
<path d="M383 487.5H350.5V520H383V487.5Z" stroke="#E2E7F0" stroke-width="1.5"/>
<path d="M415.5 487.5H383V520H415.5V487.5Z" stroke="#E2E7F0" stroke-width="1.5"/>
<path d="M448 487.5H415.5V520H448V487.5Z" stroke="#E2E7F0" stroke-width="1.5"/>
<path d="M480.5 487.5H448V520H480.5V487.5Z" stroke="#E2E7F0" stroke-width="1.5"/>
<path d="M513 487.5H480.5V520H513V487.5Z" stroke="#E2E7F0" stroke-width="1.5"/>
<path d="M545.5 487.5H513V520H545.5V487.5Z" stroke="#E2E7F0" stroke-width="1.5"/>
<path d="M578 487.5H545.5V520H578V487.5Z" stroke="#E2E7F0" stroke-width="1.5"/>
<path d="M610.5 487.5H578V520H610.5V487.5Z" stroke="#E2E7F0" stroke-width="1.5"/>
<path d="M643 487.5H610.5V520H643V487.5Z" stroke="#E2E7F0" stroke-width="1.5"/>
<path d="M675.5 487.5H643V520H675.5V487.5Z" stroke="#E2E7F0" stroke-width="1.5"/>
<path d="M708 487.5H675.5V520H708V487.5Z" stroke="#E2E7F0" stroke-width="1.5"/>
<path d="M740.5 487.5H708V520H740.5V487.5Z" stroke="#E2E7F0" stroke-width="1.5"/>
<path d="M773 487.5H740.5V520H773V487.5Z" stroke="#E2E7F0" stroke-width="1.5"/>
<path d="M805.5 487.5H773V520H805.5V487.5Z" stroke="#E2E7F0" stroke-width="1.5"/>
<path d="M838 487.5H805.5V520H838V487.5Z" stroke="#E2E7F0" stroke-width="1.5"/>
<path d="M870.5 487.5H838V520H870.5V487.5Z" stroke="#E2E7F0" stroke-width="1.5"/>
<path d="M903 487.5H870.5V520H903V487.5Z" stroke="#E2E7F0" stroke-width="1.5"/>
<path d="M935.5 487.5H903V520H935.5V487.5Z" stroke="#E2E7F0" stroke-width="1.5"/>
<path d="M968 487.5H935.5V520H968V487.5Z" stroke="#E2E7F0" stroke-width="1.5"/>
<path d="M1000.5 487.5H968V520H1000.5V487.5Z" fill="#E2E7F0" fill-opacity="0.3" stroke="#E2E7F0" stroke-width="1.5"/>
<path d="M1033 487.5H1000.5V520H1033V487.5Z" stroke="#E2E7F0" stroke-width="1.5"/>
<path d="M1065.5 487.5H1033V520H1065.5V487.5Z" stroke="#E2E7F0" stroke-width="1.5"/>
</g>
</g>
</g>
<defs>
<radialGradient id="paint0_radial_1035_1692" cx="0" cy="0" r="1" gradientUnits="userSpaceOnUse" gradientTransform="translate(551.758 263.925) rotate(91.4) scale(256.152 463.133)">
<stop stop-color="#D9D9D9"/>
<stop offset="1" stop-color="#D9D9D9" stop-opacity="0"/>
</radialGradient>
<clipPath id="clip0_1035_1692">
<rect width="1040" height="520" fill="white"/>
</clipPath>
</defs>
</svg>
