<svg width="1184" height="519" viewBox="0 0 1184 519" fill="none" xmlns="http://www.w3.org/2000/svg">
<g clip-path="url(#clip0_1035_2580)">
<mask id="mask0_1035_2580" style="mask-type:alpha" maskUnits="userSpaceOnUse" x="0" y="0" width="1184" height="530">
<path d="M1184 0H0V530H1184V0Z" fill="url(#paint0_radial_1035_2580)" fill-opacity="0.7"/>
</mask>
<g mask="url(#mask0_1035_2580)">
<g clip-path="url(#clip1_1035_2580)">
<g opacity="0.14">
<path d="M-128 20.5H1312" stroke="white"/>
<path d="M-128 37H1312" stroke="white"/>
<path d="M-128 54H1312" stroke="white"/>
<path d="M-128 75H1312" stroke="white"/>
<path d="M-128 98H1312" stroke="white"/>
<path d="M-128 126H1312" stroke="white"/>
<path d="M-128 160H1312" stroke="white"/>
<path d="M-128 200H1312" stroke="white"/>
<path d="M-128 251H1312" stroke="white"/>
<path d="M-128 315H1312" stroke="white"/>
<path d="M-128 7H1312" stroke="white"/>
</g>
<path opacity="0.14" d="M592 -15V545" stroke="white"/>
<path opacity="0.14" d="M664 -15L939 545" stroke="white"/>
<path opacity="0.14" d="M764 -15L1319 545" stroke="white"/>
<g filter="url(#filter0_f_1035_2580)">
<path d="M1319 545L927.031 149.5" stroke="url(#paint1_linear_1035_2580)"/>
</g>
<path opacity="0.14" d="M867 -15L1689 545" stroke="white"/>
<g filter="url(#filter1_f_1035_2580)">
<path d="M1689 545L910.5 14.6353" stroke="url(#paint2_linear_1035_2580)"/>
</g>
<path opacity="0.14" d="M968 -15L2060 545" stroke="white"/>
<path opacity="0.14" d="M1069 -15L2421 545" stroke="white"/>
<path opacity="0.14" d="M1170 -15L2752 545" stroke="white"/>
<path opacity="0.14" d="M520 -15L245 545" stroke="white"/>
<g filter="url(#filter2_f_1035_2580)">
<path d="M245 545L447.812 132" stroke="url(#paint3_linear_1035_2580)"/>
</g>
<path opacity="0.14" d="M420 -15L-135 545" stroke="white"/>
<path opacity="0.14" d="M317 -15L-505 545" stroke="white"/>
<g filter="url(#filter3_f_1035_2580)">
<path d="M-505 545L225 47.6763" stroke="url(#paint4_linear_1035_2580)"/>
</g>
<path opacity="0.14" d="M216 -15L-876 545" stroke="white"/>
<path opacity="0.14" d="M115 -15L-1237 545" stroke="white"/>
<path opacity="0.14" d="M14 -15L-1568 545" stroke="white"/>
</g>
</g>
</g>
<defs>
<filter id="filter0_f_1035_2580" x="925.176" y="147.648" width="395.68" height="399.204" filterUnits="userSpaceOnUse" color-interpolation-filters="sRGB">
<feFlood flood-opacity="0" result="BackgroundImageFix"/>
<feBlend mode="normal" in="SourceGraphic" in2="BackgroundImageFix" result="shape"/>
<feGaussianBlur stdDeviation="0.75" result="effect1_foregroundBlur_1035_2580"/>
</filter>
<filter id="filter1_f_1035_2580" x="908.719" y="12.7222" width="782.062" height="534.191" filterUnits="userSpaceOnUse" color-interpolation-filters="sRGB">
<feFlood flood-opacity="0" result="BackgroundImageFix"/>
<feBlend mode="normal" in="SourceGraphic" in2="BackgroundImageFix" result="shape"/>
<feGaussianBlur stdDeviation="0.75" result="effect1_foregroundBlur_1035_2580"/>
</filter>
<filter id="filter2_f_1035_2580" x="243.051" y="130.28" width="206.711" height="416.44" filterUnits="userSpaceOnUse" color-interpolation-filters="sRGB">
<feFlood flood-opacity="0" result="BackgroundImageFix"/>
<feBlend mode="normal" in="SourceGraphic" in2="BackgroundImageFix" result="shape"/>
<feGaussianBlur stdDeviation="0.75" result="effect1_foregroundBlur_1035_2580"/>
</filter>
<filter id="filter3_f_1035_2580" x="-506.781" y="45.7632" width="733.562" height="501.15" filterUnits="userSpaceOnUse" color-interpolation-filters="sRGB">
<feFlood flood-opacity="0" result="BackgroundImageFix"/>
<feBlend mode="normal" in="SourceGraphic" in2="BackgroundImageFix" result="shape"/>
<feGaussianBlur stdDeviation="0.75" result="effect1_foregroundBlur_1035_2580"/>
</filter>
<radialGradient id="paint0_radial_1035_2580" cx="0" cy="0" r="1" gradientUnits="userSpaceOnUse" gradientTransform="translate(592 149) rotate(90) scale(381 648)">
<stop stop-color="#D9D9D9"/>
<stop offset="1" stop-color="#D9D9D9" stop-opacity="0"/>
</radialGradient>
<linearGradient id="paint1_linear_1035_2580" x1="926.669" y1="149.5" x2="947.265" y2="236.038" gradientUnits="userSpaceOnUse">
<stop stop-color="white"/>
<stop offset="1" stop-color="white" stop-opacity="0"/>
</linearGradient>
<linearGradient id="paint2_linear_1035_2580" x1="909.78" y1="14.6353" x2="928.988" y2="134.169" gradientUnits="userSpaceOnUse">
<stop stop-color="white"/>
<stop offset="1" stop-color="white" stop-opacity="0"/>
</linearGradient>
<linearGradient id="paint3_linear_1035_2580" x1="448" y1="132" x2="273.5" y2="487.5" gradientUnits="userSpaceOnUse">
<stop stop-color="white"/>
<stop offset="1" stop-color="white" stop-opacity="0"/>
</linearGradient>
<linearGradient id="paint4_linear_1035_2580" x1="225.675" y1="47.6763" x2="203.21" y2="173.589" gradientUnits="userSpaceOnUse">
<stop stop-color="white"/>
<stop offset="1" stop-color="white" stop-opacity="0"/>
</linearGradient>
<clipPath id="clip0_1035_2580">
<rect width="1184" height="519" fill="white"/>
</clipPath>
<clipPath id="clip1_1035_2580">
<rect width="1440" height="560" fill="white" transform="translate(-128 -15)"/>
</clipPath>
</defs>
</svg>
