<svg width="11" height="11" viewBox="0 0 11 11" fill="none" xmlns="http://www.w3.org/2000/svg">
<path d="M10.2861 7.75928C10.2861 7.96663 10.2163 8.14014 10.0767 8.27979C9.93701 8.41943 9.77409 8.48926 9.58789 8.48926C9.39746 8.48926 9.23665 8.41943 9.10547 8.27979C8.97428 8.1359 8.90869 7.96875 8.90869 7.77832V5.4043L9.01025 2.78906L7.98193 3.94434L1.93262 9.99365C1.78451 10.1375 1.61735 10.2095 1.43115 10.2095C1.3042 10.2095 1.18571 10.1756 1.07568 10.1079C0.969889 10.0444 0.883138 9.95768 0.81543 9.84766C0.747721 9.73763 0.713867 9.62126 0.713867 9.49854C0.713867 9.31657 0.790039 9.14941 0.942383 8.99707L6.979 2.94141L8.13428 1.92578L5.40479 2.021H3.14502C2.95459 2.021 2.78955 1.9554 2.6499 1.82422C2.51025 1.6888 2.44043 1.52799 2.44043 1.3418C2.44043 1.1556 2.50814 0.992676 2.64355 0.853027C2.77897 0.713379 2.95247 0.643555 3.16406 0.643555H9.53711C9.76562 0.643555 9.94548 0.713379 10.0767 0.853027C10.2121 0.988444 10.2798 1.16618 10.2798 1.38623L10.2861 7.75928Z" fill="white"/>
</svg>
