<svg width="32" height="28" viewBox="0 0 32 28" fill="none" xmlns="http://www.w3.org/2000/svg">
<path d="M17.3535 20.8008C16.515 20.8008 15.7493 20.6686 15.0566 20.4043C14.3639 20.1309 13.7943 19.7663 13.3477 19.3105C12.901 18.8457 12.6185 18.3171 12.5 17.7246C12.4271 17.3965 12.4499 17.1185 12.5684 16.8906C12.696 16.6628 12.901 16.5488 13.1836 16.5488C13.3477 16.5488 13.4935 16.5944 13.6211 16.6855C13.7578 16.7767 13.8626 16.9271 13.9355 17.1367C14.1634 17.8568 14.569 18.4128 15.1523 18.8047C15.7448 19.1875 16.4785 19.3789 17.3535 19.3789C18.3105 19.3789 19.0853 19.1784 19.6777 18.7773C20.2793 18.3672 20.5801 17.8294 20.5801 17.1641C20.5801 16.599 20.3932 16.1523 20.0195 15.8242C19.6458 15.4961 19.0215 15.2318 18.1465 15.0312L16.3008 14.5938C15.0612 14.3112 14.1406 13.8919 13.5391 13.3359C12.9466 12.7799 12.6504 12.0553 12.6504 11.1621C12.6504 10.4512 12.8464 9.82227 13.2383 9.27539C13.6393 8.7194 14.1816 8.28646 14.8652 7.97656C15.5579 7.65755 16.3464 7.49805 17.2305 7.49805C18.0599 7.49805 18.7891 7.63932 19.418 7.92188C20.056 8.20443 20.5755 8.58268 20.9766 9.05664C21.3867 9.52148 21.6602 10.0319 21.7969 10.5879C21.888 10.9342 21.8698 11.2259 21.7422 11.4629C21.6237 11.6999 21.4186 11.8184 21.127 11.8184C20.9629 11.8184 20.8125 11.7728 20.6758 11.6816C20.5482 11.5814 20.4434 11.4355 20.3613 11.2441C20.1517 10.4785 19.7826 9.89974 19.2539 9.50781C18.7253 9.11589 18.0508 8.91992 17.2305 8.91992C16.3646 8.91992 15.6582 9.125 15.1113 9.53516C14.5645 9.94531 14.291 10.4694 14.291 11.1074C14.291 11.6178 14.4824 12.0326 14.8652 12.3516C15.2572 12.6615 15.8906 12.9258 16.7656 13.1445L18.5977 13.5957C19.8828 13.9056 20.8079 14.3294 21.373 14.8672C21.9382 15.3958 22.2207 16.125 22.2207 17.0547C22.2207 17.7839 22.0111 18.431 21.5918 18.9961C21.1725 19.5612 20.5938 20.0033 19.8555 20.3223C19.1263 20.6413 18.2923 20.8008 17.3535 20.8008ZM16.6562 22.3594V5.91211C16.6562 5.72982 16.7201 5.57487 16.8477 5.44727C16.9844 5.31055 17.1393 5.24219 17.3125 5.24219C17.4948 5.24219 17.6497 5.31055 17.7773 5.44727C17.9141 5.57487 17.9824 5.72982 17.9824 5.91211V22.3594C17.9824 22.5417 17.9141 22.7012 17.7773 22.8379C17.6497 22.9655 17.4948 23.0293 17.3125 23.0293C17.1393 23.0293 16.9844 22.9655 16.8477 22.8379C16.7201 22.7012 16.6562 22.5417 16.6562 22.3594ZM17.2988 27.8418C15.7402 27.8418 14.2546 27.582 12.8418 27.0625C11.429 26.543 10.1393 25.8229 8.97266 24.9023C7.80599 23.9818 6.79883 22.9154 5.95117 21.7031C5.76888 21.4753 5.70052 21.2383 5.74609 20.9922C5.80078 20.7461 5.93294 20.5592 6.14258 20.4316C6.36133 20.304 6.58464 20.2721 6.8125 20.3359C7.04036 20.3906 7.23177 20.5273 7.38672 20.7461C8.09766 21.8034 8.95898 22.7331 9.9707 23.5352C10.9915 24.3372 12.1217 24.957 13.3613 25.3945C14.6009 25.8411 15.9134 26.069 17.2988 26.0781C18.9577 26.0781 20.5072 25.7682 21.9473 25.1484C23.3965 24.5378 24.6634 23.6855 25.748 22.5918C26.8418 21.498 27.6986 20.2266 28.3184 18.7773C28.9382 17.3281 29.248 15.7786 29.248 14.1289C29.248 12.4792 28.9382 10.9342 28.3184 9.49414C27.6986 8.04492 26.8418 6.77344 25.748 5.67969C24.6634 4.58594 23.3965 3.73372 21.9473 3.12305C20.5072 2.50326 18.9577 2.19336 17.2988 2.19336C15.6491 2.19336 14.0996 2.50326 12.6504 3.12305C11.2103 3.73372 9.94336 4.58594 8.84961 5.67969C7.75586 6.76432 6.89909 8.03125 6.2793 9.48047C5.66862 10.9206 5.36328 12.4655 5.36328 14.1152H3.59961C3.59961 12.2376 3.95508 10.474 4.66602 8.82422C5.38607 7.16536 6.375 5.70703 7.63281 4.44922C8.89974 3.19141 10.3581 2.20703 12.0078 1.49609C13.6667 0.776042 15.4303 0.416016 17.2988 0.416016C19.1764 0.416016 20.9401 0.776042 22.5898 1.49609C24.2487 2.20703 25.707 3.19596 26.9648 4.46289C28.2318 5.7207 29.2207 7.17904 29.9316 8.83789C30.6517 10.4876 31.0117 12.2513 31.0117 14.1289C31.0117 16.0065 30.6517 17.7747 29.9316 19.4336C29.2207 21.0833 28.2318 22.5417 26.9648 23.8086C25.707 25.0664 24.2487 26.0508 22.5898 26.7617C20.9401 27.4818 19.1764 27.8418 17.2988 27.8418ZM1.76758 11.6133H7.87891C8.14323 11.6133 8.34375 11.668 8.48047 11.7773C8.61719 11.8867 8.68099 12.0326 8.67188 12.2148C8.67188 12.388 8.59896 12.584 8.45312 12.8027L5.47266 17.0547C5.28125 17.319 5.0625 17.4557 4.81641 17.4648C4.57943 17.4648 4.36979 17.3281 4.1875 17.0547L1.20703 12.8027C1.05208 12.5931 0.970052 12.3971 0.960938 12.2148C0.960938 12.0326 1.0293 11.8867 1.16602 11.7773C1.30273 11.668 1.50326 11.6133 1.76758 11.6133Z" fill="white"/>
</svg>
