<svg width="34" height="24" viewBox="0 0 34 24" fill="none" xmlns="http://www.w3.org/2000/svg">
<path d="M26.6797 23.6836L8.09961 23.6699C6.97852 23.6699 5.93945 23.4831 4.98242 23.1094C4.02539 22.7448 3.19141 22.2389 2.48047 21.5918C1.76953 20.9447 1.21354 20.1927 0.8125 19.3359C0.420573 18.4792 0.224609 17.5632 0.224609 16.5879C0.224609 15.5033 0.42513 14.5098 0.826172 13.6074C1.23633 12.7051 1.8151 11.9668 2.5625 11.3926C3.3099 10.8092 4.1849 10.4538 5.1875 10.3262C5.1875 9.38737 5.39258 8.53971 5.80273 7.7832C6.21289 7.02669 6.75521 6.40234 7.42969 5.91016C8.10417 5.41797 8.84701 5.09896 9.6582 4.95312C10.4785 4.80729 11.2943 4.87109 12.1055 5.14453C12.6159 4.32422 13.2402 3.57682 13.9785 2.90234C14.7259 2.22786 15.5918 1.6901 16.5762 1.28906C17.5697 0.878906 18.6862 0.673828 19.9258 0.673828C21.293 0.673828 22.5599 0.929036 23.7266 1.43945C24.9023 1.94987 25.9277 2.66992 26.8027 3.59961C27.6777 4.5293 28.3522 5.62305 28.8262 6.88086C29.3001 8.13867 29.528 9.51042 29.5098 10.9961C30.4121 11.3333 31.1777 11.8164 31.8066 12.4453C32.4447 13.0742 32.9323 13.7988 33.2695 14.6191C33.6068 15.4395 33.7754 16.3145 33.7754 17.2441C33.7754 18.1374 33.5931 18.9759 33.2285 19.7598C32.8639 20.5436 32.3581 21.2272 31.7109 21.8105C31.0729 22.3939 30.321 22.8496 29.4551 23.1777C28.5983 23.515 27.6732 23.6836 26.6797 23.6836ZM26.666 22.002C27.6868 22.002 28.6074 21.7923 29.4277 21.373C30.248 20.9538 30.8952 20.3841 31.3691 19.6641C31.8431 18.944 32.0801 18.1374 32.0801 17.2441C32.0801 15.9954 31.7155 14.9245 30.9863 14.0312C30.2572 13.138 29.2728 12.541 28.0332 12.2402C27.8874 12.2129 27.8236 12.1172 27.8418 11.9531C27.8509 11.6615 27.8646 11.3607 27.8828 11.0508C27.901 10.7318 27.901 10.431 27.8828 10.1484C27.7917 8.72656 27.3952 7.42773 26.6934 6.25195C26.0007 5.06706 25.071 4.1237 23.9043 3.42188C22.7467 2.71094 21.4206 2.35547 19.9258 2.35547C18.7318 2.35547 17.6973 2.55599 16.8223 2.95703C15.9473 3.35807 15.1953 3.89583 14.5664 4.57031C13.9375 5.23568 13.3997 5.96484 12.9531 6.75781C12.8802 6.88542 12.7708 6.92643 12.625 6.88086C11.9141 6.62565 11.2077 6.52995 10.5059 6.59375C9.80404 6.64844 9.16602 6.86719 8.5918 7.25C8.01758 7.6237 7.55729 8.1569 7.21094 8.84961C6.8737 9.54232 6.70508 10.39 6.70508 11.3926C6.70508 11.5658 6.6276 11.6523 6.47266 11.6523C5.50651 11.6523 4.68164 11.8711 3.99805 12.3086C3.32357 12.7461 2.80404 13.3385 2.43945 14.0859C2.08398 14.8333 1.90625 15.6673 1.90625 16.5879C1.90625 17.5723 2.17513 18.4746 2.71289 19.2949C3.25065 20.1152 3.98438 20.7715 4.91406 21.2637C5.85286 21.7467 6.91471 21.9883 8.09961 21.9883L26.666 22.002ZM24.2324 13.7988C24.2324 14.528 24.0547 15.1934 23.6992 15.7949C23.3438 16.3965 22.8652 16.875 22.2637 17.2305C21.6621 17.5859 20.9922 17.7637 20.2539 17.7637C19.3971 17.7637 18.627 17.4993 17.9434 16.9707C17.2598 16.4421 16.722 15.6855 16.3301 14.7012L14.5801 16.4238C14.5163 16.4876 14.4479 16.5241 14.375 16.5332C14.3112 16.5332 14.252 16.5059 14.1973 16.4512L12.4746 14.7148L11.2031 15.9863C11.1484 16.0501 11.0846 16.082 11.0117 16.082C10.9388 16.082 10.8704 16.0501 10.8066 15.9863L8.83789 13.9902C8.7832 13.9264 8.75586 13.8581 8.75586 13.7852C8.75586 13.7122 8.7832 13.6484 8.83789 13.5938L9.87695 12.5547C9.99544 12.4453 10.123 12.3906 10.2598 12.3906H16.5215C16.804 11.6068 17.2871 10.9824 17.9707 10.5176C18.6543 10.0436 19.4154 9.80664 20.2539 9.80664C20.9922 9.80664 21.6621 9.98893 22.2637 10.3535C22.8652 10.709 23.3438 11.1875 23.6992 11.7891C24.0547 12.3906 24.2324 13.0605 24.2324 13.7988ZM22.3047 13.7852C22.3047 13.4479 22.1816 13.1608 21.9355 12.9238C21.6986 12.6868 21.416 12.5684 21.0879 12.5684C20.7415 12.5684 20.4499 12.6914 20.2129 12.9375C19.9759 13.1745 19.8574 13.457 19.8574 13.7852C19.8574 14.1224 19.9759 14.4095 20.2129 14.6465C20.4499 14.8835 20.7415 15.002 21.0879 15.002C21.416 15.002 21.6986 14.8835 21.9355 14.6465C22.1816 14.4095 22.3047 14.1224 22.3047 13.7852Z" fill="white"/>
</svg>
