<svg width="31" height="29" viewBox="0 0 31 29" fill="none" xmlns="http://www.w3.org/2000/svg">
<path d="M6.66016 23.7656H15.8066C15.8796 24.0573 15.9753 24.3444 16.0938 24.627C16.2122 24.9095 16.3444 25.1784 16.4902 25.4336H7.0293C5.78971 25.4336 4.71875 25.3379 3.81641 25.1465C2.92318 24.9551 2.15755 24.5404 1.51953 23.9023C0.890625 23.2734 0.480469 22.5124 0.289062 21.6191C0.0976562 20.7259 0.00195312 19.6595 0.00195312 18.4199V7.81055C0.00195312 6.60742 0.0976562 5.5638 0.289062 4.67969C0.489583 3.79557 0.904297 3.03906 1.5332 2.41016C2.16211 1.77214 2.92318 1.35742 3.81641 1.16602C4.70964 0.965495 5.75326 0.865234 6.94727 0.865234H17.625C18.8646 0.865234 19.931 0.965495 20.8242 1.16602C21.7266 1.35742 22.4967 1.77214 23.1348 2.41016C23.7637 3.02995 24.1738 3.78646 24.3652 4.67969C24.5566 5.57292 24.6523 6.64388 24.6523 7.89258V13.0605C24.5065 13.0423 24.3652 13.0332 24.2285 13.0332C24.0918 13.0241 23.9505 13.0195 23.8047 13.0195C23.668 13.0195 23.5267 13.0241 23.3809 13.0332C23.2441 13.0332 23.1074 13.0423 22.9707 13.0605V7.52344C22.9707 6.71224 22.8932 5.9694 22.7383 5.29492C22.5924 4.61133 22.3099 4.0599 21.8906 3.64062C21.4714 3.22135 20.9154 2.93424 20.2227 2.7793C19.5391 2.62435 18.7962 2.54688 17.9941 2.54688H6.75586C5.9082 2.54688 5.13346 2.62435 4.43164 2.7793C3.72982 2.92513 3.16927 3.20768 2.75 3.62695C2.33984 4.04622 2.05729 4.60677 1.90234 5.30859C1.75651 6.0013 1.68359 6.76693 1.68359 7.60547V18.7754C1.68359 19.5957 1.75651 20.3431 1.90234 21.0176C2.05729 21.6921 2.3444 22.2435 2.76367 22.6719C3.18294 23.082 3.73438 23.3646 4.41797 23.5195C5.11068 23.6836 5.85807 23.7656 6.66016 23.7656ZM23.8184 28.1816C22.8887 28.1816 22.0137 28.0039 21.1934 27.6484C20.373 27.3021 19.6484 26.8145 19.0195 26.1855C18.3997 25.5658 17.9121 24.8411 17.5566 24.0117C17.2012 23.1914 17.0234 22.3164 17.0234 21.3867C17.0234 20.457 17.2012 19.582 17.5566 18.7617C17.9121 17.9414 18.3997 17.2168 19.0195 16.5879C19.6484 15.959 20.373 15.4714 21.1934 15.125C22.0137 14.7695 22.8887 14.5918 23.8184 14.5918C24.7572 14.5918 25.6367 14.7695 26.457 15.125C27.2773 15.4714 27.9974 15.959 28.6172 16.5879C29.2461 17.2077 29.7337 17.9277 30.0801 18.748C30.4355 19.5684 30.6133 20.4479 30.6133 21.3867C30.6133 22.3164 30.4355 23.1914 30.0801 24.0117C29.7246 24.832 29.2324 25.5521 28.6035 26.1719C27.9746 26.8008 27.25 27.293 26.4297 27.6484C25.6094 28.0039 24.7389 28.1816 23.8184 28.1816ZM22.9844 24.9688C23.2487 24.9688 23.4538 24.873 23.5996 24.6816L27.4688 19.3086C27.5234 19.2357 27.5645 19.1582 27.5918 19.0762C27.6283 18.9941 27.6465 18.9212 27.6465 18.8574C27.6465 18.6387 27.569 18.4609 27.4141 18.3242C27.2682 18.1875 27.0996 18.1191 26.9082 18.1191C26.6439 18.1191 26.4342 18.2285 26.2793 18.4473L22.9434 23.0547L21.2344 21.209C21.1706 21.1452 21.0885 21.0859 20.9883 21.0312C20.8971 20.9766 20.7878 20.9492 20.6602 20.9492C20.4505 20.9492 20.2728 21.0176 20.127 21.1543C19.9902 21.291 19.9219 21.4688 19.9219 21.6875C19.9219 21.7695 19.9355 21.8607 19.9629 21.9609C19.9993 22.0612 20.0495 22.1478 20.1133 22.2207L22.3828 24.709C22.4557 24.791 22.5469 24.8548 22.6562 24.9004C22.7656 24.946 22.875 24.9688 22.9844 24.9688Z" fill="white"/>
</svg>
