<svg width="16" height="16" viewBox="0 0 16 16" fill="none" xmlns="http://www.w3.org/2000/svg">
<path d="M6.18066 15.4941C5.75879 15.4941 5.39844 15.3066 5.09961 14.9316L0.546875 9.23633C0.435547 9.10156 0.353516 8.96973 0.300781 8.84082C0.253906 8.71191 0.230469 8.58008 0.230469 8.44531C0.230469 8.14062 0.330078 7.88867 0.529297 7.68945C0.734375 7.49023 0.992188 7.39062 1.30273 7.39062C1.66016 7.39062 1.96191 7.55176 2.20801 7.87402L6.14551 12.9277L13.7744 0.807617C13.9092 0.602539 14.0469 0.458984 14.1875 0.376953C14.3281 0.289062 14.5098 0.245117 14.7324 0.245117C15.0371 0.245117 15.2861 0.341797 15.4795 0.535156C15.6729 0.722656 15.7695 0.96875 15.7695 1.27344C15.7695 1.39648 15.749 1.52246 15.708 1.65137C15.667 1.77441 15.6025 1.90625 15.5146 2.04688L7.25293 14.9229C6.99512 15.3037 6.6377 15.4941 6.18066 15.4941Z" fill="white"/>
</svg>
