<svg width="27" height="28" viewBox="0 0 27 28" fill="none" xmlns="http://www.w3.org/2000/svg">
<path d="M4.7168 27.2568C3.29102 27.2568 2.2168 26.8955 1.49414 26.1729C0.771484 25.46 0.410156 24.3955 0.410156 22.9795V5.02051C0.410156 3.60449 0.771484 2.54004 1.49414 1.82715C2.2168 1.10449 3.29102 0.743164 4.7168 0.743164H22.6025C24.0381 0.743164 25.1172 1.10449 25.8398 1.82715C26.5625 2.54004 26.9238 3.60449 26.9238 5.02051V22.9795C26.9238 24.3857 26.5625 25.4502 25.8398 26.1729C25.1172 26.8955 24.0381 27.2568 22.6025 27.2568H4.7168ZM4.76074 25.4551H22.5732C23.3838 25.4551 24.0088 25.2402 24.4482 24.8105C24.8975 24.3809 25.1221 23.7412 25.1221 22.8916V5.1084C25.1221 4.25879 24.8975 3.61914 24.4482 3.18945C24.0088 2.75977 23.3838 2.54492 22.5732 2.54492H4.76074C3.93066 2.54492 3.2959 2.75977 2.85645 3.18945C2.42676 3.61914 2.21191 4.25879 2.21191 5.1084V22.8916C2.21191 23.7412 2.42676 24.3809 2.85645 24.8105C3.2959 25.2402 3.93066 25.4551 4.76074 25.4551ZM8.64258 6.9834C8.80859 6.81738 8.99414 6.74414 9.19922 6.76367C9.4043 6.77344 9.58008 6.84668 9.72656 6.9834L13.5498 10.8506C13.7061 10.9971 13.7842 11.1826 13.7842 11.4072C13.7842 11.6221 13.7109 11.8027 13.5645 11.9492C13.4277 12.0859 13.2568 12.1543 13.0518 12.1543C12.8467 12.1543 12.666 12.0762 12.5098 11.9199L10.7666 10.1328L9.90234 9.22461L9.93164 10.1621V20.46C9.93164 20.665 9.8584 20.8408 9.71191 20.9873C9.5752 21.124 9.39941 21.1924 9.18457 21.1924C8.96973 21.1924 8.78906 21.124 8.64258 20.9873C8.49609 20.8408 8.42285 20.665 8.42285 20.46V10.1768L8.4668 9.22461L7.58789 10.1328L5.85938 11.9053C5.69336 12.0713 5.50781 12.1543 5.30273 12.1543C5.09766 12.1543 4.92188 12.0859 4.77539 11.9492C4.63867 11.8027 4.57031 11.6221 4.57031 11.4072C4.57031 11.2119 4.64844 11.0264 4.80469 10.8506L8.64258 6.9834ZM18.7354 20.9727C18.5693 21.1289 18.374 21.2021 18.1494 21.1924C17.9346 21.1826 17.7588 21.1094 17.6221 20.9727L13.7842 17.1055C13.6377 16.9395 13.5645 16.7539 13.5645 16.5488C13.5645 16.3242 13.6279 16.1484 13.7549 16.0215C13.8916 15.8848 14.0723 15.8164 14.2969 15.8164C14.5117 15.8164 14.6924 15.8896 14.8389 16.0361L16.582 17.8086L17.4609 18.7168L17.417 17.7939V7.49609C17.417 7.29102 17.4854 7.11523 17.6221 6.96875C17.7686 6.82227 17.9492 6.74902 18.1641 6.74902C18.3789 6.74902 18.5596 6.82227 18.7061 6.96875C18.8525 7.10547 18.9258 7.28125 18.9258 7.49609V17.7939L18.8965 18.7168L19.7607 17.8086L21.5039 16.0361C21.6504 15.8896 21.8311 15.8164 22.0459 15.8164C22.2607 15.8164 22.4365 15.8848 22.5732 16.0215C22.7197 16.1582 22.793 16.334 22.793 16.5488C22.793 16.7539 22.71 16.9395 22.5439 17.1055L18.7354 20.9727Z" fill="white"/>
</svg>
