<svg width="23" height="22" viewBox="0 0 23 22" fill="none" xmlns="http://www.w3.org/2000/svg">
<path fill-rule="evenodd" clip-rule="evenodd" d="M15.6295 1.89716C15.8723 1.47664 16.4003 1.32287 16.8295 1.53624L16.8805 1.56361C17.319 1.81674 17.4677 2.37995 17.2172 2.81383L15.3816 5.9932C15.1388 6.41372 14.6108 6.56749 14.1815 6.35412L14.1305 6.32675C13.6921 6.07362 13.5434 5.51041 13.7939 5.07653L15.6295 1.89716Z" fill="white" fill-opacity="0.75"/>
<path fill-rule="evenodd" clip-rule="evenodd" d="M10.4688 0.914387C10.4688 0.427421 10.8513 0.0293638 11.3317 0.00155223L11.3854 0C11.8917 0 12.3021 0.413394 12.3021 0.914387V4.58561C12.3021 5.07258 11.9195 5.47064 11.4392 5.49845L11.3854 5.5C10.8792 5.5 10.4688 5.08661 10.4688 4.58561V0.914387Z" fill="white" fill-opacity="0.7"/>
<path fill-rule="evenodd" clip-rule="evenodd" d="M19.6994 5.21049C20.1199 4.9677 20.654 5.09854 20.9191 5.49794L20.9496 5.54715C21.2027 5.98559 21.0499 6.54771 20.616 6.7982L17.4366 8.63382C17.0161 8.87661 16.482 8.74576 16.2169 8.34636L16.1864 8.29715C15.9333 7.85872 16.0861 7.2966 16.52 7.0461L19.6994 5.21049Z" fill="white" fill-opacity="0.2"/>
<path fill-rule="evenodd" clip-rule="evenodd" d="M21.4189 10.1357C21.9058 10.1357 22.3039 10.5183 22.3317 10.9986L22.3333 11.0524C22.3333 11.5586 21.9199 11.969 21.4189 11.969H17.7476C17.2607 11.969 16.8626 11.5865 16.8348 11.1061L16.8333 11.0524C16.8333 10.5461 17.2466 10.1357 17.7476 10.1357H21.4189Z" fill="white" fill-opacity="0.25"/>
<path fill-rule="evenodd" clip-rule="evenodd" d="M20.6158 15.2966C21.0363 15.5394 21.1901 16.0674 20.9767 16.4966L20.9494 16.5476C20.6962 16.986 20.133 17.1348 19.6992 16.8843L16.5198 15.0487C16.0993 14.8059 15.9455 14.2779 16.1589 13.8486L16.1862 13.7976C16.4394 13.3592 17.0026 13.2105 17.4364 13.461L20.6158 15.2966Z" fill="white" fill-opacity="0.3"/>
<path fill-rule="evenodd" clip-rule="evenodd" d="M17.2174 19.3662C17.4602 19.7867 17.3293 20.3208 16.9299 20.5859L16.8807 20.6164C16.4423 20.8695 15.8802 20.7167 15.6297 20.2828L13.7941 17.1035C13.5513 16.6829 13.6821 16.1488 14.0815 15.8837L14.1307 15.8532C14.5692 15.6001 15.1313 15.7529 15.3818 16.1868L17.2174 19.3662Z" fill="white" fill-opacity="0.35"/>
<path fill-rule="evenodd" clip-rule="evenodd" d="M12.3021 21.0856C12.3021 21.5726 11.9195 21.9706 11.4392 21.9984L11.3854 22C10.8792 22 10.4688 21.5866 10.4688 21.0856V17.4144C10.4688 16.9274 10.8513 16.5294 11.3317 16.5016L11.3854 16.5C11.8917 16.5 12.3021 16.9134 12.3021 17.4144V21.0856Z" fill="white" fill-opacity="0.4"/>
<path fill-rule="evenodd" clip-rule="evenodd" d="M7.13158 20.2829C6.88879 20.7034 6.36077 20.8572 5.93154 20.6438L5.88053 20.6164C5.4421 20.3633 5.29337 19.8001 5.54387 19.3662L7.37948 16.1868C7.62227 15.7663 8.15029 15.6125 8.57952 15.8259L8.63053 15.8533C9.06896 16.1064 9.21769 16.6696 8.96719 17.1035L7.13158 20.2829Z" fill="white" fill-opacity="0.45"/>
<path fill-rule="evenodd" clip-rule="evenodd" d="M3.14734 16.8838C2.72682 17.1266 2.19266 16.9958 1.92762 16.5964L1.89713 16.5471C1.644 16.1087 1.7968 15.5466 2.23068 15.2961L5.41005 13.4605C5.83058 13.2177 6.36474 13.3485 6.62978 13.7479L6.66027 13.7972C6.9134 14.2356 6.76059 14.7977 6.32672 15.0482L3.14734 16.8838Z" fill="white" fill-opacity="0.5"/>
<path fill-rule="evenodd" clip-rule="evenodd" d="M1.24764 11.969C0.760673 11.969 0.362616 11.5865 0.334804 11.1061L0.333252 11.0524C0.333252 10.5461 0.746646 10.1357 1.24764 10.1357H4.91887C5.40583 10.1357 5.80389 10.5183 5.8317 10.9986L5.83325 11.0524C5.83325 11.5586 5.41986 11.969 4.91887 11.969H1.24764Z" fill="white" fill-opacity="0.55"/>
<path fill-rule="evenodd" clip-rule="evenodd" d="M2.23023 6.79866C1.80971 6.55587 1.65594 6.02785 1.86931 5.59862L1.89668 5.54761C2.14981 5.10918 2.71302 4.96045 3.1469 5.21095L6.32627 7.04656C6.74679 7.28935 6.90056 7.81737 6.68719 8.2466L6.65982 8.29761C6.40669 8.73605 5.84348 8.88477 5.4096 8.63428L2.23023 6.79866Z" fill="white" fill-opacity="0.6"/>
<path fill-rule="evenodd" clip-rule="evenodd" d="M5.54408 2.81354C5.30129 2.39302 5.43213 1.85886 5.83153 1.59382L5.88074 1.56333C6.31917 1.3102 6.88129 1.463 7.13179 1.89688L8.9674 5.07625C9.21019 5.49677 9.07935 6.03094 8.67995 6.29598L8.63074 6.32647C8.1923 6.5796 7.63018 6.42679 7.37969 5.99292L5.54408 2.81354Z" fill="white" fill-opacity="0.65"/>
</svg>
