<svg width="28" height="32" viewBox="0 0 28 32" fill="none" xmlns="http://www.w3.org/2000/svg">
<path d="M3.31055 11.3533H24.6895C25.6712 11.3533 26.4456 11.074 27.0127 10.5154C27.5882 9.95679 27.876 9.19084 27.876 8.21753V3.9519C27.876 2.9786 27.5882 2.21265 27.0127 1.65405C26.4456 1.09546 25.6712 0.816162 24.6895 0.816162H3.31055C2.32878 0.816162 1.55013 1.09546 0.974609 1.65405C0.407552 2.21265 0.124023 2.9786 0.124023 3.9519V8.21753C0.124023 9.19084 0.407552 9.95679 0.974609 10.5154C1.55013 11.074 2.32878 11.3533 3.31055 11.3533ZM3.52637 9.00464C3.19629 9.00464 2.93815 8.91154 2.75195 8.72534C2.56576 8.53068 2.47266 8.26408 2.47266 7.92554V4.2312C2.47266 3.90112 2.56576 3.64299 2.75195 3.45679C2.93815 3.26213 3.19629 3.16479 3.52637 3.16479H24.4609C24.7995 3.16479 25.0618 3.26213 25.248 3.45679C25.4342 3.64299 25.5273 3.90112 25.5273 4.2312V7.92554C25.5273 8.26408 25.4342 8.53068 25.248 8.72534C25.0618 8.91154 24.7995 9.00464 24.4609 9.00464H3.52637ZM12.8955 14.489H15.1172V10.1091H12.8955V14.489ZM3.31055 23.655H24.6895C25.6712 23.655 26.4456 23.3757 27.0127 22.8171C27.5882 22.2585 27.876 21.4926 27.876 20.5193V16.2537C27.876 15.2804 27.5882 14.5144 27.0127 13.9558C26.4456 13.3888 25.6712 13.1052 24.6895 13.1052H3.31055C2.32878 13.1052 1.55013 13.3888 0.974609 13.9558C0.407552 14.5144 0.124023 15.2804 0.124023 16.2537V20.5193C0.124023 21.4926 0.407552 22.2585 0.974609 22.8171C1.55013 23.3757 2.32878 23.655 3.31055 23.655ZM12.8828 26.4861H15.1172V22.03H12.8828V26.4861ZM13.2891 30.8152C13.4922 31.0691 13.7376 31.1918 14.0254 31.1833C14.3216 31.1833 14.5671 31.0606 14.7617 30.8152L17.834 27.0701C18.1387 26.6892 18.2148 26.3041 18.0625 25.9148C17.9186 25.5339 17.597 25.3435 17.0977 25.3435H10.9404C10.4326 25.3435 10.1025 25.5339 9.9502 25.9148C9.79785 26.2957 9.87825 26.6807 10.1914 27.0701L13.2891 30.8152Z" fill="#4F66B3"/>
</svg>
