<svg width="24" height="24" viewBox="0 0 24 24" fill="none" xmlns="http://www.w3.org/2000/svg">
<path d="M0.252441 7.08398V1.63965C0.252441 1.37923 0.325684 1.17171 0.472168 1.01709C0.62679 0.854329 0.838379 0.772949 1.10693 0.772949H6.57568C6.84424 0.772949 7.04362 0.85026 7.17383 1.00488C7.31217 1.15951 7.37321 1.34668 7.35693 1.56641C7.3488 1.78613 7.25114 1.98958 7.06396 2.17676L1.65625 7.58447C1.48535 7.76351 1.29004 7.86117 1.07031 7.87744C0.850586 7.89372 0.659342 7.83675 0.496582 7.70654C0.333822 7.5682 0.252441 7.36068 0.252441 7.08398ZM3.06006 4.72803L4.23193 3.56836L20.2598 19.6206L19.0879 20.7803L3.06006 4.72803ZM23.0674 17.2769V22.7212C23.0674 22.9816 22.9901 23.1891 22.8354 23.3438C22.689 23.5065 22.4814 23.5879 22.2129 23.5879H16.7441C16.4756 23.5879 16.2721 23.5065 16.1338 23.3438C16.0036 23.1891 15.9466 23.002 15.9629 22.7822C15.9792 22.5625 16.0768 22.359 16.2559 22.1719L21.6636 16.7642C21.8426 16.5933 22.0379 16.4997 22.2495 16.4834C22.4692 16.4671 22.6605 16.5282 22.8232 16.6665C22.986 16.7967 23.0674 17.0002 23.0674 17.2769ZM23.0674 7.08398C23.0674 7.36068 22.986 7.5682 22.8232 7.70654C22.6605 7.83675 22.4692 7.89372 22.2495 7.87744C22.0379 7.86117 21.8426 7.76351 21.6636 7.58447L16.2559 2.17676C16.0768 1.98958 15.9792 1.78613 15.9629 1.56641C15.9466 1.34668 16.0036 1.15951 16.1338 1.00488C16.2721 0.85026 16.4756 0.772949 16.7441 0.772949H22.2129C22.4814 0.772949 22.689 0.854329 22.8354 1.01709C22.9901 1.17171 23.0674 1.37923 23.0674 1.63965V7.08398ZM4.21973 20.7681L3.06006 19.6084L19.1001 3.58057L20.272 4.74023L4.21973 20.7681ZM0.252441 17.2769C0.252441 17.0002 0.333822 16.7967 0.496582 16.6665C0.659342 16.5282 0.850586 16.4671 1.07031 16.4834C1.29004 16.4997 1.48535 16.5933 1.65625 16.7642L7.06396 22.1719C7.25114 22.359 7.3488 22.5625 7.35693 22.7822C7.37321 23.002 7.31217 23.1891 7.17383 23.3438C7.04362 23.5065 6.84424 23.5879 6.57568 23.5879H1.10693C0.838379 23.5879 0.62679 23.5065 0.472168 23.3438C0.325684 23.1891 0.252441 22.9816 0.252441 22.7212V17.2769Z" fill="white"/>
</svg>
