<svg width="38" height="26" viewBox="0 0 38 26" fill="none" xmlns="http://www.w3.org/2000/svg">
<path d="M3.33203 19.6289H11.5938C12.5078 19.6289 13.2266 19.3711 13.75 18.8555C14.2734 18.332 14.5352 17.6211 14.5352 16.7227V8.37891C14.5352 7.48047 14.2734 6.77344 13.75 6.25781C13.2266 5.73437 12.5078 5.47266 11.5938 5.47266H3.33203C2.42578 5.47266 1.70703 5.73437 1.17578 6.25781C0.652344 6.77344 0.390625 7.48047 0.390625 8.37891V16.7227C0.390625 17.6211 0.652344 18.332 1.17578 18.8555C1.70703 19.3711 2.42578 19.6289 3.33203 19.6289ZM19 25.0195C19.3125 25.0195 19.5664 24.9219 19.7617 24.7266C19.9648 24.5391 20.0664 24.293 20.0664 23.9883V1.11328C20.0664 0.816406 19.9648 0.574219 19.7617 0.386719C19.5664 0.191406 19.3125 0.09375 19 0.09375C18.6875 0.09375 18.4336 0.191406 18.2383 0.386719C18.043 0.574219 17.9453 0.816406 17.9453 1.11328V23.9883C17.9453 24.293 18.043 24.5391 18.2383 24.7266C18.4336 24.9219 18.6875 25.0195 19 25.0195ZM26.4062 19.6289H34.668C35.582 19.6289 36.3008 19.3711 36.8242 18.8555C37.3477 18.332 37.6094 17.6211 37.6094 16.7227V8.37891C37.6094 7.48047 37.3477 6.77344 36.8242 6.25781C36.3008 5.73437 35.582 5.47266 34.668 5.47266H26.4062C25.4922 5.47266 24.7734 5.73437 24.25 6.25781C23.7266 6.77344 23.4648 7.48047 23.4648 8.37891V16.7227C23.4648 17.6211 23.7266 18.332 24.25 18.8555C24.7734 19.3711 25.4922 19.6289 26.4062 19.6289ZM26.6055 17.4492C26.3008 17.4492 26.0625 17.3633 25.8906 17.1914C25.7188 17.0195 25.6328 16.7773 25.6328 16.4648V8.64844C25.6328 8.33594 25.7188 8.09375 25.8906 7.92188C26.0625 7.74219 26.3008 7.65234 26.6055 7.65234H34.4688C34.7734 7.65234 35.0117 7.74219 35.1836 7.92188C35.3555 8.09375 35.4414 8.33594 35.4414 8.64844V16.4648C35.4414 16.7773 35.3555 17.0195 35.1836 17.1914C35.0117 17.3633 34.7734 17.4492 34.4688 17.4492H26.6055Z" fill="#4F66B3"/>
</svg>
