<svg width="24" height="30" viewBox="0 0 24 30" fill="none" xmlns="http://www.w3.org/2000/svg">
<path d="M4.37109 9.09961C3.59635 9.09961 2.89453 8.91276 2.26562 8.53906C1.63672 8.15625 1.13542 7.65039 0.761719 7.02148C0.388021 6.39258 0.201172 5.69076 0.201172 4.91602C0.201172 4.15039 0.388021 3.45312 0.761719 2.82422C1.13542 2.19531 1.63672 1.69401 2.26562 1.32031C2.89453 0.946615 3.59635 0.759766 4.37109 0.759766C5.13672 0.759766 5.83398 0.946615 6.46289 1.32031C7.0918 1.69401 7.5931 2.19531 7.9668 2.82422C8.34049 3.45312 8.52734 4.15039 8.52734 4.91602C8.52734 5.69076 8.34049 6.39258 7.9668 7.02148C7.5931 7.65039 7.0918 8.15625 6.46289 8.53906C5.83398 8.91276 5.13672 9.09961 4.37109 9.09961ZM3.52344 9.70117V8.68945H5.20508V9.70117C5.20508 11.4603 6.37174 12.6771 8.70508 13.3516L15.8008 15.416C17.332 15.8535 18.4896 16.5189 19.2734 17.4121C20.0664 18.2962 20.4629 19.3763 20.4629 20.6523V21.6777H18.7812V20.6523C18.7812 18.9115 17.6191 17.6992 15.2949 17.0156L8.19922 14.9512C6.65885 14.5137 5.49219 13.8529 4.69922 12.9688C3.91536 12.0755 3.52344 10.9863 3.52344 9.70117ZM19.6289 21.2676C20.3945 21.2676 21.0918 21.4544 21.7207 21.8281C22.3496 22.2018 22.8509 22.7077 23.2246 23.3457C23.6074 23.9837 23.7988 24.6855 23.7988 25.4512C23.7988 26.2168 23.6074 26.9141 23.2246 27.543C22.8509 28.1719 22.3496 28.6686 21.7207 29.0332C21.0918 29.4069 20.3945 29.5938 19.6289 29.5938C18.8633 29.5938 18.1615 29.4069 17.5234 29.0332C16.8945 28.6686 16.3932 28.1719 16.0195 27.543C15.6458 26.9141 15.459 26.2168 15.459 25.4512C15.459 24.6855 15.6458 23.9837 16.0195 23.3457C16.3932 22.7077 16.8945 22.2018 17.5234 21.8281C18.1615 21.4544 18.8633 21.2676 19.6289 21.2676ZM19.6289 22.9219C18.918 22.9219 18.3164 23.168 17.8242 23.6602C17.3411 24.1432 17.0996 24.7402 17.0996 25.4512C17.0996 26.153 17.3411 26.7454 17.8242 27.2285C18.3164 27.7116 18.918 27.9531 19.6289 27.9531C20.3307 27.9531 20.9232 27.7116 21.4062 27.2285C21.8984 26.7454 22.1445 26.153 22.1445 25.4512C22.1445 24.7402 21.8984 24.1432 21.4062 23.6602C20.9232 23.168 20.3307 22.9219 19.6289 22.9219Z" fill="white"/>
</svg>
