<svg width="28" height="29" viewBox="0 0 28 29" fill="none" xmlns="http://www.w3.org/2000/svg">
<path d="M5.12305 28.1201H22.8623C24.4443 28.1201 25.6406 27.7148 26.4512 26.9043C27.2617 26.1035 27.667 24.9219 27.667 23.3594V5.53223C27.667 3.95996 27.2617 2.77344 26.4512 1.97266C25.6406 1.17187 24.4443 0.771484 22.8623 0.771484H5.12305C3.54102 0.771484 2.34473 1.17187 1.53418 1.97266C0.723633 2.77344 0.318359 3.95996 0.318359 5.53223V23.3594C0.318359 24.9219 0.723633 26.1035 1.53418 26.9043C2.34473 27.7148 3.54102 28.1201 5.12305 28.1201ZM7.45215 15.4346C7.45215 15.21 7.54004 15 7.71582 14.8047L15.9043 4.60938C16.1387 4.32617 16.3877 4.18945 16.6514 4.19922C16.9248 4.20898 17.1348 4.32129 17.2812 4.53613C17.4277 4.75098 17.4375 5.0293 17.3105 5.37109L14.6299 12.4756H19.6396C19.8447 12.4756 20.0205 12.5439 20.167 12.6807C20.3135 12.8174 20.3867 12.9932 20.3867 13.208C20.3867 13.4131 20.2988 13.6182 20.123 13.8232L11.9199 24.0186C11.7051 24.3018 11.4609 24.4385 11.1875 24.4287C10.9141 24.4189 10.6992 24.3066 10.543 24.0918C10.3965 23.877 10.3916 23.5986 10.5283 23.2568L13.1943 16.1377H8.19922C7.98438 16.1377 7.80371 16.0742 7.65723 15.9473C7.52051 15.8105 7.45215 15.6396 7.45215 15.4346Z" fill="#4F66B3"/>
</svg>
