<svg width="23" height="23" viewBox="0 0 23 23" fill="none" xmlns="http://www.w3.org/2000/svg">
<path d="M11.6904 15.0317C10.9824 15.0317 10.3354 14.8608 9.74951 14.519C9.17171 14.1772 8.70785 13.7174 8.35791 13.1396C8.01611 12.5537 7.84521 11.9027 7.84521 11.1865C7.84521 10.4948 8.01611 9.86003 8.35791 9.28223C8.70785 8.70443 9.17171 8.24463 9.74951 7.90283C10.3354 7.5529 10.9824 7.37793 11.6904 7.37793C12.3822 7.37793 13.0169 7.5529 13.5947 7.90283C14.1807 8.24463 14.6445 8.70443 14.9863 9.28223C15.3281 9.86003 15.499 10.4948 15.499 11.1865C15.499 11.9027 15.3281 12.5537 14.9863 13.1396C14.6445 13.7174 14.1807 14.1772 13.5947 14.519C13.0169 14.8608 12.3822 15.0317 11.6904 15.0317ZM6.50244 10.4541C6.47803 10.5762 6.45768 10.6982 6.44141 10.8203C6.42513 10.9424 6.41699 11.0645 6.41699 11.1865C6.41699 11.3249 6.42513 11.4591 6.44141 11.5894C6.45768 11.7114 6.47803 11.8335 6.50244 11.9556H1.3999V10.4541H6.50244ZM12.4229 6.04736C12.3008 6.02295 12.1787 6.00667 12.0566 5.99854C11.9346 5.98226 11.8125 5.97412 11.6904 5.97412C11.5521 5.97412 11.4178 5.98226 11.2876 5.99854C11.1655 6.00667 11.0394 6.02295 10.9092 6.04736V0.944824H12.4229V6.04736ZM21.9321 10.4541V11.9556H16.854C16.8784 11.8335 16.8947 11.7114 16.9028 11.5894C16.911 11.4591 16.915 11.3249 16.915 11.1865C16.915 11.0645 16.911 10.9424 16.9028 10.8203C16.8947 10.6982 16.8784 10.5762 16.854 10.4541H21.9321ZM10.9092 16.3745C11.0394 16.3989 11.1655 16.4193 11.2876 16.4355C11.4178 16.4437 11.5521 16.4478 11.6904 16.4478C11.8125 16.4478 11.9346 16.4437 12.0566 16.4355C12.1787 16.4193 12.3008 16.3989 12.4229 16.3745V21.4771H10.9092V16.3745ZM0.618652 21.4282V0.981445C0.618652 0.729167 0.691895 0.529785 0.838379 0.383301C0.993001 0.236816 1.19645 0.163574 1.44873 0.163574H21.8955C22.1478 0.163574 22.3472 0.236816 22.4937 0.383301C22.6401 0.529785 22.7134 0.729167 22.7134 0.981445V21.4282C22.7134 21.6805 22.6401 21.8799 22.4937 22.0264C22.3472 22.181 22.1478 22.2583 21.8955 22.2583H1.44873C1.19645 22.2583 0.993001 22.181 0.838379 22.0264C0.691895 21.8799 0.618652 21.6805 0.618652 21.4282ZM2.12012 20.4395C2.12012 20.651 2.22591 20.7568 2.4375 20.7568H20.8945C21.1061 20.7568 21.2119 20.651 21.2119 20.4395V1.97021C21.2119 1.76676 21.1061 1.66504 20.8945 1.66504H2.4375C2.22591 1.66504 2.12012 1.76676 2.12012 1.97021V20.4395Z" fill="white"/>
</svg>
