<svg width="28" height="24" viewBox="0 0 28 24" fill="none" xmlns="http://www.w3.org/2000/svg">
<path d="M4.38965 9.10449C5.18522 9.10449 5.90885 8.91406 6.56055 8.5332C7.21224 8.14388 7.73275 7.61914 8.12207 6.95898C8.51139 6.29883 8.70605 5.57096 8.70605 4.77539C8.70605 3.98828 8.51139 3.26888 8.12207 2.61719C7.73275 1.96549 7.21224 1.44499 6.56055 1.05566C5.90885 0.666341 5.18522 0.47168 4.38965 0.47168C3.59408 0.47168 2.87044 0.666341 2.21875 1.05566C1.56706 1.44499 1.04655 1.96549 0.657227 2.61719C0.267904 3.26888 0.0732422 3.98828 0.0732422 4.77539C0.0732422 5.57096 0.267904 6.29883 0.657227 6.95898C1.04655 7.61914 1.56706 8.14388 2.21875 8.5332C2.87044 8.91406 3.59408 9.10449 4.38965 9.10449ZM10.7881 5.98145C11.0843 5.98145 11.3424 5.87565 11.5625 5.66406C11.7826 5.44401 11.8926 5.18164 11.8926 4.87695C11.8926 4.58073 11.7826 4.32682 11.5625 4.11523C11.3424 3.89518 11.0843 3.78516 10.7881 3.78516C10.4919 3.78516 10.2337 3.89518 10.0137 4.11523C9.79362 4.32682 9.68359 4.58073 9.68359 4.87695C9.68359 5.18164 9.78939 5.44401 10.001 5.66406C10.221 5.87565 10.4834 5.98145 10.7881 5.98145ZM13.9746 5.98145C14.2793 5.98145 14.5374 5.87565 14.749 5.66406C14.9691 5.44401 15.0791 5.18164 15.0791 4.87695C15.0791 4.58073 14.9691 4.32682 14.749 4.11523C14.5374 3.89518 14.2793 3.78516 13.9746 3.78516C13.6784 3.78516 13.4202 3.89518 13.2002 4.11523C12.9886 4.32682 12.8828 4.58073 12.8828 4.87695C12.8828 5.18164 12.9886 5.44401 13.2002 5.66406C13.4202 5.87565 13.6784 5.98145 13.9746 5.98145ZM17.1992 5.98145C17.5039 5.98145 17.762 5.87565 17.9736 5.66406C18.1937 5.44401 18.3037 5.18164 18.3037 4.87695C18.3037 4.58073 18.1937 4.32682 17.9736 4.11523C17.7536 3.89518 17.4954 3.78516 17.1992 3.78516C16.8945 3.78516 16.6364 3.89518 16.4248 4.11523C16.2132 4.32682 16.1074 4.58073 16.1074 4.87695C16.1074 5.18164 16.2132 5.44401 16.4248 5.66406C16.6364 5.87565 16.8945 5.98145 17.1992 5.98145ZM23.5977 9.10449C24.3932 9.10449 25.1169 8.91406 25.7686 8.5332C26.4287 8.14388 26.9535 7.61914 27.3428 6.95898C27.7321 6.29883 27.9268 5.57096 27.9268 4.77539C27.9268 3.98828 27.7321 3.26888 27.3428 2.61719C26.9535 1.96549 26.4287 1.44499 25.7686 1.05566C25.1169 0.666341 24.3932 0.47168 23.5977 0.47168C22.8105 0.47168 22.0869 0.666341 21.4268 1.05566C20.7751 1.44499 20.2546 1.96549 19.8652 2.61719C19.4844 3.26888 19.2939 3.98828 19.2939 4.77539C19.2939 5.57096 19.4844 6.29883 19.8652 6.95898C20.2546 7.61914 20.7751 8.14388 21.4268 8.5332C22.0869 8.91406 22.8105 9.10449 23.5977 9.10449ZM20.2969 11.7451C20.6016 11.7451 20.8597 11.6351 21.0713 11.415C21.2913 11.195 21.4014 10.9368 21.4014 10.6406C21.4014 10.3359 21.2913 10.0778 21.0713 9.86621C20.8597 9.64616 20.6016 9.53613 20.2969 9.53613C20.0007 9.53613 19.7467 9.64616 19.5352 9.86621C19.3236 10.0778 19.2178 10.3359 19.2178 10.6406C19.2178 10.9368 19.3236 11.195 19.5352 11.415C19.7467 11.6351 20.0007 11.7451 20.2969 11.7451ZM17.8975 14.3857C18.2021 14.3857 18.4603 14.2757 18.6719 14.0557C18.8919 13.8356 19.002 13.5732 19.002 13.2686C19.002 12.9723 18.8919 12.7184 18.6719 12.5068C18.4603 12.2868 18.2021 12.1768 17.8975 12.1768C17.6097 12.1768 17.3558 12.2868 17.1357 12.5068C16.9157 12.7184 16.8057 12.9723 16.8057 13.2686C16.8057 13.5732 16.9115 13.8356 17.123 14.0557C17.3431 14.2757 17.6012 14.3857 17.8975 14.3857ZM14 23.2344C14.7956 23.2344 15.5192 23.0397 16.1709 22.6504C16.8226 22.2695 17.3431 21.749 17.7324 21.0889C18.1217 20.4287 18.3164 19.7051 18.3164 18.918C18.3164 18.1224 18.1217 17.3988 17.7324 16.7471C17.3431 16.0869 16.8226 15.5664 16.1709 15.1855C15.5192 14.7962 14.7956 14.6016 14 14.6016C13.2044 14.6016 12.4808 14.7962 11.8291 15.1855C11.1774 15.5664 10.6569 16.0869 10.2676 16.7471C9.87826 17.3988 9.68359 18.1224 9.68359 18.918C9.68359 19.7051 9.87826 20.4287 10.2676 21.0889C10.6569 21.749 11.1774 22.2695 11.8291 22.6504C12.4808 23.0397 13.2044 23.2344 14 23.2344ZM10.0771 14.3857C10.3818 14.3857 10.64 14.2757 10.8516 14.0557C11.0632 13.8356 11.1689 13.5732 11.1689 13.2686C11.1689 12.9723 11.0632 12.7184 10.8516 12.5068C10.64 12.2868 10.3818 12.1768 10.0771 12.1768C9.77246 12.1768 9.51009 12.2868 9.29004 12.5068C9.07845 12.7184 8.97266 12.9723 8.97266 13.2686C8.97266 13.5732 9.07845 13.8356 9.29004 14.0557C9.51009 14.2757 9.77246 14.3857 10.0771 14.3857ZM7.67773 11.7451C7.97396 11.7451 8.22786 11.6351 8.43945 11.415C8.65951 11.195 8.76953 10.9368 8.76953 10.6406C8.76953 10.3359 8.65951 10.0778 8.43945 9.86621C8.22786 9.64616 7.97396 9.53613 7.67773 9.53613C7.38151 9.53613 7.12337 9.64616 6.90332 9.86621C6.68327 10.0778 6.57324 10.3359 6.57324 10.6406C6.57324 10.9368 6.67904 11.195 6.89062 11.415C7.11068 11.6351 7.37305 11.7451 7.67773 11.7451Z" fill="#4F66B3"/>
</svg>
