<svg width="46" height="46" viewBox="0 0 46 46" fill="none" xmlns="http://www.w3.org/2000/svg">
<g filter="url(#filter0_f_1035_1562)">
<path d="M22.9982 33.181C24.3909 33.181 25.7023 32.9141 26.9323 32.3801C28.1623 31.8527 29.2427 31.1202 30.1733 30.1826C31.1105 29.245 31.8459 28.1642 32.3795 26.9401C32.9132 25.7095 33.18 24.3942 33.18 22.9943C33.18 21.6009 32.9132 20.2922 32.3795 19.0681C31.8459 17.8375 31.1105 16.7534 30.1733 15.8158C29.2427 14.8782 28.1591 14.1457 26.9226 13.6183C25.6925 13.0843 24.3812 12.8174 22.9885 12.8174C21.5957 12.8174 20.2844 13.0843 19.0544 13.6183C17.8243 14.1457 16.7407 14.8782 15.8036 15.8158C14.8729 16.7534 14.1408 17.8375 13.6071 19.0681C13.08 20.2922 12.8164 21.6009 12.8164 22.9943C12.8164 24.3942 13.08 25.7095 13.6071 26.9401C14.1408 28.1642 14.8762 29.245 15.8134 30.1826C16.7505 31.1202 17.8341 31.8527 19.0641 32.3801C20.2941 32.9141 21.6055 33.181 22.9982 33.181Z" fill="#008DE4"/>
</g>
<path d="M23.0007 35.7272C24.7416 35.7272 26.3808 35.3935 27.9183 34.7262C29.4559 34.0669 30.8063 33.1513 31.9696 31.9793C33.141 30.8073 34.0603 29.4562 34.7274 27.9261C35.3944 26.3878 35.728 24.7437 35.728 22.9939C35.728 21.2521 35.3944 19.6162 34.7274 18.0861C34.0603 16.5478 33.141 15.1927 31.9696 14.0207C30.8063 12.8487 29.4518 11.933 27.9061 11.2738C26.3686 10.6064 24.7294 10.2727 22.9885 10.2727C21.2476 10.2727 19.6084 10.6064 18.0709 11.2738C16.5334 11.933 15.1789 12.8487 14.0074 14.0207C12.8441 15.1927 11.9289 16.5478 11.2618 18.0861C10.6029 19.6162 10.2734 21.2521 10.2734 22.9939C10.2734 24.7437 10.6029 26.3878 11.2618 27.9261C11.9289 29.4562 12.8482 30.8073 14.0196 31.9793C15.1911 33.1513 16.5456 34.0669 18.0831 34.7262C19.6206 35.3935 21.2598 35.7272 23.0007 35.7272Z" fill="#008DE4" fill-opacity="0.2"/>
<path d="M21.6492 29.0509C21.397 29.0509 21.1692 28.998 20.9659 28.8922C20.7625 28.7782 20.5713 28.6073 20.3923 28.3794L17.4515 24.839C17.3376 24.6843 17.2482 24.5338 17.1831 24.3873C17.1261 24.2326 17.0977 24.0739 17.0977 23.9111C17.0977 23.5693 17.2156 23.2804 17.4515 23.0443C17.6874 22.8002 17.9762 22.6781 18.3179 22.6781C18.5213 22.6781 18.7043 22.7228 18.867 22.8124C19.0297 22.8938 19.1924 23.0362 19.3551 23.2397L21.6126 26.072L26.5302 18.2098C26.8231 17.7459 27.1851 17.5139 27.6163 17.5139C27.9417 17.5139 28.2305 17.6197 28.4826 17.8313C28.743 18.0429 28.8731 18.3197 28.8731 18.6615C28.8731 18.8161 28.8406 18.9708 28.7755 19.1254C28.7186 19.2801 28.6453 19.4266 28.5559 19.5649L22.8573 28.3794C22.7108 28.591 22.5319 28.7579 22.3204 28.88C22.117 28.9939 21.8933 29.0509 21.6492 29.0509Z" fill="white"/>
<defs>
<filter id="filter0_f_1035_1562" x="0.937619" y="0.938596" width="44.1209" height="44.1212" filterUnits="userSpaceOnUse" color-interpolation-filters="sRGB">
<feFlood flood-opacity="0" result="BackgroundImageFix"/>
<feBlend mode="normal" in="SourceGraphic" in2="BackgroundImageFix" result="shape"/>
<feGaussianBlur stdDeviation="5.93939" result="effect1_foregroundBlur_1035_1562"/>
</filter>
</defs>
</svg>
