<svg width="36" height="16" viewBox="0 0 36 16" fill="none" xmlns="http://www.w3.org/2000/svg">
<path d="M8.41602 15.8262C7.34961 15.8262 6.34701 15.6257 5.4082 15.2246C4.47852 14.8236 3.6582 14.2721 2.94727 13.5703C2.24544 12.8594 1.69401 12.0391 1.29297 11.1094C0.901042 10.1797 0.705078 9.1862 0.705078 8.12891C0.705078 7.07161 0.901042 6.08268 1.29297 5.16211C1.69401 4.23242 2.24544 3.41211 2.94727 2.70117C3.6582 1.99023 4.47852 1.43424 5.4082 1.0332C6.34701 0.623047 7.34961 0.417969 8.41602 0.417969C9.46419 0.417969 10.4486 0.623047 11.3691 1.0332C12.2988 1.43424 13.1146 1.99023 13.8164 2.70117C14.5273 3.41211 15.0833 4.23242 15.4844 5.16211C15.8945 6.08268 16.0996 7.07161 16.0996 8.12891C16.0996 9.1862 15.8945 10.1797 15.4844 11.1094C15.0833 12.0391 14.5273 12.8594 13.8164 13.5703C13.1146 14.2721 12.2988 14.8236 11.3691 15.2246C10.4486 15.6257 9.46419 15.8262 8.41602 15.8262ZM27.6113 15.8262C26.554 15.8262 25.556 15.6257 24.6172 15.2246C23.6875 14.8236 22.8672 14.2721 22.1562 13.5703C21.4544 12.8594 20.903 12.0391 20.502 11.1094C20.1009 10.1797 19.9004 9.1862 19.9004 8.12891C19.9004 7.07161 20.1009 6.08268 20.502 5.16211C20.903 4.23242 21.4544 3.41211 22.1562 2.70117C22.8672 1.99023 23.6875 1.43424 24.6172 1.0332C25.556 0.623047 26.554 0.417969 27.6113 0.417969C28.6686 0.417969 29.6576 0.623047 30.5781 1.0332C31.5078 1.43424 32.3236 1.99023 33.0254 2.70117C33.7363 3.41211 34.2923 4.23242 34.6934 5.16211C35.0944 6.08268 35.2949 7.07161 35.2949 8.12891C35.2949 9.1862 35.0944 10.1797 34.6934 11.1094C34.2923 12.0391 33.7363 12.8594 33.0254 13.5703C32.3236 14.2721 31.5078 14.8236 30.5781 15.2246C29.6576 15.6257 28.6686 15.8262 27.6113 15.8262Z" fill="white"/>
</svg>
