<svg width="28" height="28" viewBox="0 0 28 28" fill="none" xmlns="http://www.w3.org/2000/svg">
<path d="M2.06445 14.1289C2.06445 14.7943 2.11914 15.4505 2.22852 16.0977C2.33789 16.7357 2.48828 17.3555 2.67969 17.957L1.06641 18.627C0.820312 17.9251 0.628906 17.196 0.492188 16.4395C0.355469 15.6829 0.287109 14.9128 0.287109 14.1289C0.287109 13.3451 0.350911 12.5749 0.478516 11.8184C0.615234 11.0618 0.806641 10.3327 1.05273 9.63086L2.67969 10.3145C2.47917 10.9069 2.32422 11.5267 2.21484 12.1738C2.11458 12.8118 2.06445 13.4635 2.06445 14.1289ZM8.68164 3.41016C7.51497 3.99349 6.4668 4.75456 5.53711 5.69336C4.60742 6.62305 3.86003 7.67122 3.29492 8.83789L1.66797 8.16797C2.34245 6.79167 3.22201 5.55664 4.30664 4.46289C5.40039 3.36914 6.63997 2.48503 8.02539 1.81055L8.68164 3.41016ZM13.9863 2.17969C13.321 2.17969 12.6647 2.23438 12.0176 2.34375C11.3796 2.45312 10.7598 2.60807 10.1582 2.80859L9.47461 1.19531C10.1764 0.940104 10.9056 0.748698 11.6621 0.621094C12.4277 0.484375 13.2025 0.416016 13.9863 0.416016C14.7702 0.416016 15.5404 0.484375 16.2969 0.621094C17.0534 0.748698 17.7826 0.940104 18.4844 1.19531L17.8281 2.80859C17.2174 2.60807 16.5885 2.45312 15.9414 2.34375C15.3034 2.23438 14.6517 2.17969 13.9863 2.17969ZM24.7051 8.82422C24.1217 7.64844 23.3652 6.60026 22.4355 5.67969C21.5059 4.75 20.4577 3.99349 19.291 3.41016L19.9473 1.79688C21.3236 2.47135 22.5586 3.35547 23.6523 4.44922C24.7552 5.54297 25.6439 6.78255 26.3184 8.16797L24.7051 8.82422ZM25.9492 14.1289C25.9492 13.4635 25.8945 12.8118 25.7852 12.1738C25.6758 11.5267 25.5208 10.9023 25.3203 10.3008L26.9336 9.61719C27.1797 10.3281 27.3711 11.0618 27.5078 11.8184C27.6445 12.5749 27.7129 13.3451 27.7129 14.1289C27.7129 14.9128 27.6445 15.6875 27.5078 16.4531C27.3711 17.2096 27.1797 17.9388 26.9336 18.6406L25.3203 17.957C25.5208 17.3646 25.6758 16.7448 25.7852 16.0977C25.8945 15.4505 25.9492 14.7943 25.9492 14.1289ZM19.291 24.834C20.4577 24.2598 21.5059 23.5078 22.4355 22.5781C23.3743 21.6484 24.1354 20.6003 24.7188 19.4336L26.3047 20.1035C25.6393 21.4798 24.7598 22.7148 23.666 23.8086C22.5723 24.9023 21.3327 25.7865 19.9473 26.4609L19.291 24.834ZM14 26.0781C14.6654 26.0781 15.3125 26.0234 15.9414 25.9141C16.5794 25.8047 17.1992 25.6543 17.8008 25.4629L18.4844 27.0762C17.7826 27.3223 17.0534 27.5091 16.2969 27.6367C15.5495 27.7734 14.7839 27.8418 14 27.8418C13.2161 27.8418 12.4414 27.7734 11.6758 27.6367C10.9193 27.5 10.1901 27.3086 9.48828 27.0625L10.1582 25.4492C10.7598 25.6497 11.3796 25.8047 12.0176 25.9141C12.6647 26.0234 13.3255 26.0781 14 26.0781ZM3.28125 19.4336C3.85547 20.6003 4.60742 21.6484 5.53711 22.5781C6.4668 23.5078 7.51953 24.2598 8.69531 24.834L8.02539 26.4473C6.64909 25.7728 5.41406 24.8932 4.32031 23.8086C3.23568 22.7148 2.35612 21.4798 1.68164 20.1035L3.28125 19.4336ZM13.9727 24.3418C12.5599 24.3418 11.2337 24.082 9.99414 23.5625C8.76367 23.0339 7.67904 22.3047 6.74023 21.375C5.81055 20.4362 5.08138 19.3516 4.55273 18.1211C4.0332 16.8815 3.77344 15.5508 3.77344 14.1289C3.77344 12.707 4.0332 11.3809 4.55273 10.1504C5.08138 8.91081 5.81055 7.82617 6.74023 6.89648C7.67904 5.95768 8.76367 5.22852 9.99414 4.70898C11.2337 4.18034 12.5599 3.91602 13.9727 3.91602C15.3854 3.91602 16.707 4.18034 17.9375 4.70898C19.1771 5.22852 20.2663 5.95768 21.2051 6.89648C22.1439 7.82617 22.8776 8.91081 23.4062 10.1504C23.9349 11.3809 24.1992 12.707 24.1992 14.1289C24.1992 15.5417 23.9349 16.8678 23.4062 18.1074C22.8867 19.347 22.1576 20.4362 21.2188 21.375C20.2891 22.3047 19.2044 23.0339 17.9648 23.5625C16.7253 24.082 15.3945 24.3418 13.9727 24.3418Z" fill="white"/>
</svg>
