<svg width="29" height="28" viewBox="0 0 29 28" fill="none" xmlns="http://www.w3.org/2000/svg">
<path d="M14.334 27.8418C12.4564 27.8418 10.6882 27.4818 9.0293 26.7617C7.37956 26.0508 5.92122 25.0664 4.6543 23.8086C3.39648 22.5417 2.40755 21.0833 1.6875 19.4336C0.976562 17.7747 0.621094 16.0065 0.621094 14.1289C0.621094 12.2513 0.976562 10.4876 1.6875 8.83789C2.40755 7.17904 3.39648 5.7207 4.6543 4.46289C5.91211 3.19596 7.36589 2.20703 9.01562 1.49609C10.6745 0.776042 12.4427 0.416016 14.3203 0.416016C16.1979 0.416016 17.9661 0.776042 19.625 1.49609C21.2839 2.20703 22.7422 3.19596 24 4.46289C25.2578 5.7207 26.2467 7.17904 26.9668 8.83789C27.6868 10.4876 28.0469 12.2513 28.0469 14.1289C28.0469 16.0065 27.6868 17.7747 26.9668 19.4336C26.2467 21.0833 25.2578 22.5417 24 23.8086C22.7422 25.0664 21.2839 26.0508 19.625 26.7617C17.9753 27.4818 16.2116 27.8418 14.334 27.8418ZM14.334 26.0781C15.9837 26.0781 17.5286 25.7682 18.9688 25.1484C20.418 24.5286 21.6895 23.6719 22.7832 22.5781C23.8861 21.4844 24.7428 20.2174 25.3535 18.7773C25.9733 17.3281 26.2832 15.7786 26.2832 14.1289C26.2832 12.4792 25.9733 10.9342 25.3535 9.49414C24.7337 8.04492 23.877 6.77344 22.7832 5.67969C21.6895 4.57682 20.418 3.72005 18.9688 3.10938C17.5286 2.48958 15.9792 2.17969 14.3203 2.17969C12.6706 2.17969 11.1211 2.48958 9.67188 3.10938C8.23177 3.72005 6.96484 4.57682 5.87109 5.67969C4.78646 6.77344 3.93424 8.04492 3.31445 9.49414C2.70378 10.9342 2.39844 12.4792 2.39844 14.1289C2.39844 15.7786 2.70378 17.3281 3.31445 18.7773C3.93424 20.2174 4.79102 21.4844 5.88477 22.5781C6.97852 23.6719 8.24544 24.5286 9.68555 25.1484C11.1257 25.7682 12.6751 26.0781 14.334 26.0781ZM8.26367 15.1406C8.26367 14.9857 8.33203 14.8216 8.46875 14.6484L16.1797 4.98242C16.3438 4.77279 16.526 4.67253 16.7266 4.68164C16.9271 4.68164 17.082 4.76367 17.1914 4.92773C17.3008 5.08268 17.3053 5.28776 17.2051 5.54297L14.6348 12.4473H19.4062C19.5612 12.4473 19.6888 12.4974 19.7891 12.5977C19.8984 12.6888 19.9531 12.8073 19.9531 12.9531C19.9531 13.099 19.8848 13.263 19.748 13.4453L12.0371 23.1113C11.873 23.321 11.6908 23.4212 11.4902 23.4121C11.2897 23.403 11.1348 23.321 11.0254 23.166C10.916 23.002 10.9115 22.7923 11.0117 22.5371L13.582 15.6465H8.81055C8.6556 15.6465 8.52344 15.6009 8.41406 15.5098C8.3138 15.4095 8.26367 15.2865 8.26367 15.1406Z" fill="white"/>
</svg>
