<svg width="20" height="20" viewBox="0 0 20 20" fill="none" xmlns="http://www.w3.org/2000/svg">
<path d="M10 20C11.3678 20 12.6558 19.7378 13.8639 19.2134C15.0719 18.6954 16.1329 17.976 17.047 17.0552C17.9674 16.1343 18.6897 15.0727 19.2138 13.8705C19.7379 12.6619 20 11.3701 20 9.9952C20 8.6267 19.7379 7.34133 19.2138 6.13909C18.6897 4.93046 17.9674 3.86571 17.047 2.94484C16.1329 2.02398 15.0687 1.30456 13.8543 0.786571C12.6462 0.26219 11.3583 0 9.99041 0C8.62256 0 7.33461 0.26219 6.12656 0.786571C4.9185 1.30456 3.85427 2.02398 2.93384 2.94484C2.01981 3.86571 1.30074 4.93046 0.776606 6.13909C0.258869 7.34133 0 8.6267 0 9.9952C0 11.3701 0.258869 12.6619 0.776606 13.8705C1.30074 15.0727 2.02301 16.1343 2.94343 17.0552C3.86385 17.976 4.92809 18.6954 6.13615 19.2134C7.3442 19.7378 8.63215 20 10 20ZM8.93576 14.753C8.73762 14.753 8.55865 14.7114 8.39885 14.6283C8.23905 14.5388 8.08885 14.4045 7.94823 14.2254L5.63758 11.4436C5.5481 11.3221 5.47779 11.2038 5.42665 11.0887C5.38191 10.9672 5.35954 10.8425 5.35954 10.7146C5.35954 10.446 5.45222 10.219 5.63758 10.0336C5.82295 9.84173 6.04986 9.7458 6.31831 9.7458C6.47811 9.7458 6.62192 9.78098 6.74976 9.85132C6.8776 9.91527 7.00543 10.0272 7.13327 10.187L8.907 12.4125L12.7709 6.23501C13.001 5.8705 13.2854 5.68825 13.6242 5.68825C13.8798 5.68825 14.1067 5.77138 14.3049 5.93765C14.5094 6.10392 14.6117 6.32134 14.6117 6.58993C14.6117 6.71143 14.5861 6.83293 14.535 6.95444C14.4903 7.07594 14.4327 7.19105 14.3624 7.29976L9.88495 14.2254C9.76989 14.3917 9.62927 14.5228 9.46309 14.6187C9.30329 14.7082 9.12752 14.753 8.93576 14.753Z" fill="#4F66B3"/>
</svg>
