<svg width="29" height="28" viewBox="0 0 29 28" fill="none" xmlns="http://www.w3.org/2000/svg">
<path d="M8.48242 21.2246C8.13607 21.2246 7.83984 21.1016 7.59375 20.8555C7.34766 20.6003 7.22461 20.304 7.22461 19.9668C7.22461 19.6204 7.34766 19.3242 7.59375 19.0781C7.83984 18.832 8.13607 18.709 8.48242 18.709C8.82878 18.709 9.12044 18.832 9.35742 19.0781C9.60352 19.3242 9.72656 19.6204 9.72656 19.9668C9.72656 20.304 9.60352 20.6003 9.35742 20.8555C9.12044 21.1016 8.82878 21.2246 8.48242 21.2246ZM6.00781 15.3867C5.67057 15.3867 5.37891 15.2637 5.13281 15.0176C4.88672 14.7715 4.76367 14.4753 4.76367 14.1289C4.76367 13.7826 4.88672 13.4909 5.13281 13.2539C5.37891 13.0078 5.67057 12.8848 6.00781 12.8848C6.36328 12.8848 6.66406 13.0078 6.91016 13.2539C7.15625 13.4909 7.2793 13.7826 7.2793 14.1289C7.2793 14.4753 7.15625 14.7715 6.91016 15.0176C6.66406 15.2637 6.36328 15.3867 6.00781 15.3867ZM8.45508 9.5625C8.11784 9.5625 7.82617 9.43945 7.58008 9.19336C7.33398 8.94727 7.21094 8.65104 7.21094 8.30469C7.21094 7.95833 7.33398 7.66667 7.58008 7.42969C7.82617 7.18359 8.11784 7.06055 8.45508 7.06055C8.80143 7.06055 9.09766 7.18359 9.34375 7.42969C9.58984 7.66667 9.71289 7.95833 9.71289 8.30469C9.71289 8.65104 9.58984 8.94727 9.34375 9.19336C9.09766 9.43945 8.80143 9.5625 8.45508 9.5625ZM14.3203 7.06055C13.974 7.06055 13.6777 6.9375 13.4316 6.69141C13.1947 6.44531 13.0762 6.14909 13.0762 5.80273C13.0762 5.45638 13.1947 5.16016 13.4316 4.91406C13.6777 4.66797 13.974 4.54492 14.3203 4.54492C14.6576 4.54492 14.9492 4.66797 15.1953 4.91406C15.4505 5.16016 15.5781 5.45638 15.5781 5.80273C15.5781 6.14909 15.4505 6.44531 15.1953 6.69141C14.9492 6.9375 14.6576 7.06055 14.3203 7.06055ZM22.6328 15.3867C22.2865 15.3867 21.9902 15.2637 21.7441 15.0176C21.498 14.7715 21.375 14.4753 21.375 14.1289C21.375 13.7826 21.498 13.4909 21.7441 13.2539C21.9902 13.0078 22.2865 12.8848 22.6328 12.8848C22.9701 12.8848 23.2617 13.0078 23.5078 13.2539C23.7539 13.4909 23.877 13.7826 23.877 14.1289C23.877 14.4753 23.7539 14.7715 23.5078 15.0176C23.2617 15.2637 22.9701 15.3867 22.6328 15.3867ZM20.1719 21.2246C19.8255 21.2246 19.5293 21.1016 19.2832 20.8555C19.0371 20.6003 18.9141 20.304 18.9141 19.9668C18.9141 19.6204 19.0371 19.3242 19.2832 19.0781C19.5293 18.832 19.8255 18.709 20.1719 18.709C20.5091 18.709 20.8008 18.832 21.0469 19.0781C21.293 19.3242 21.416 19.6204 21.416 19.9668C21.416 20.304 21.293 20.6003 21.0469 20.8555C20.8008 21.1016 20.5091 21.2246 20.1719 21.2246ZM12.3516 15.9609C12.0143 15.6146 11.8092 15.2454 11.7363 14.8535C11.6725 14.4525 11.7272 14.0651 11.9004 13.6914C12.0827 13.3177 12.3652 12.9896 12.748 12.707L20.5273 7.15625C20.7188 7.01953 20.901 6.97852 21.0742 7.0332C21.2474 7.08789 21.3613 7.20182 21.416 7.375C21.4798 7.54818 21.4388 7.73503 21.293 7.93555L15.5781 15.5371C15.2865 15.9199 14.9538 16.2025 14.5801 16.3848C14.2155 16.5579 13.8372 16.6126 13.4453 16.5488C13.0534 16.485 12.6888 16.2891 12.3516 15.9609ZM14.334 27.8418C12.4564 27.8418 10.6882 27.4818 9.0293 26.7617C7.37956 26.0508 5.92122 25.0664 4.6543 23.8086C3.39648 22.5417 2.40755 21.0833 1.6875 19.4336C0.976562 17.7747 0.621094 16.0065 0.621094 14.1289C0.621094 12.2513 0.976562 10.4876 1.6875 8.83789C2.40755 7.17904 3.39648 5.7207 4.6543 4.46289C5.91211 3.19596 7.36589 2.20703 9.01562 1.49609C10.6745 0.776042 12.4427 0.416016 14.3203 0.416016C16.1979 0.416016 17.9661 0.776042 19.625 1.49609C21.2839 2.20703 22.7422 3.19596 24 4.46289C25.2578 5.7207 26.2467 7.17904 26.9668 8.83789C27.6868 10.4876 28.0469 12.2513 28.0469 14.1289C28.0469 16.0065 27.6868 17.7747 26.9668 19.4336C26.2467 21.0833 25.2578 22.5417 24 23.8086C22.7422 25.0664 21.2839 26.0508 19.625 26.7617C17.9753 27.4818 16.2116 27.8418 14.334 27.8418ZM14.334 26.0781C15.9837 26.0781 17.5286 25.7682 18.9688 25.1484C20.418 24.5286 21.6895 23.6719 22.7832 22.5781C23.8861 21.4844 24.7428 20.2174 25.3535 18.7773C25.9733 17.3281 26.2832 15.7786 26.2832 14.1289C26.2832 12.4792 25.9733 10.9342 25.3535 9.49414C24.7337 8.04492 23.877 6.77344 22.7832 5.67969C21.6895 4.57682 20.418 3.72005 18.9688 3.10938C17.5286 2.48958 15.9792 2.17969 14.3203 2.17969C12.6706 2.17969 11.1211 2.48958 9.67188 3.10938C8.23177 3.72005 6.96484 4.57682 5.87109 5.67969C4.78646 6.77344 3.93424 8.04492 3.31445 9.49414C2.70378 10.9342 2.39844 12.4792 2.39844 14.1289C2.39844 15.7786 2.70378 17.3281 3.31445 18.7773C3.93424 20.2174 4.79102 21.4844 5.88477 22.5781C6.97852 23.6719 8.24544 24.5286 9.68555 25.1484C11.1257 25.7682 12.6751 26.0781 14.334 26.0781Z" fill="white"/>
</svg>
