<svg width="29" height="23" viewBox="0 0 29 23" fill="none" xmlns="http://www.w3.org/2000/svg">
<path d="M15.9233 11.1865C15.492 11.1865 15.1746 11.0848 14.9712 10.8813C14.7677 10.6698 14.666 10.3442 14.666 9.90479V4.33838C14.666 3.89893 14.7677 3.57747 14.9712 3.37402C15.1746 3.17057 15.492 3.06885 15.9233 3.06885H24.7734C25.2129 3.06885 25.5343 3.17057 25.7378 3.37402C25.9412 3.57747 26.043 3.89893 26.043 4.33838V9.90479C26.043 10.3442 25.9412 10.6698 25.7378 10.8813C25.5343 11.0848 25.2129 11.1865 24.7734 11.1865H15.9233ZM3.96045 22.2339C2.7723 22.2339 1.87712 21.9328 1.2749 21.3306C0.672689 20.7365 0.371582 19.8535 0.371582 18.6816V3.70361C0.371582 2.5236 0.672689 1.63656 1.2749 1.04248C1.87712 0.440267 2.7723 0.13916 3.96045 0.13916H25.3594C26.5557 0.13916 27.4549 0.444336 28.0571 1.05469C28.6593 1.6569 28.9604 2.53988 28.9604 3.70361V18.6816C28.9604 19.8535 28.6593 20.7365 28.0571 21.3306C27.4549 21.9328 26.5557 22.2339 25.3594 22.2339H3.96045ZM3.99707 20.7324H25.335C26.0104 20.7324 26.5312 20.5534 26.8975 20.1953C27.2637 19.8372 27.4468 19.3042 27.4468 18.5962V3.78906C27.4468 3.08105 27.2637 2.54801 26.8975 2.18994C26.5312 1.82373 26.0104 1.64062 25.335 1.64062H3.99707C3.30534 1.64062 2.77637 1.82373 2.41016 2.18994C2.05208 2.54801 1.87305 3.08105 1.87305 3.78906V18.5962C1.87305 19.3042 2.05208 19.8372 2.41016 20.1953C2.77637 20.5534 3.30534 20.7324 3.99707 20.7324Z" fill="white"/>
</svg>
