<svg width="27" height="28" viewBox="0 0 27 28" fill="none" xmlns="http://www.w3.org/2000/svg">
<path d="M0.154297 11.4492C0.154297 9.99089 0.427734 8.61914 0.974609 7.33398C1.5306 6.04883 2.29622 4.92318 3.27148 3.95703C4.24674 2.98177 5.3724 2.2207 6.64844 1.67383C7.93359 1.11784 9.30534 0.839844 10.7637 0.839844C12.222 0.839844 13.5892 1.11784 14.8652 1.67383C16.1504 2.2207 17.2806 2.98177 18.2559 3.95703C19.2311 4.92318 19.9922 6.04883 20.5391 7.33398C21.0951 8.61914 21.373 9.99089 21.373 11.4492C21.373 12.6979 21.1634 13.8874 20.7441 15.0176C20.334 16.1478 19.7643 17.1595 19.0352 18.0527L26.1172 25.1895C26.2448 25.3079 26.3405 25.4447 26.4043 25.5996C26.4681 25.7546 26.5 25.9232 26.5 26.1055C26.5 26.3424 26.4453 26.5612 26.3359 26.7617C26.2266 26.9714 26.0716 27.1354 25.8711 27.2539C25.6797 27.3724 25.4564 27.4316 25.2012 27.4316C25.0189 27.4316 24.8457 27.3952 24.6816 27.3223C24.5267 27.2585 24.3854 27.1673 24.2578 27.0488L17.1348 19.8984C16.2507 20.5729 15.2663 21.1016 14.1816 21.4844C13.097 21.8672 11.9577 22.0586 10.7637 22.0586C9.30534 22.0586 7.93359 21.7852 6.64844 21.2383C5.3724 20.6823 4.24674 19.9167 3.27148 18.9414C2.29622 17.9661 1.5306 16.8405 0.974609 15.5645C0.427734 14.2793 0.154297 12.9076 0.154297 11.4492ZM1.93164 11.4492C1.93164 12.6615 2.15951 13.8053 2.61523 14.8809C3.07096 15.9473 3.70443 16.8861 4.51562 17.6973C5.32682 18.4993 6.26562 19.1328 7.33203 19.5977C8.39844 20.0534 9.54232 20.2812 10.7637 20.2812C11.985 20.2812 13.1289 20.0534 14.1953 19.5977C15.2617 19.1328 16.196 18.4993 16.998 17.6973C17.8092 16.8861 18.4427 15.9473 18.8984 14.8809C19.3633 13.8053 19.5957 12.6615 19.5957 11.4492C19.5957 10.2279 19.3633 9.08398 18.8984 8.01758C18.4427 6.95117 17.8092 6.01237 16.998 5.20117C16.196 4.38997 15.2617 3.75651 14.1953 3.30078C13.1289 2.83594 11.985 2.60352 10.7637 2.60352C9.54232 2.60352 8.39844 2.83594 7.33203 3.30078C6.26562 3.75651 5.32682 4.38997 4.51562 5.20117C3.70443 6.01237 3.07096 6.95117 2.61523 8.01758C2.15951 9.08398 1.93164 10.2279 1.93164 11.4492ZM6.38867 10.4512C6.16992 10.4512 5.98763 10.3783 5.8418 10.2324C5.70508 10.0866 5.63672 9.90885 5.63672 9.69922C5.63672 9.48958 5.70508 9.31185 5.8418 9.16602C5.98763 9.02018 6.16992 8.94727 6.38867 8.94727H15.2344C15.444 8.94727 15.6172 9.02018 15.7539 9.16602C15.8997 9.31185 15.9727 9.48958 15.9727 9.69922C15.9727 9.90885 15.8997 10.0866 15.7539 10.2324C15.6172 10.3783 15.444 10.4512 15.2344 10.4512H6.38867ZM6.38867 13.9238C6.16992 13.9238 5.98763 13.8509 5.8418 13.7051C5.70508 13.5592 5.63672 13.3815 5.63672 13.1719C5.63672 12.9714 5.70508 12.7982 5.8418 12.6523C5.98763 12.5065 6.16992 12.4336 6.38867 12.4336H12.7734C12.9831 12.4336 13.1608 12.5065 13.3066 12.6523C13.4525 12.7982 13.5254 12.9714 13.5254 13.1719C13.5254 13.3815 13.4525 13.5592 13.3066 13.7051C13.1608 13.8509 12.9831 13.9238 12.7734 13.9238H6.38867Z" fill="white"/>
</svg>
