<svg width="24" height="29" viewBox="0 0 24 29" fill="none" xmlns="http://www.w3.org/2000/svg">
<path d="M4.86523 9.43848C5.66081 9.43848 6.38444 9.24382 7.03613 8.85449C7.68783 8.46517 8.20833 7.94466 8.59766 7.29297C8.98698 6.63281 9.18164 5.90495 9.18164 5.10938C9.18164 4.3138 8.98698 3.59017 8.59766 2.93848C8.20833 2.28678 7.68783 1.76628 7.03613 1.37695C6.38444 0.98763 5.66081 0.792969 4.86523 0.792969C4.06966 0.792969 3.34603 0.98763 2.69434 1.37695C2.04264 1.76628 1.52214 2.28678 1.13281 2.93848C0.74349 3.59017 0.548828 4.3138 0.548828 5.10938C0.548828 5.90495 0.74349 6.63281 1.13281 7.29297C1.52214 7.94466 2.04264 8.46517 2.69434 8.85449C3.34603 9.24382 4.06966 9.43848 4.86523 9.43848ZM3.63379 9.74316C3.63379 11.0973 4.04004 12.2357 4.85254 13.1582C5.66504 14.0807 6.8584 14.7493 8.43262 15.1641L14.8438 16.9033C16.8835 17.4619 17.9033 18.486 17.9033 19.9756V21.0166H20.3535V19.9756C20.3535 18.6214 19.9473 17.4873 19.1348 16.5732C18.3307 15.6507 17.1416 14.9821 15.5674 14.5674L9.15625 12.8281C7.10807 12.2695 6.08398 11.2412 6.08398 9.74316V8.70215H3.63379V9.74316ZM19.1348 20.293C18.3392 20.293 17.6113 20.4876 16.9512 20.877C16.2995 21.2663 15.779 21.791 15.3896 22.4512C15.0003 23.1029 14.8057 23.8265 14.8057 24.6221C14.8057 25.4092 15.0003 26.1286 15.3896 26.7803C15.779 27.4404 16.2995 27.9609 16.9512 28.3418C17.6113 28.7227 18.3392 28.9131 19.1348 28.9131C19.9303 28.9131 20.654 28.7227 21.3057 28.3418C21.9574 27.9609 22.4779 27.4404 22.8672 26.7803C23.2565 26.1286 23.4512 25.4092 23.4512 24.6221C23.4512 23.8265 23.2565 23.1029 22.8672 22.4512C22.4779 21.791 21.9574 21.2663 21.3057 20.877C20.654 20.4876 19.9303 20.293 19.1348 20.293ZM19.1348 22.6289C19.6849 22.6289 20.1504 22.8236 20.5312 23.2129C20.9206 23.5938 21.1152 24.0635 21.1152 24.6221C21.1152 25.1722 20.9206 25.6377 20.5312 26.0186C20.1504 26.3994 19.6849 26.5898 19.1348 26.5898C18.5762 26.5898 18.1022 26.3994 17.7129 26.0186C17.332 25.6377 17.1416 25.1722 17.1416 24.6221C17.1416 24.055 17.332 23.5811 17.7129 23.2002C18.1022 22.8193 18.5762 22.6289 19.1348 22.6289Z" fill="#4F66B3"/>
</svg>
