<svg width="27" height="32" viewBox="0 0 27 32" fill="none" xmlns="http://www.w3.org/2000/svg">
<path d="M11.8203 16.6484C11.8203 16.2656 11.8613 15.9329 11.9434 15.6504C12.0345 15.3678 12.1849 15.1172 12.3945 14.8984C12.6042 14.6797 12.8776 14.4701 13.2148 14.2695L24.2891 7.85742C24.6901 7.62956 25.0911 7.53385 25.4922 7.57031C25.8932 7.59766 26.2259 7.7526 26.4902 8.03516C26.7546 8.30859 26.8867 8.70052 26.8867 9.21094V22.1719C26.8867 22.5729 26.8457 22.9147 26.7637 23.1973C26.6816 23.4798 26.5404 23.7305 26.3398 23.9492C26.1393 24.168 25.8522 24.3822 25.4785 24.5918L14.5684 30.9082C14.0488 31.1999 13.5794 31.332 13.1602 31.3047C12.75 31.2865 12.4219 31.1087 12.1758 30.7715C11.9388 30.4434 11.8203 29.9603 11.8203 29.3223V16.6484ZM14.0488 15.7871C13.8574 15.9056 13.7207 16.0241 13.6387 16.1426C13.5566 16.2611 13.5156 16.4479 13.5156 16.7031V29.1445C13.5156 29.2448 13.543 29.3086 13.5977 29.3359C13.6523 29.3724 13.7298 29.3678 13.8301 29.3223L24.6582 23.0742C24.8678 22.9466 25.0046 22.8236 25.0684 22.7051C25.1413 22.5775 25.1777 22.3906 25.1777 22.1445V9.77148C25.1777 9.66211 25.1413 9.58919 25.0684 9.55273C24.9954 9.50716 24.9134 9.51172 24.8223 9.56641L14.0488 15.7871ZM12.7363 25.1113L8.68945 27.4629C8.16992 27.7546 7.70052 27.8867 7.28125 27.8594C6.87109 27.8411 6.54297 27.6634 6.29688 27.3262C6.0599 26.9889 5.94141 26.5059 5.94141 25.877V13.2031C5.94141 12.8112 5.98242 12.474 6.06445 12.1914C6.1556 11.9089 6.30143 11.6582 6.50195 11.4395C6.71159 11.2207 6.98503 11.0111 7.32227 10.8105L18.3965 4.41211C18.8066 4.18424 19.2077 4.08854 19.5996 4.125C20.0007 4.15234 20.3333 4.30729 20.5977 4.58984C20.8711 4.86328 21.0078 5.25977 21.0078 5.7793V10.7695L19.2988 11.6582V6.32617C19.2988 6.2168 19.2578 6.14388 19.1758 6.10742C19.1029 6.06185 19.0208 6.06641 18.9297 6.12109L8.16992 12.3418C7.9694 12.4603 7.82812 12.5833 7.74609 12.7109C7.67318 12.8294 7.63672 13.0117 7.63672 13.2578V25.7129C7.63672 25.804 7.66406 25.8678 7.71875 25.9043C7.77344 25.9408 7.85091 25.9271 7.95117 25.8633L12.7363 23.1152V25.1113ZM6.78906 22.1035L3.17969 24.1953C2.66016 24.4961 2.19076 24.6328 1.77148 24.6055C1.36133 24.5781 1.0332 24.3958 0.787109 24.0586C0.55013 23.7214 0.431641 23.2383 0.431641 22.6094V9.94922C0.431641 9.55729 0.472656 9.22005 0.554688 8.9375C0.645833 8.65495 0.791667 8.4043 0.992188 8.18555C1.20182 7.95768 1.47982 7.74805 1.82617 7.55664L12.9004 1.14453C13.3014 0.916667 13.7025 0.820964 14.1035 0.857422C14.5046 0.884766 14.8372 1.03971 15.1016 1.32227C15.3659 1.5957 15.498 1.99219 15.498 2.51172V7.22852L13.7891 8.07617V3.05859C13.7891 2.94922 13.7526 2.87174 13.6797 2.82617C13.6068 2.7806 13.5202 2.78971 13.4199 2.85352L2.66016 9.07422C2.46875 9.19271 2.33203 9.31576 2.25 9.44336C2.16797 9.56185 2.12695 9.7487 2.12695 10.0039V22.4453C2.12695 22.5365 2.1543 22.6003 2.20898 22.6367C2.27279 22.6732 2.35026 22.6641 2.44141 22.6094L6.78906 20.0938V22.1035Z" fill="white"/>
</svg>
