<svg width="34" height="30" viewBox="0 0 34 30" fill="none" xmlns="http://www.w3.org/2000/svg">
<path d="M4.20312 12.7393C2.96745 12.7393 2.03646 12.4303 1.41016 11.8125C0.783854 11.1862 0.470703 10.2594 0.470703 9.03223V4.27148C0.470703 3.05273 0.783854 2.13444 1.41016 1.5166C2.03646 0.890299 2.96745 0.577148 4.20312 0.577148H13.2549C14.4906 0.577148 15.4215 0.890299 16.0479 1.5166C16.6742 2.1429 16.9873 3.0612 16.9873 4.27148V9.03223C16.9873 10.251 16.6742 11.1735 16.0479 11.7998C15.4215 12.4261 14.4906 12.7393 13.2549 12.7393H4.20312ZM4.24121 11.1777H13.2168C13.9193 11.1777 14.4609 10.9915 14.8418 10.6191C15.2311 10.2383 15.4258 9.67969 15.4258 8.94336V4.36035C15.4258 3.62402 15.2311 3.06966 14.8418 2.69727C14.4609 2.32487 13.9193 2.13867 13.2168 2.13867H4.24121C3.52181 2.13867 2.97168 2.32487 2.59082 2.69727C2.21842 3.06966 2.03223 3.62402 2.03223 4.36035V8.94336C2.03223 9.67969 2.21842 10.2383 2.59082 10.6191C2.97168 10.9915 3.52181 11.1777 4.24121 11.1777ZM20.7324 29.0908C19.4967 29.0908 18.5615 28.7777 17.9268 28.1514C17.3005 27.5335 16.9873 26.611 16.9873 25.3838V20.6357C16.9873 19.4085 17.3005 18.486 17.9268 17.8682C18.5615 17.2419 19.4967 16.9287 20.7324 16.9287H29.7715C31.0072 16.9287 31.9382 17.2419 32.5645 17.8682C33.1992 18.486 33.5166 19.4085 33.5166 20.6357V25.3838C33.5166 26.6025 33.1992 27.5251 32.5645 28.1514C31.9382 28.7777 31.0072 29.0908 29.7715 29.0908H20.7324ZM20.7578 27.5293H29.7461C30.4401 27.5293 30.9818 27.3389 31.3711 26.958C31.7604 26.5856 31.9551 26.0312 31.9551 25.2949V20.7119C31.9551 19.984 31.7604 19.4339 31.3711 19.0615C30.9818 18.6807 30.4401 18.4902 29.7461 18.4902H20.7578C20.0469 18.4902 19.501 18.6807 19.1201 19.0615C18.7393 19.4339 18.5488 19.984 18.5488 20.7119V25.2949C18.5488 26.0312 18.7393 26.5856 19.1201 26.958C19.501 27.3389 20.0469 27.5293 20.7578 27.5293ZM27.0928 14.25L24.833 11.0635C24.613 10.7757 24.5495 10.5007 24.6426 10.2383C24.7357 9.97591 24.9727 9.84473 25.3535 9.84473H27.042V9.61621C27.042 8.56673 26.8262 7.6696 26.3945 6.9248C25.9629 6.18001 25.3747 5.60872 24.6299 5.21094C23.8936 4.80469 23.0557 4.60156 22.1162 4.60156H20.0977C19.9284 4.60156 19.7803 4.54232 19.6533 4.42383C19.5264 4.29688 19.4629 4.14876 19.4629 3.97949C19.4629 3.80176 19.5264 3.65365 19.6533 3.53516C19.7803 3.4082 19.9284 3.34473 20.0977 3.34473H22.1416C23.3434 3.34473 24.4014 3.60286 25.3154 4.11914C26.238 4.63542 26.9531 5.36328 27.4609 6.30273C27.9772 7.24219 28.2354 8.34245 28.2354 9.60352V9.84473H29.9873C30.3766 9.84473 30.6178 9.97591 30.7109 10.2383C30.804 10.5007 30.7406 10.7757 30.5205 11.0635L28.2354 14.25C28.0576 14.5039 27.8672 14.6309 27.6641 14.6309C27.4694 14.6309 27.279 14.5039 27.0928 14.25ZM11.833 26.3232C10.6227 26.3232 9.56055 26.0609 8.64648 25.5361C7.74089 25.0199 7.02995 24.292 6.51367 23.3525C5.9974 22.4131 5.73926 21.3128 5.73926 20.0518V19.8232H3.97461C3.59375 19.8232 3.35677 19.6921 3.26367 19.4297C3.17057 19.1673 3.23828 18.888 3.4668 18.5918L5.72656 15.418C5.91276 15.1641 6.10319 15.0371 6.29785 15.0371C6.50098 15.0286 6.69564 15.1556 6.88184 15.418L9.1416 18.5918C9.36165 18.888 9.42513 19.1673 9.33203 19.4297C9.23893 19.6921 9.00618 19.8232 8.63379 19.8232H6.93262V20.0518C6.93262 21.0928 7.14421 21.9899 7.56738 22.7432C7.99902 23.488 8.58724 24.0592 9.33203 24.457C10.0768 24.8633 10.9147 25.0664 11.8457 25.0664H13.877C14.0547 25.0664 14.2028 25.1257 14.3213 25.2441C14.4482 25.3711 14.5117 25.5192 14.5117 25.6885C14.5117 25.8662 14.4482 26.0143 14.3213 26.1328C14.2028 26.2598 14.0547 26.3232 13.877 26.3232H11.833Z" fill="white"/>
</svg>
