<svg width="36" height="28" viewBox="0 0 36 28" fill="none" xmlns="http://www.w3.org/2000/svg">
<path d="M0.105469 11.3672C0.105469 9.90885 0.378906 8.54167 0.925781 7.26562C1.48177 5.98047 2.24284 4.85026 3.20898 3.875C4.18424 2.89974 5.31445 2.13867 6.59961 1.5918C7.88477 1.04492 9.25651 0.771484 10.7148 0.771484C12.1732 0.771484 13.5449 1.04492 14.8301 1.5918C16.1152 2.13867 17.2409 2.89974 18.207 3.875C19.1823 4.85026 19.9434 5.98047 20.4902 7.26562C21.0462 8.54167 21.3242 9.90885 21.3242 11.3672C21.3242 12.625 21.1146 13.819 20.6953 14.9492C20.2852 16.0703 19.7155 17.082 18.9863 17.9844L26.6152 25.6543C26.7337 25.7728 26.8249 25.9095 26.8887 26.0645C26.9525 26.2194 26.9844 26.388 26.9844 26.5703C26.9844 26.8073 26.9297 27.026 26.8203 27.2266C26.7109 27.4362 26.5605 27.6003 26.3691 27.7188C26.1777 27.8372 25.9499 27.8965 25.6855 27.8965C25.5033 27.8965 25.3346 27.8646 25.1797 27.8008C25.0247 27.737 24.8835 27.6413 24.7559 27.5137L17.0859 19.8301C16.2018 20.5046 15.2174 21.0332 14.1328 21.416C13.0573 21.7897 11.918 21.9766 10.7148 21.9766C9.25651 21.9766 7.88477 21.7031 6.59961 21.1562C5.31445 20.6094 4.18424 19.8483 3.20898 18.873C2.24284 17.8978 1.48177 16.7721 0.925781 15.4961C0.378906 14.2109 0.105469 12.8346 0.105469 11.3672ZM1.88281 11.3672C1.88281 12.5885 2.11068 13.7324 2.56641 14.7988C3.03125 15.8652 3.66471 16.804 4.4668 17.6152C5.27799 18.4264 6.2168 19.0645 7.2832 19.5293C8.34961 19.985 9.49349 20.2129 10.7148 20.2129C11.9362 20.2129 13.0801 19.985 14.1465 19.5293C15.2129 19.0645 16.1517 18.4264 16.9629 17.6152C17.7741 16.804 18.4076 15.8652 18.8633 14.7988C19.319 13.7324 19.5469 12.5885 19.5469 11.3672C19.5469 10.1549 19.319 9.01562 18.8633 7.94922C18.4076 6.88281 17.7741 5.94401 16.9629 5.13281C16.1517 4.32161 15.2129 3.68815 14.1465 3.23242C13.0801 2.76758 11.9362 2.53516 10.7148 2.53516C9.49349 2.53516 8.34961 2.76758 7.2832 3.23242C6.2168 3.68815 5.27799 4.32161 4.4668 5.13281C3.66471 5.94401 3.03125 6.88281 2.56641 7.94922C2.11068 9.01562 1.88281 10.1549 1.88281 11.3672ZM6.28516 10.3965C6.07552 10.3965 5.89779 10.3236 5.75195 10.1777C5.61523 10.0228 5.54688 9.84049 5.54688 9.63086C5.54688 9.43034 5.61523 9.25716 5.75195 9.11133C5.89779 8.96549 6.07552 8.89258 6.28516 8.89258H15.1445C15.3542 8.89258 15.5273 8.96549 15.6641 9.11133C15.8099 9.25716 15.8828 9.43034 15.8828 9.63086C15.8828 9.84049 15.8099 10.0228 15.6641 10.1777C15.5273 10.3236 15.3542 10.3965 15.1445 10.3965H6.28516ZM6.28516 13.8555C6.07552 13.8555 5.89779 13.7826 5.75195 13.6367C5.61523 13.4909 5.54688 13.3177 5.54688 13.1172C5.54688 12.9076 5.61523 12.7298 5.75195 12.584C5.89779 12.429 6.07552 12.3516 6.28516 12.3516H12.6836C12.8932 12.3516 13.071 12.429 13.2168 12.584C13.3626 12.7298 13.4355 12.9076 13.4355 13.1172C13.4355 13.3177 13.3626 13.4909 13.2168 13.6367C13.071 13.7826 12.8932 13.8555 12.6836 13.8555H6.28516ZM30.9902 1.7832C32.321 1.7832 33.3236 2.12044 33.998 2.79492C34.6725 3.46029 35.0098 4.45378 35.0098 5.77539V22.5371C35.0098 23.8496 34.6725 24.8431 33.998 25.5176C33.3236 26.1921 32.321 26.5293 30.9902 26.5293H28.2012C28.2012 26.2103 28.1465 25.9049 28.0371 25.6133C27.9277 25.3307 27.7682 25.0755 27.5586 24.8477H30.9492C31.7057 24.8477 32.2891 24.6471 32.6992 24.2461C33.1185 23.8451 33.3281 23.248 33.3281 22.4551V5.85742C33.3281 5.06445 33.1185 4.46745 32.6992 4.06641C32.2891 3.66536 31.7057 3.46484 30.9492 3.46484H14.9805V1.7832H30.9902ZM7.05078 24.8477H20.4492L22.1445 26.5293H7.02344C5.69271 26.5293 4.68555 26.1921 4.00195 25.5176C3.32747 24.8522 2.99023 23.8587 2.99023 22.5371V18.0254H4.67188V22.4551C4.67188 23.248 4.87695 23.8451 5.28711 24.2461C5.69727 24.6471 6.28516 24.8477 7.05078 24.8477Z" fill="white"/>
</svg>
