<svg width="445" height="197" viewBox="0 0 445 197" fill="none" xmlns="http://www.w3.org/2000/svg">
<g filter="url(#filter0_b_1035_2419)">
<path d="M308.433 87.2213L302.625 87.9312L306.594 90.4803L308.433 87.2213ZM88.844 86.8015C103.993 78.055 121.89 75.2654 141.043 75.6488C160.22 76.0328 180.629 79.5976 200.756 83.5542C220.851 87.5047 240.682 91.8499 258.595 93.7499C276.516 95.6506 292.656 95.1205 305.309 89.241L304.664 88.7785C292.358 94.497 276.59 95.0548 258.781 93.166C240.964 91.2763 221.242 86.9543 201.087 82.9922C180.963 79.0361 160.424 75.4428 141.079 75.0555C121.71 74.6677 103.512 77.4936 88.1169 86.3817L88.844 86.8015Z" fill="white" fill-opacity="0.2"/>
</g>
<g filter="url(#filter1_b_1035_2419)">
<path d="M237.537 45.8708L235.958 49.1751L231.791 46.7337L237.537 45.8708ZM112.836 100.655C135.953 87.3086 154.994 80.3262 173.866 73.5292C192.727 66.7361 211.41 60.1308 233.888 47.5301L234.604 47.9561C212.041 60.6048 193.275 67.2385 174.41 74.033C155.556 80.8236 136.595 87.7773 113.563 101.075L112.836 100.655Z" fill="white" fill-opacity="0.2"/>
</g>
<g filter="url(#filter2_b_1035_2419)">
<path d="M165.922 4.52034L164.622 7.86486L160.255 5.54278L165.922 4.52034ZM137.564 114.928C148.988 108.333 153.737 100.022 155.044 90.7988C156.352 81.5682 154.21 71.4519 151.888 61.2649C149.57 51.0916 147.071 40.8466 147.706 31.4103C148.343 21.9682 152.118 13.2993 162.397 6.29217L163.182 6.67587C153.106 13.5441 149.365 22.0642 148.734 31.4333C148.102 40.8081 150.585 50.9966 152.908 61.1874C155.228 71.3647 157.388 81.5433 156.069 90.8472C154.749 100.159 149.941 108.622 138.291 115.348L137.564 114.928Z" fill="white" fill-opacity="0.2"/>
</g>
<g filter="url(#filter3_b_1035_2419)">
<path d="M333.52 101.285L327.741 102.069L331.807 104.567L333.52 101.285ZM163.223 129.21C186.128 115.985 215.953 115.509 246.144 115.37C276.26 115.232 306.762 115.433 330.493 103.335L329.813 102.89C306.421 114.814 276.349 114.638 246.136 114.776C215.999 114.915 185.738 115.371 162.496 128.79L163.223 129.21Z" fill="white" fill-opacity="0.2"/>
</g>
<g filter="url(#filter4_b_1035_2419)">
<path d="M190.278 18.5839L189.049 21.9374L184.634 19.6463L190.278 18.5839ZM186.279 143.055C197.668 136.479 200.989 127.355 200.112 116.859C199.234 106.361 194.161 94.5473 188.867 82.644C183.578 70.7552 178.069 58.7767 176.367 47.996C174.665 37.2166 176.757 27.5699 186.785 20.3845L187.586 20.757C177.808 27.7631 175.697 37.2185 177.391 47.9421C179.083 58.6645 184.567 70.59 189.863 82.4963C195.152 94.3882 200.255 106.261 201.139 116.831C202.023 127.403 198.691 136.729 187.006 143.475L186.279 143.055Z" fill="white" fill-opacity="0.2"/>
</g>
<g filter="url(#filter5_b_1035_2419)">
<path d="M261.53 59.7242L260.166 63.0601L255.844 60.7101L261.53 59.7242ZM210.996 157.328C233.906 144.101 235.243 127.048 236.012 109.794C236.78 92.5798 236.977 75.1528 257.977 61.47L258.746 61.8637C238.04 75.3559 237.81 92.5426 237.04 109.809C236.272 127.036 234.961 144.331 211.723 157.748L210.996 157.328Z" fill="white" fill-opacity="0.2"/>
</g>
<g filter="url(#filter6_f_1035_2419)">
<path d="M39.4204 108.643C35.594 106.434 35.594 102.852 39.4204 100.643L61.5768 87.851L86.2987 102.124L57.2141 118.916L39.4204 108.643Z" stroke="white" stroke-opacity="0.5" stroke-width="0.4198"/>
</g>
<g filter="url(#filter7_f_1035_2419)">
<path d="M61.3963 87.7461L83.5528 74.9541C87.4795 72.687 93.846 72.687 97.7727 74.9541L97.4092 75.164C93.6832 73.0128 87.6423 73.0128 83.9163 75.164L61.7599 87.956L61.3963 87.7461ZM115.748 85.3323L86.4818 102.229L86.1183 102.019L115.021 85.3323H115.748ZM86.3 102.124L61.5781 87.8511L86.3 102.124ZM83.5528 74.9541C87.4795 72.687 93.846 72.687 97.7727 74.9541L115.748 85.3323H115.021L97.4092 75.164C93.6832 73.0128 87.6423 73.0128 83.9163 75.164L83.5528 74.9541Z" fill="white" fill-opacity="0.5"/>
</g>
<path d="M58.5595 99.2066L66.4916 103.786L65.3917 104.421L55.5423 103.39L55.4687 103.433L61.2861 106.792L60.0894 107.483L52.1572 102.903L53.2649 102.263L63.1259 103.296L63.1995 103.254L57.3743 99.8908L58.5595 99.2066Z" fill="white"/>
<path d="M39.4204 108.643C35.594 106.434 35.594 102.852 39.4204 100.643L61.5768 87.851L86.2987 102.124L57.2141 118.916L39.4204 108.643Z" stroke="white" stroke-opacity="0.03" stroke-width="0.839601"/>
<g filter="url(#filter8_b_1035_2419)">
<circle cx="2.5188" cy="2.5188" r="2.5188" transform="matrix(0.866025 -0.500001 0.866025 0.500001 84.1191 86.5916)" fill="white" fill-opacity="0.2"/>
</g>
<path d="M61.2146 87.6412L83.371 74.8491C87.3981 72.5241 93.9274 72.5241 97.9545 74.8491L97.2274 75.2689C93.6018 73.1757 87.7236 73.1757 84.0981 75.2689L61.9417 88.061L61.2146 87.6412ZM116.112 85.3323L86.6636 102.334L85.9365 101.914L114.658 85.3323H116.112ZM86.3 102.124L61.5781 87.8511L86.3 102.124ZM83.371 74.8491C87.3981 72.5241 93.9274 72.5241 97.9545 74.8491L116.112 85.3323H114.658L97.2274 75.2689C93.6018 73.1757 87.7236 73.1757 84.0981 75.2689L83.371 74.8491Z" fill="white" fill-opacity="0.03"/>
<g filter="url(#filter9_f_1035_2419)">
<rect width="33.584" height="28.5464" transform="matrix(0.866025 -0.500001 0.866025 0.500001 155.377 -3.24585)" stroke="white" stroke-opacity="0.5" stroke-width="0.4198"/>
</g>
<rect width="33.584" height="28.5464" transform="matrix(0.866025 -0.500001 0.866025 0.500001 155.377 -3.24585)" stroke="white" stroke-opacity="0.03" stroke-width="0.839601"/>
<g filter="url(#filter10_f_1035_2419)">
<path d="M233.555 41.895C229.729 39.6859 229.729 36.1042 233.555 33.895L255.712 21.103L280.433 35.3762L251.349 52.1683L233.555 41.895Z" stroke="white" stroke-opacity="0.5" stroke-width="0.4198"/>
</g>
<g filter="url(#filter11_f_1035_2419)">
<path d="M255.531 20.9981L316.952 -14.4632C320.878 -16.7303 327.245 -16.7303 331.172 -14.4632L330.808 -14.2533C327.082 -16.4045 321.041 -16.4045 317.315 -14.2533L255.895 21.208L255.531 20.9981ZM349.147 -4.08504L280.617 35.4812L280.253 35.2713L348.42 -4.08504H349.147ZM280.435 35.3763L255.713 21.103L280.435 35.3763ZM316.952 -14.4632C320.878 -16.7303 327.245 -16.7303 331.172 -14.4632L349.147 -4.08504H348.42L330.808 -14.2533C327.082 -16.4045 321.041 -16.4045 317.315 -14.2533L316.952 -14.4632Z" fill="white" fill-opacity="0.5"/>
</g>
<path d="M252.694 32.4585L260.626 37.0382L259.526 37.6732L249.677 36.6424L249.603 36.6848L255.421 40.0436L254.224 40.7345L246.292 36.1549L247.4 35.5153L257.261 36.5484L257.334 36.506L251.509 33.1428L252.694 32.4585Z" fill="white"/>
<path d="M233.555 41.895C229.729 39.6859 229.729 36.1042 233.555 33.895L255.712 21.103L280.433 35.3762L251.349 52.1683L233.555 41.895Z" stroke="white" stroke-opacity="0.03" stroke-width="0.839601"/>
<circle opacity="0.2" cx="2.5188" cy="2.5188" r="2.5188" transform="matrix(0.866025 -0.500001 0.866025 0.500001 280.436 18.5842)" fill="white"/>
<circle opacity="0.2" cx="2.5188" cy="2.5188" r="2.5188" transform="matrix(0.866025 -0.500001 0.866025 0.500001 292.068 11.8674)" fill="white"/>
<circle opacity="0.2" cx="2.5188" cy="2.5188" r="2.5188" transform="matrix(0.866025 -0.500001 0.866025 0.500001 303.703 5.15063)" fill="white"/>
<circle opacity="0.2" cx="2.5188" cy="2.5188" r="2.5188" transform="matrix(0.866025 -0.500001 0.866025 0.500001 315.336 -1.56616)" fill="white"/>
<path d="M255.349 20.8931L316.77 -14.5682C320.797 -16.8932 327.326 -16.8932 331.353 -14.5682L330.626 -14.1484C327.001 -16.2416 321.123 -16.2416 317.497 -14.1484L256.076 21.3129L255.349 20.8931ZM349.511 -4.08504L280.798 35.5862L280.071 35.1664L348.057 -4.08504H349.511ZM280.435 35.3763L255.713 21.103L280.435 35.3763ZM316.77 -14.5682C320.797 -16.8932 327.326 -16.8932 331.353 -14.5682L349.511 -4.08504H348.057L330.626 -14.1484C327.001 -16.2416 321.123 -16.2416 317.497 -14.1484L316.77 -14.5682Z" fill="white" fill-opacity="0.03"/>
<g filter="url(#filter12_f_1035_2419)">
<path d="M304.819 83.0352C300.992 80.826 300.992 77.2443 304.819 75.0352L326.975 62.2431L351.697 76.5163L322.613 93.3084L304.819 83.0352Z" stroke="white" stroke-opacity="0.5" stroke-width="0.4198"/>
</g>
<g filter="url(#filter13_f_1035_2419)">
<path d="M326.795 62.138L388.215 26.6767C392.142 24.4096 398.509 24.4096 402.435 26.6767L402.072 26.8866C398.346 24.7354 392.305 24.7354 388.579 26.8866L327.158 62.3479L326.795 62.138ZM420.411 37.0549L351.88 76.6211L351.517 76.4112L419.684 37.0549H420.411ZM351.698 76.5162L326.977 62.2429L351.698 76.5162ZM388.215 26.6767C392.142 24.4096 398.509 24.4096 402.435 26.6767L420.411 37.0549H419.684L402.072 26.8866C398.346 24.7354 392.305 24.7354 388.579 26.8866L388.215 26.6767Z" fill="white" fill-opacity="0.5"/>
</g>
<path d="M323.958 73.5986L331.89 78.1783L330.79 78.8134L320.941 77.7825L320.867 77.825L326.685 81.1837L325.488 81.8747L317.556 77.295L318.663 76.6555L328.524 77.6886L328.598 77.6461L322.773 74.2829L323.958 73.5986Z" fill="white"/>
<path d="M304.819 83.0352C300.992 80.826 300.992 77.2443 304.819 75.0352L326.975 62.2431L351.697 76.5163L322.613 93.3084L304.819 83.0352Z" stroke="white" stroke-opacity="0.03" stroke-width="0.839601"/>
<circle opacity="0.2" cx="2.5188" cy="2.5188" r="2.5188" transform="matrix(0.866025 -0.500001 0.866025 0.500001 351.699 59.7241)" fill="white"/>
<circle opacity="0.2" cx="2.5188" cy="2.5188" r="2.5188" transform="matrix(0.866025 -0.500001 0.866025 0.500001 363.332 53.0073)" fill="white"/>
<circle opacity="0.2" cx="2.5188" cy="2.5188" r="2.5188" transform="matrix(0.866025 -0.500001 0.866025 0.500001 374.967 46.2905)" fill="white"/>
<circle opacity="0.2" cx="2.5188" cy="2.5188" r="2.5188" transform="matrix(0.866025 -0.500001 0.866025 0.500001 386.6 39.5737)" fill="white"/>
<path d="M326.613 62.033L388.034 26.5717C392.061 24.2467 398.59 24.2467 402.617 26.5717L401.89 26.9915C398.264 24.8983 392.386 24.8983 388.761 26.9915L327.34 62.4528L326.613 62.033ZM420.774 37.0549L352.062 76.7261L351.335 76.3063L419.32 37.0549H420.774ZM351.698 76.5162L326.977 62.2429L351.698 76.5162ZM388.034 26.5717C392.061 24.2467 398.59 24.2467 402.617 26.5717L420.774 37.0549H419.32L401.89 26.9915C398.264 24.8983 392.386 24.8983 388.761 26.9915L388.034 26.5717Z" fill="white" fill-opacity="0.03"/>
<g filter="url(#filter14_f_1035_2419)">
<path d="M180.094 11.0283L209.178 -5.76372L180.094 11.0283ZM234.264 8.50951L211.926 21.4065C207.999 23.6736 201.632 23.6736 197.706 21.4065L198.069 21.1966C201.795 23.3478 207.836 23.3478 211.562 21.1966L233.537 8.50951H234.264ZM211.926 21.4065C207.999 23.6736 201.632 23.6736 197.706 21.4065L179.912 11.1333L180.276 10.9234L198.069 21.1966C201.795 23.3478 207.836 23.3478 211.562 21.1966L211.926 21.4065ZM209.36 -5.86867L234.264 8.50951H233.537L208.997 -5.65877L209.36 -5.86867Z" fill="white" fill-opacity="0.5"/>
</g>
<g filter="url(#filter15_f_1035_2419)">
<path d="M209.18 -5.76416L277.529 -45.2255L209.18 -5.76416ZM295.504 -35.0572C299.431 -32.7901 299.431 -29.1144 295.504 -26.8473L234.083 8.61403L233.72 8.40413L295.14 -27.0572C298.866 -29.2083 298.866 -32.6961 295.14 -34.8473L295.504 -35.0572ZM233.902 8.50908L209.18 -5.76416L233.902 8.50908ZM277.71 -45.3304L295.504 -35.0572C299.431 -32.7901 299.431 -29.1144 295.504 -26.8473L295.14 -27.0572C298.866 -29.2083 298.866 -32.6961 295.14 -34.8473L277.347 -45.1205L277.71 -45.3304Z" fill="white" fill-opacity="0.5"/>
</g>
<path d="M206.161 5.59181L214.093 10.1715L212.993 10.8065L203.144 9.77566L203.07 9.81815L208.888 13.1769L207.691 13.8678L199.759 9.28818L200.866 8.64864L210.727 9.68174L210.801 9.63925L204.976 6.27607L206.161 5.59181Z" fill="white"/>
<path d="M180.094 11.0283L209.178 -5.76372L233.9 8.50951L211.744 21.3015C207.918 23.5107 201.714 23.5107 197.887 21.3015L180.094 11.0283Z" stroke="white" stroke-opacity="0.03" stroke-width="0.839601"/>
<path d="M208.816 -5.97406L277.529 -45.6453L277.529 -44.8057L209.543 -5.55426L208.816 -5.97406ZM295.686 -35.1621C299.713 -32.8371 299.713 -29.0674 295.686 -26.7423L234.265 8.71898L233.538 8.29918L294.959 -27.1621C298.584 -29.2553 298.584 -32.6491 294.959 -34.7423L295.686 -35.1621ZM233.902 8.50908L209.18 -5.76416L233.902 8.50908ZM277.529 -45.6453L295.686 -35.1621C299.713 -32.8371 299.713 -29.0674 295.686 -26.7423L294.959 -27.1621C298.584 -29.2553 298.584 -32.6491 294.959 -34.7423L277.529 -44.8057L277.529 -45.6453Z" fill="white" fill-opacity="0.03"/>
<g filter="url(#filter16_f_1035_2419)">
<path d="M111.023 116.397L111.205 116.502L111.387 116.397L111.205 116.293L111.023 116.397ZM81.9387 133.189L81.7569 133.294L81.9387 133.399L82.1205 133.294L81.9387 133.189ZM86.1196 102.229L110.842 116.502L111.205 116.293L86.4832 102.019L86.1196 102.229ZM110.842 116.293L81.7569 133.085L82.1205 133.294L111.205 116.502L110.842 116.293ZM82.1205 133.085L57.3986 118.811L57.035 119.021L81.7569 133.294L82.1205 133.085Z" fill="white" fill-opacity="0.5"/>
</g>
<g filter="url(#filter17_f_1035_2419)">
<path d="M140.111 99.605L140.293 99.7099L140.475 99.605L140.293 99.5L140.111 99.605ZM115.208 85.4367L139.929 99.7099L140.293 99.5L115.571 85.2268L115.208 85.4367ZM139.929 99.5L110.845 116.292L111.208 116.502L140.293 99.7099L139.929 99.5Z" fill="white" fill-opacity="0.5"/>
</g>
<path d="M83.2841 113.48L91.2162 118.059L90.1163 118.694L80.2669 117.664L80.1933 117.706L86.0108 121.065L84.814 121.756L76.8818 117.176L77.9895 116.537L87.8505 117.57L87.9241 117.527L82.0989 114.164L83.2841 113.48Z" fill="white"/>
<rect width="33.584" height="28.5464" transform="matrix(0.866025 -0.500001 0.866025 0.500001 57.2168 118.916)" stroke="white" stroke-opacity="0.03" stroke-width="0.839601"/>
<g filter="url(#filter18_b_1035_2419)">
<circle cx="2.5188" cy="2.5188" r="2.5188" transform="matrix(0.866025 -0.500001 0.866025 0.500001 108.846 100.864)" fill="white" fill-opacity="0.2"/>
</g>
<path d="M115.389 85.3317L115.753 85.1218L115.389 84.9119L115.026 85.1218L115.389 85.3317ZM140.111 99.605L140.475 99.8149L140.838 99.605L140.475 99.3951L140.111 99.605ZM86.6682 102.334L115.753 85.5416L115.026 85.1218L85.9411 101.914L86.6682 102.334ZM115.026 85.5416L139.748 99.8149L140.475 99.3951L115.753 85.1218L115.026 85.5416ZM139.748 99.3951L110.663 116.187L111.39 116.607L140.475 99.8149L139.748 99.3951Z" fill="white" fill-opacity="0.03"/>
<g filter="url(#filter19_f_1035_2419)">
<path d="M251.35 52.168L280.434 35.3759L251.35 52.168ZM305.52 49.6492L283.182 62.5461C279.255 64.8133 272.888 64.8133 268.962 62.5461L269.325 62.3362C273.051 64.4874 279.092 64.4874 282.818 62.3362L304.793 49.6492H305.52ZM283.182 62.5461C279.255 64.8133 272.888 64.8133 268.962 62.5461L251.168 52.2729L251.531 52.063L269.325 62.3362C273.051 64.4874 279.092 64.4874 282.818 62.3362L283.182 62.5461ZM280.616 35.271L305.52 49.6492H304.793L280.252 35.4809L280.616 35.271Z" fill="white" fill-opacity="0.5"/>
</g>
<g filter="url(#filter20_f_1035_2419)">
<path d="M280.436 35.376L348.784 -4.08532L280.436 35.376ZM366.76 6.08296C370.687 8.35006 370.687 12.0258 366.76 14.2929L305.339 49.7542L304.976 49.5443L366.396 14.083C370.122 11.9318 370.122 8.44404 366.396 6.29286L366.76 6.08296ZM305.157 49.6492L280.436 35.376L305.157 49.6492ZM348.966 -4.19027L366.76 6.08296C370.687 8.35006 370.687 12.0258 366.76 14.2929L366.396 14.083C370.122 11.9318 370.122 8.44404 366.396 6.29286L348.603 -3.98037L348.966 -4.19027Z" fill="white" fill-opacity="0.5"/>
</g>
<path d="M277.417 46.7315L285.349 51.3111L284.249 51.9462L274.4 50.9153L274.326 50.9578L280.144 54.3165L278.947 55.0075L271.015 50.4278L272.122 49.7883L281.983 50.8214L282.057 50.7789L276.232 47.4157L277.417 46.7315Z" fill="white"/>
<path d="M251.35 52.168L280.434 35.3759L305.156 49.6492L283 62.4412C279.173 64.6503 272.97 64.6503 269.143 62.4412L251.35 52.168Z" stroke="white" stroke-opacity="0.03" stroke-width="0.839601"/>
<circle opacity="0.2" cx="2.5188" cy="2.5188" r="2.5188" transform="matrix(0.866025 -0.500001 0.866025 0.500001 305.158 32.8572)" fill="white"/>
<circle opacity="0.2" cx="2.5188" cy="2.5188" r="2.5188" transform="matrix(0.866025 -0.500001 0.866025 0.500001 316.791 26.1404)" fill="white"/>
<circle opacity="0.2" cx="2.5188" cy="2.5188" r="2.5188" transform="matrix(0.866025 -0.500001 0.866025 0.500001 328.426 19.4236)" fill="white"/>
<circle opacity="0.2" cx="2.5188" cy="2.5188" r="2.5188" transform="matrix(0.866025 -0.500001 0.866025 0.500001 340.059 12.7068)" fill="white"/>
<path d="M280.072 35.1661L348.784 -4.50512L348.784 -3.66552L280.799 35.5859L280.072 35.1661ZM366.942 5.97801C370.969 8.30307 370.969 12.0728 366.942 14.3978L305.521 49.8591L304.794 49.4393L366.215 13.978C369.84 11.8848 369.84 8.49102 366.215 6.39781L366.942 5.97801ZM305.157 49.6492L280.436 35.376L305.157 49.6492ZM348.784 -4.50512L366.942 5.97801C370.969 8.30307 370.969 12.0728 366.942 14.3978L366.215 13.978C369.84 11.8848 369.84 8.49102 366.215 6.39781L348.784 -3.66552L348.784 -4.50512Z" fill="white" fill-opacity="0.03"/>
<g filter="url(#filter21_f_1035_2419)">
<path d="M322.611 93.3086L351.696 76.5166L322.611 93.3086ZM376.781 90.7898L354.443 103.687C350.516 105.954 344.15 105.954 340.223 103.687L340.587 103.477C344.313 105.628 350.354 105.628 354.08 103.477L376.054 90.7898H376.781ZM354.443 103.687C350.516 105.954 344.15 105.954 340.223 103.687L322.43 93.4135L322.793 93.2036L340.587 103.477C344.313 105.628 350.354 105.628 354.08 103.477L354.443 103.687ZM351.878 76.4116L376.781 90.7898H376.054L351.514 76.6215L351.878 76.4116Z" fill="white" fill-opacity="0.5"/>
</g>
<g filter="url(#filter22_f_1035_2419)">
<path d="M351.697 76.5164L420.046 37.0551L351.697 76.5164ZM438.022 47.2233C441.948 49.4904 441.948 53.1661 438.022 55.4332L376.601 90.8945L376.237 90.6846L437.658 55.2233C441.384 53.0722 441.384 49.5844 437.658 47.4332L438.022 47.2233ZM376.419 90.7896L351.697 76.5164L376.419 90.7896ZM420.228 36.9501L438.022 47.2233C441.948 49.4904 441.948 53.1661 438.022 55.4332L437.658 55.2233C441.384 53.0722 441.384 49.5844 437.658 47.4332L419.864 37.16L420.228 36.9501Z" fill="white" fill-opacity="0.5"/>
</g>
<path d="M348.679 87.8721L356.611 92.4517L355.511 93.0868L345.661 92.0559L345.588 92.0984L351.405 95.4571L350.208 96.1481L342.276 91.5685L343.384 90.9289L353.245 91.962L353.319 91.9195L347.493 88.5563L348.679 87.8721Z" fill="white"/>
<path d="M322.611 93.3086L351.696 76.5166L376.418 90.7898L354.261 103.582C350.435 105.791 344.231 105.791 340.405 103.582L322.611 93.3086Z" stroke="white" stroke-opacity="0.03" stroke-width="0.839601"/>
<circle opacity="0.2" cx="2.5188" cy="2.5188" r="2.5188" transform="matrix(0.866025 -0.500001 0.866025 0.500001 376.42 73.9976)" fill="white"/>
<circle opacity="0.2" cx="2.5188" cy="2.5188" r="2.5188" transform="matrix(0.866025 -0.500001 0.866025 0.500001 388.053 67.2808)" fill="white"/>
<circle opacity="0.2" cx="2.5188" cy="2.5188" r="2.5188" transform="matrix(0.866025 -0.500001 0.866025 0.500001 399.688 60.564)" fill="white"/>
<circle opacity="0.2" cx="2.5188" cy="2.5188" r="2.5188" transform="matrix(0.866025 -0.500001 0.866025 0.500001 411.32 53.8472)" fill="white"/>
<path d="M351.334 76.3065L420.046 36.6353L420.046 37.4749L352.061 76.7263L351.334 76.3065ZM438.203 47.1184C442.231 49.4435 442.23 53.2131 438.203 55.5382L376.783 90.9995L376.056 90.5797L437.476 55.1184C441.102 53.0252 441.102 49.6314 437.476 47.5382L438.203 47.1184ZM376.419 90.7896L351.697 76.5164L376.419 90.7896ZM420.046 36.6353L438.203 47.1184C442.231 49.4435 442.23 53.2131 438.203 55.5382L437.476 55.1184C441.102 53.0252 441.102 49.6314 437.476 47.5382L420.046 37.4749L420.046 36.6353Z" fill="white" fill-opacity="0.03"/>
<g filter="url(#filter23_f_1035_2419)">
<path d="M135.748 130.671L135.93 130.776L136.111 130.671L135.93 130.566L135.748 130.671ZM106.663 147.463L106.482 147.568L106.663 147.673L106.845 147.568L106.663 147.463ZM110.844 116.503L135.566 130.776L135.93 130.566L111.208 116.293L110.844 116.503ZM135.566 130.566L106.482 147.358L106.845 147.568L135.93 130.776L135.566 130.566ZM106.845 147.358L82.1232 133.085L81.7596 133.295L106.482 147.568L106.845 147.358Z" fill="white" fill-opacity="0.5"/>
</g>
<g filter="url(#filter24_f_1035_2419)">
<path d="M164.834 113.879L165.016 113.984L165.197 113.879L165.016 113.774L164.834 113.879ZM139.93 99.7106L164.652 113.984L165.016 113.774L140.294 99.5007L139.93 99.7106ZM164.652 113.774L135.567 130.566L135.931 130.776L165.016 113.984L164.652 113.774Z" fill="white" fill-opacity="0.5"/>
</g>
<path d="M108.009 127.753L115.941 132.333L114.841 132.968L104.992 131.937L104.918 131.98L110.735 135.338L109.539 136.029L101.606 131.45L102.714 130.81L112.575 131.843L112.649 131.801L106.824 128.437L108.009 127.753Z" fill="white"/>
<rect width="33.584" height="28.5464" transform="matrix(0.866025 -0.500001 0.866025 0.500001 81.9414 133.19)" stroke="white" stroke-opacity="0.03" stroke-width="0.839601"/>
<g filter="url(#filter25_b_1035_2419)">
<circle cx="2.5188" cy="2.5188" r="2.5188" transform="matrix(0.866025 -0.500001 0.866025 0.500001 133.568 115.138)" fill="white" fill-opacity="0.2"/>
</g>
<path d="M140.112 99.6057L140.476 99.3958L140.112 99.1859L139.748 99.3958L140.112 99.6057ZM164.834 113.879L165.197 114.089L165.561 113.879L165.197 113.669L164.834 113.879ZM111.391 116.608L140.476 99.8156L139.748 99.3958L110.664 116.188L111.391 116.608ZM139.748 99.8156L164.47 114.089L165.197 113.669L140.476 99.3958L139.748 99.8156ZM164.47 113.669L135.386 130.461L136.113 130.881L165.197 114.089L164.47 113.669Z" fill="white" fill-opacity="0.03"/>
<g filter="url(#filter26_f_1035_2419)">
<path d="M160.465 144.944L160.647 145.049L160.828 144.944L160.647 144.839L160.465 144.944ZM131.38 161.736L131.198 161.841L131.38 161.946L131.562 161.841L131.38 161.736ZM135.561 130.776L160.283 145.049L160.647 144.839L135.925 130.566L135.561 130.776ZM160.283 144.839L131.198 161.631L131.562 161.841L160.647 145.049L160.283 144.839ZM131.562 161.631L106.84 147.358L106.476 147.568L131.198 161.841L131.562 161.631Z" fill="white" fill-opacity="0.5"/>
</g>
<g filter="url(#filter27_f_1035_2419)">
<path d="M189.551 128.152L189.732 128.257L189.914 128.152L189.732 128.047L189.551 128.152ZM164.647 113.984L189.369 128.257L189.732 128.047L165.011 113.774L164.647 113.984ZM189.369 128.047L160.284 144.839L160.648 145.049L189.732 128.257L189.369 128.047Z" fill="white" fill-opacity="0.5"/>
</g>
<path d="M132.725 142.026L140.658 146.606L139.558 147.241L129.708 146.21L129.635 146.252L135.452 149.611L134.255 150.302L126.323 145.723L127.431 145.083L137.292 146.116L137.365 146.074L131.54 142.71L132.725 142.026Z" fill="white"/>
<rect width="33.584" height="28.5464" transform="matrix(0.866025 -0.500001 0.866025 0.500001 106.658 147.463)" stroke="white" stroke-opacity="0.03" stroke-width="0.839601"/>
<g filter="url(#filter28_b_1035_2419)">
<circle cx="2.5188" cy="2.5188" r="2.5188" transform="matrix(0.866025 -0.500001 0.866025 0.500001 158.285 129.411)" fill="white" fill-opacity="0.2"/>
</g>
<path d="M164.829 113.879L165.192 113.669L164.829 113.459L164.465 113.669L164.829 113.879ZM189.551 128.152L189.914 128.362L190.278 128.152L189.914 127.942L189.551 128.152ZM136.108 130.881L165.192 114.089L164.465 113.669L135.381 130.461L136.108 130.881ZM164.465 114.089L189.187 128.362L189.914 127.942L165.192 113.669L164.465 114.089ZM189.187 127.942L160.103 144.734L160.83 145.154L189.914 128.362L189.187 127.942Z" fill="white" fill-opacity="0.03"/>
<g filter="url(#filter29_f_1035_2419)">
<path d="M184.459 158.797L184.641 158.902L184.822 158.797L184.641 158.692L184.459 158.797ZM155.374 175.589L155.192 175.694L155.374 175.799L155.556 175.694L155.374 175.589ZM159.555 144.629L184.277 158.902L184.641 158.692L159.919 144.419L159.555 144.629ZM184.277 158.692L155.192 175.484L155.556 175.694L184.641 158.902L184.277 158.692ZM155.556 175.484L130.834 161.211L130.471 161.421L155.192 175.694L155.556 175.484Z" fill="white" fill-opacity="0.5"/>
</g>
<g filter="url(#filter30_f_1035_2419)">
<path d="M213.545 142.005L213.727 142.11L213.908 142.005L213.727 141.9L213.545 142.005ZM188.641 127.837L213.363 142.11L213.727 141.9L189.005 127.627L188.641 127.837ZM213.363 141.9L184.278 158.692L184.642 158.902L213.727 142.11L213.363 141.9Z" fill="white" fill-opacity="0.5"/>
</g>
<path d="M156.72 155.879L164.652 160.459L163.552 161.094L153.702 160.063L153.629 160.106L159.446 163.464L158.25 164.155L150.317 159.576L151.425 158.936L161.286 159.969L161.36 159.927L155.534 156.564L156.72 155.879Z" fill="white"/>
<rect width="33.584" height="28.5464" transform="matrix(0.866025 -0.500001 0.866025 0.500001 130.652 161.316)" stroke="white" stroke-opacity="0.03" stroke-width="0.839601"/>
<g filter="url(#filter31_b_1035_2419)">
<circle cx="2.5188" cy="2.5188" r="2.5188" transform="matrix(0.866025 -0.500001 0.866025 0.500001 182.279 143.264)" fill="white" fill-opacity="0.2"/>
</g>
<path d="M188.823 127.732L189.186 127.522L188.823 127.312L188.459 127.522L188.823 127.732ZM213.545 142.005L213.908 142.215L214.272 142.005L213.908 141.795L213.545 142.005ZM160.102 144.734L189.186 127.942L188.459 127.522L159.375 144.314L160.102 144.734ZM188.459 127.942L213.181 142.215L213.908 141.795L189.186 127.522L188.459 127.942ZM213.181 141.795L184.097 158.587L184.824 159.007L213.908 142.215L213.181 141.795Z" fill="white" fill-opacity="0.03"/>
<g filter="url(#filter32_f_1035_2419)">
<path d="M155.373 175.589L184.458 158.797L155.373 175.589ZM209.543 173.071L187.205 185.968C183.278 188.235 176.912 188.235 172.985 185.968L173.349 185.758C177.074 187.909 183.115 187.909 186.841 185.758L208.816 173.071H209.543ZM187.205 185.968C183.278 188.235 176.912 188.235 172.985 185.968L155.191 175.694L155.555 175.484L173.349 185.758C177.074 187.909 183.115 187.909 186.841 185.758L187.205 185.968ZM184.639 158.692L209.543 173.071H208.816L184.276 158.902L184.639 158.692Z" fill="white" fill-opacity="0.5"/>
</g>
<g filter="url(#filter33_f_1035_2419)">
<path d="M184.459 158.798L213.544 142.006L184.459 158.798ZM231.519 152.174C235.446 154.441 235.446 158.117 231.519 160.384L209.363 173.176L208.999 172.966L231.156 160.174C234.881 158.023 234.881 154.535 231.156 152.384L231.519 152.174ZM209.181 173.071L184.459 158.798L209.181 173.071ZM213.725 141.901L231.519 152.174C235.446 154.441 235.446 158.117 231.519 160.384L231.156 160.174C234.881 158.023 234.881 154.535 231.156 152.384L213.362 142.111L213.725 141.901Z" fill="white" fill-opacity="0.5"/>
</g>
<path d="M181.44 170.153L189.372 174.732L188.273 175.368L178.423 174.337L178.35 174.379L184.167 177.738L182.97 178.429L175.038 173.849L176.146 173.21L186.007 174.243L186.08 174.2L180.255 170.837L181.44 170.153Z" fill="white"/>
<path d="M155.373 175.589L184.458 158.797L209.18 173.071L187.023 185.863C183.197 188.072 176.993 188.072 173.167 185.863L155.373 175.589Z" stroke="white" stroke-opacity="0.03" stroke-width="0.839601"/>
<g filter="url(#filter34_b_1035_2419)">
<circle cx="2.5188" cy="2.5188" r="2.5188" transform="matrix(0.866025 -0.500001 0.866025 0.500001 207 157.538)" fill="white" fill-opacity="0.2"/>
</g>
<path d="M184.095 158.588L213.544 141.586L213.544 142.425L184.823 159.008L184.095 158.588ZM231.701 152.069C235.728 154.394 235.728 158.164 231.701 160.489L209.544 173.281L208.817 172.861L230.974 160.069C234.599 157.976 234.599 154.582 230.974 152.489L231.701 152.069ZM209.181 173.071L184.459 158.798L209.181 173.071ZM213.544 141.586L231.701 152.069C235.728 154.394 235.728 158.164 231.701 160.489L230.974 160.069C234.599 157.976 234.599 154.582 230.974 152.489L213.544 142.425L213.544 141.586Z" fill="white" fill-opacity="0.03"/>
<defs>
<filter id="filter0_b_1035_2419" x="78.1172" y="65.021" width="240.316" height="39.7117" filterUnits="userSpaceOnUse" color-interpolation-filters="sRGB">
<feFlood flood-opacity="0" result="BackgroundImageFix"/>
<feGaussianBlur in="BackgroundImageFix" stdDeviation="5"/>
<feComposite in2="SourceAlpha" operator="in" result="effect1_backgroundBlur_1035_2419"/>
<feBlend mode="normal" in="SourceGraphic" in2="effect1_backgroundBlur_1035_2419" result="shape"/>
</filter>
<filter id="filter1_b_1035_2419" x="102.836" y="35.8708" width="144.701" height="75.2039" filterUnits="userSpaceOnUse" color-interpolation-filters="sRGB">
<feFlood flood-opacity="0" result="BackgroundImageFix"/>
<feGaussianBlur in="BackgroundImageFix" stdDeviation="5"/>
<feComposite in2="SourceAlpha" operator="in" result="effect1_backgroundBlur_1035_2419"/>
<feBlend mode="normal" in="SourceGraphic" in2="effect1_backgroundBlur_1035_2419" result="shape"/>
</filter>
<filter id="filter2_b_1035_2419" x="127.564" y="-5.47974" width="48.3574" height="130.828" filterUnits="userSpaceOnUse" color-interpolation-filters="sRGB">
<feFlood flood-opacity="0" result="BackgroundImageFix"/>
<feGaussianBlur in="BackgroundImageFix" stdDeviation="5"/>
<feComposite in2="SourceAlpha" operator="in" result="effect1_backgroundBlur_1035_2419"/>
<feBlend mode="normal" in="SourceGraphic" in2="effect1_backgroundBlur_1035_2419" result="shape"/>
</filter>
<filter id="filter3_b_1035_2419" x="152.496" y="91.2847" width="191.023" height="47.9253" filterUnits="userSpaceOnUse" color-interpolation-filters="sRGB">
<feFlood flood-opacity="0" result="BackgroundImageFix"/>
<feGaussianBlur in="BackgroundImageFix" stdDeviation="5"/>
<feComposite in2="SourceAlpha" operator="in" result="effect1_backgroundBlur_1035_2419"/>
<feBlend mode="normal" in="SourceGraphic" in2="effect1_backgroundBlur_1035_2419" result="shape"/>
</filter>
<filter id="filter4_b_1035_2419" x="165.834" y="8.58398" width="45.4395" height="144.891" filterUnits="userSpaceOnUse" color-interpolation-filters="sRGB">
<feFlood flood-opacity="0" result="BackgroundImageFix"/>
<feGaussianBlur in="BackgroundImageFix" stdDeviation="5"/>
<feComposite in2="SourceAlpha" operator="in" result="effect1_backgroundBlur_1035_2419"/>
<feBlend mode="normal" in="SourceGraphic" in2="effect1_backgroundBlur_1035_2419" result="shape"/>
</filter>
<filter id="filter5_b_1035_2419" x="200.996" y="49.7241" width="70.5352" height="118.024" filterUnits="userSpaceOnUse" color-interpolation-filters="sRGB">
<feFlood flood-opacity="0" result="BackgroundImageFix"/>
<feGaussianBlur in="BackgroundImageFix" stdDeviation="5"/>
<feComposite in2="SourceAlpha" operator="in" result="effect1_backgroundBlur_1035_2419"/>
<feBlend mode="normal" in="SourceGraphic" in2="effect1_backgroundBlur_1035_2419" result="shape"/>
</filter>
<filter id="filter6_f_1035_2419" x="35.4534" y="86.8015" width="52.0483" height="33.1643" filterUnits="userSpaceOnUse" color-interpolation-filters="sRGB">
<feFlood flood-opacity="0" result="BackgroundImageFix"/>
<feBlend mode="normal" in="SourceGraphic" in2="BackgroundImageFix" result="shape"/>
<feGaussianBlur stdDeviation="0.4198" result="effect1_foregroundBlur_1035_2419"/>
</filter>
<filter id="filter7_f_1035_2419" x="60.5569" y="72.4141" width="56.0308" height="30.6548" filterUnits="userSpaceOnUse" color-interpolation-filters="sRGB">
<feFlood flood-opacity="0" result="BackgroundImageFix"/>
<feBlend mode="normal" in="SourceGraphic" in2="BackgroundImageFix" result="shape"/>
<feGaussianBlur stdDeviation="0.4198" result="effect1_foregroundBlur_1035_2419"/>
</filter>
<filter id="filter8_b_1035_2419" x="76.3965" y="75.8105" width="24.1699" height="21.562" filterUnits="userSpaceOnUse" color-interpolation-filters="sRGB">
<feFlood flood-opacity="0" result="BackgroundImageFix"/>
<feGaussianBlur in="BackgroundImageFix" stdDeviation="4.5"/>
<feComposite in2="SourceAlpha" operator="in" result="effect1_backgroundBlur_1035_2419"/>
<feBlend mode="normal" in="SourceGraphic" in2="effect1_backgroundBlur_1035_2419" result="shape"/>
</filter>
<filter id="filter9_f_1035_2419" x="154.174" y="-21.0874" width="56.2124" height="33.1643" filterUnits="userSpaceOnUse" color-interpolation-filters="sRGB">
<feFlood flood-opacity="0" result="BackgroundImageFix"/>
<feBlend mode="normal" in="SourceGraphic" in2="BackgroundImageFix" result="shape"/>
<feGaussianBlur stdDeviation="0.4198" result="effect1_foregroundBlur_1035_2419"/>
</filter>
<filter id="filter10_f_1035_2419" x="229.588" y="20.0535" width="52.0483" height="33.1643" filterUnits="userSpaceOnUse" color-interpolation-filters="sRGB">
<feFlood flood-opacity="0" result="BackgroundImageFix"/>
<feBlend mode="normal" in="SourceGraphic" in2="BackgroundImageFix" result="shape"/>
<feGaussianBlur stdDeviation="0.4198" result="effect1_foregroundBlur_1035_2419"/>
</filter>
<filter id="filter11_f_1035_2419" x="254.692" y="-17.0032" width="95.2944" height="53.324" filterUnits="userSpaceOnUse" color-interpolation-filters="sRGB">
<feFlood flood-opacity="0" result="BackgroundImageFix"/>
<feBlend mode="normal" in="SourceGraphic" in2="BackgroundImageFix" result="shape"/>
<feGaussianBlur stdDeviation="0.4198" result="effect1_foregroundBlur_1035_2419"/>
</filter>
<filter id="filter12_f_1035_2419" x="300.852" y="61.1936" width="52.0483" height="33.1643" filterUnits="userSpaceOnUse" color-interpolation-filters="sRGB">
<feFlood flood-opacity="0" result="BackgroundImageFix"/>
<feBlend mode="normal" in="SourceGraphic" in2="BackgroundImageFix" result="shape"/>
<feGaussianBlur stdDeviation="0.4198" result="effect1_foregroundBlur_1035_2419"/>
</filter>
<filter id="filter13_f_1035_2419" x="325.955" y="24.1367" width="95.2944" height="53.324" filterUnits="userSpaceOnUse" color-interpolation-filters="sRGB">
<feFlood flood-opacity="0" result="BackgroundImageFix"/>
<feBlend mode="normal" in="SourceGraphic" in2="BackgroundImageFix" result="shape"/>
<feGaussianBlur stdDeviation="0.4198" result="effect1_foregroundBlur_1035_2419"/>
</filter>
<filter id="filter14_f_1035_2419" x="179.073" y="-6.70825" width="56.0308" height="30.6548" filterUnits="userSpaceOnUse" color-interpolation-filters="sRGB">
<feFlood flood-opacity="0" result="BackgroundImageFix"/>
<feBlend mode="normal" in="SourceGraphic" in2="BackgroundImageFix" result="shape"/>
<feGaussianBlur stdDeviation="0.4198" result="effect1_foregroundBlur_1035_2419"/>
</filter>
<filter id="filter15_f_1035_2419" x="208.34" y="-46.1699" width="90.9487" height="55.6235" filterUnits="userSpaceOnUse" color-interpolation-filters="sRGB">
<feFlood flood-opacity="0" result="BackgroundImageFix"/>
<feBlend mode="normal" in="SourceGraphic" in2="BackgroundImageFix" result="shape"/>
<feGaussianBlur stdDeviation="0.4198" result="effect1_foregroundBlur_1035_2419"/>
</filter>
<filter id="filter16_f_1035_2419" x="56.1956" y="101.18" width="56.0308" height="33.0593" filterUnits="userSpaceOnUse" color-interpolation-filters="sRGB">
<feFlood flood-opacity="0" result="BackgroundImageFix"/>
<feBlend mode="normal" in="SourceGraphic" in2="BackgroundImageFix" result="shape"/>
<feGaussianBlur stdDeviation="0.4198" result="effect1_foregroundBlur_1035_2419"/>
</filter>
<filter id="filter17_f_1035_2419" x="110.006" y="84.3872" width="31.3081" height="32.9543" filterUnits="userSpaceOnUse" color-interpolation-filters="sRGB">
<feFlood flood-opacity="0" result="BackgroundImageFix"/>
<feBlend mode="normal" in="SourceGraphic" in2="BackgroundImageFix" result="shape"/>
<feGaussianBlur stdDeviation="0.4198" result="effect1_foregroundBlur_1035_2419"/>
</filter>
<filter id="filter18_b_1035_2419" x="101.123" y="90.0833" width="24.1699" height="21.562" filterUnits="userSpaceOnUse" color-interpolation-filters="sRGB">
<feFlood flood-opacity="0" result="BackgroundImageFix"/>
<feGaussianBlur in="BackgroundImageFix" stdDeviation="4.5"/>
<feComposite in2="SourceAlpha" operator="in" result="effect1_backgroundBlur_1035_2419"/>
<feBlend mode="normal" in="SourceGraphic" in2="effect1_backgroundBlur_1035_2419" result="shape"/>
</filter>
<filter id="filter19_f_1035_2419" x="250.328" y="34.4314" width="56.0308" height="30.6548" filterUnits="userSpaceOnUse" color-interpolation-filters="sRGB">
<feFlood flood-opacity="0" result="BackgroundImageFix"/>
<feBlend mode="normal" in="SourceGraphic" in2="BackgroundImageFix" result="shape"/>
<feGaussianBlur stdDeviation="0.4198" result="effect1_foregroundBlur_1035_2419"/>
</filter>
<filter id="filter20_f_1035_2419" x="279.596" y="-5.02979" width="90.9487" height="55.6235" filterUnits="userSpaceOnUse" color-interpolation-filters="sRGB">
<feFlood flood-opacity="0" result="BackgroundImageFix"/>
<feBlend mode="normal" in="SourceGraphic" in2="BackgroundImageFix" result="shape"/>
<feGaussianBlur stdDeviation="0.4198" result="effect1_foregroundBlur_1035_2419"/>
</filter>
<filter id="filter21_f_1035_2419" x="321.59" y="75.572" width="56.0308" height="30.6548" filterUnits="userSpaceOnUse" color-interpolation-filters="sRGB">
<feFlood flood-opacity="0" result="BackgroundImageFix"/>
<feBlend mode="normal" in="SourceGraphic" in2="BackgroundImageFix" result="shape"/>
<feGaussianBlur stdDeviation="0.4198" result="effect1_foregroundBlur_1035_2419"/>
</filter>
<filter id="filter22_f_1035_2419" x="350.858" y="36.1106" width="90.9487" height="55.6235" filterUnits="userSpaceOnUse" color-interpolation-filters="sRGB">
<feFlood flood-opacity="0" result="BackgroundImageFix"/>
<feBlend mode="normal" in="SourceGraphic" in2="BackgroundImageFix" result="shape"/>
<feGaussianBlur stdDeviation="0.4198" result="effect1_foregroundBlur_1035_2419"/>
</filter>
<filter id="filter23_f_1035_2419" x="80.9202" y="115.453" width="56.0308" height="33.0593" filterUnits="userSpaceOnUse" color-interpolation-filters="sRGB">
<feFlood flood-opacity="0" result="BackgroundImageFix"/>
<feBlend mode="normal" in="SourceGraphic" in2="BackgroundImageFix" result="shape"/>
<feGaussianBlur stdDeviation="0.4198" result="effect1_foregroundBlur_1035_2419"/>
</filter>
<filter id="filter24_f_1035_2419" x="134.729" y="98.6611" width="31.3081" height="32.9543" filterUnits="userSpaceOnUse" color-interpolation-filters="sRGB">
<feFlood flood-opacity="0" result="BackgroundImageFix"/>
<feBlend mode="normal" in="SourceGraphic" in2="BackgroundImageFix" result="shape"/>
<feGaussianBlur stdDeviation="0.4198" result="effect1_foregroundBlur_1035_2419"/>
</filter>
<filter id="filter25_b_1035_2419" x="125.846" y="104.357" width="24.1699" height="21.562" filterUnits="userSpaceOnUse" color-interpolation-filters="sRGB">
<feFlood flood-opacity="0" result="BackgroundImageFix"/>
<feGaussianBlur in="BackgroundImageFix" stdDeviation="4.5"/>
<feComposite in2="SourceAlpha" operator="in" result="effect1_backgroundBlur_1035_2419"/>
<feBlend mode="normal" in="SourceGraphic" in2="effect1_backgroundBlur_1035_2419" result="shape"/>
</filter>
<filter id="filter26_f_1035_2419" x="105.637" y="129.726" width="56.0308" height="33.0593" filterUnits="userSpaceOnUse" color-interpolation-filters="sRGB">
<feFlood flood-opacity="0" result="BackgroundImageFix"/>
<feBlend mode="normal" in="SourceGraphic" in2="BackgroundImageFix" result="shape"/>
<feGaussianBlur stdDeviation="0.4198" result="effect1_foregroundBlur_1035_2419"/>
</filter>
<filter id="filter27_f_1035_2419" x="159.446" y="112.934" width="31.3081" height="32.9543" filterUnits="userSpaceOnUse" color-interpolation-filters="sRGB">
<feFlood flood-opacity="0" result="BackgroundImageFix"/>
<feBlend mode="normal" in="SourceGraphic" in2="BackgroundImageFix" result="shape"/>
<feGaussianBlur stdDeviation="0.4198" result="effect1_foregroundBlur_1035_2419"/>
</filter>
<filter id="filter28_b_1035_2419" x="150.562" y="118.63" width="24.1699" height="21.562" filterUnits="userSpaceOnUse" color-interpolation-filters="sRGB">
<feFlood flood-opacity="0" result="BackgroundImageFix"/>
<feGaussianBlur in="BackgroundImageFix" stdDeviation="4.5"/>
<feComposite in2="SourceAlpha" operator="in" result="effect1_backgroundBlur_1035_2419"/>
<feBlend mode="normal" in="SourceGraphic" in2="effect1_backgroundBlur_1035_2419" result="shape"/>
</filter>
<filter id="filter29_f_1035_2419" x="129.631" y="143.579" width="56.0308" height="33.0593" filterUnits="userSpaceOnUse" color-interpolation-filters="sRGB">
<feFlood flood-opacity="0" result="BackgroundImageFix"/>
<feBlend mode="normal" in="SourceGraphic" in2="BackgroundImageFix" result="shape"/>
<feGaussianBlur stdDeviation="0.4198" result="effect1_foregroundBlur_1035_2419"/>
</filter>
<filter id="filter30_f_1035_2419" x="183.44" y="126.787" width="31.3081" height="32.9543" filterUnits="userSpaceOnUse" color-interpolation-filters="sRGB">
<feFlood flood-opacity="0" result="BackgroundImageFix"/>
<feBlend mode="normal" in="SourceGraphic" in2="BackgroundImageFix" result="shape"/>
<feGaussianBlur stdDeviation="0.4198" result="effect1_foregroundBlur_1035_2419"/>
</filter>
<filter id="filter31_b_1035_2419" x="174.557" y="132.483" width="24.1699" height="21.562" filterUnits="userSpaceOnUse" color-interpolation-filters="sRGB">
<feFlood flood-opacity="0" result="BackgroundImageFix"/>
<feGaussianBlur in="BackgroundImageFix" stdDeviation="4.5"/>
<feComposite in2="SourceAlpha" operator="in" result="effect1_backgroundBlur_1035_2419"/>
<feBlend mode="normal" in="SourceGraphic" in2="effect1_backgroundBlur_1035_2419" result="shape"/>
</filter>
<filter id="filter32_f_1035_2419" x="154.352" y="157.853" width="56.0308" height="30.6548" filterUnits="userSpaceOnUse" color-interpolation-filters="sRGB">
<feFlood flood-opacity="0" result="BackgroundImageFix"/>
<feBlend mode="normal" in="SourceGraphic" in2="BackgroundImageFix" result="shape"/>
<feGaussianBlur stdDeviation="0.4198" result="effect1_foregroundBlur_1035_2419"/>
</filter>
<filter id="filter33_f_1035_2419" x="183.619" y="141.061" width="51.6851" height="32.9543" filterUnits="userSpaceOnUse" color-interpolation-filters="sRGB">
<feFlood flood-opacity="0" result="BackgroundImageFix"/>
<feBlend mode="normal" in="SourceGraphic" in2="BackgroundImageFix" result="shape"/>
<feGaussianBlur stdDeviation="0.4198" result="effect1_foregroundBlur_1035_2419"/>
</filter>
<filter id="filter34_b_1035_2419" x="199.277" y="146.757" width="24.1699" height="21.562" filterUnits="userSpaceOnUse" color-interpolation-filters="sRGB">
<feFlood flood-opacity="0" result="BackgroundImageFix"/>
<feGaussianBlur in="BackgroundImageFix" stdDeviation="4.5"/>
<feComposite in2="SourceAlpha" operator="in" result="effect1_backgroundBlur_1035_2419"/>
<feBlend mode="normal" in="SourceGraphic" in2="effect1_backgroundBlur_1035_2419" result="shape"/>
</filter>
</defs>
</svg>
