<svg width="495" height="200" viewBox="0 0 495 200" fill="none" xmlns="http://www.w3.org/2000/svg">
<g clip-path="url(#clip0_1035_2534)">
<g filter="url(#filter0_b_1035_2534)">
<path d="M107.113 166.46C118.033 160.155 147.718 175.76 159.228 169.114" stroke="white" stroke-opacity="0.2" stroke-width="2.65488"/>
</g>
<g filter="url(#filter1_b_1035_2534)">
<path d="M214.406 104.513C225.326 98.2079 255.011 113.813 266.521 107.167" stroke="white" stroke-opacity="0.2" stroke-width="2.65488"/>
</g>
<g filter="url(#filter2_b_1035_2534)">
<path d="M107.11 166.459C96.1899 172.764 123.219 189.902 111.708 196.548" stroke="white" stroke-opacity="0.2" stroke-width="2.65488"/>
</g>
<g filter="url(#filter3_b_1035_2534)">
<path d="M214.407 104.512C203.487 110.817 230.515 127.956 219.005 134.601" stroke="white" stroke-opacity="0.2" stroke-width="2.65488"/>
</g>
<g filter="url(#filter4_b_1035_2534)">
<path d="M132.015 29.9546C103.659 46.3264 149.642 76.8574 119.753 94.1141" stroke="white" stroke-opacity="0.2" stroke-width="2.65488"/>
</g>
<g filter="url(#filter5_b_1035_2534)">
<path d="M163.059 12.0344C191.416 -4.33735 244.297 22.2114 274.187 4.95471" stroke="white" stroke-opacity="0.2" stroke-width="2.65488"/>
</g>
<g filter="url(#filter6_b_1035_2534)">
<rect width="35.3984" height="30.0886" rx="15.0443" transform="matrix(0.866026 -0.5 0.866026 0.5 119.377 22.2112)" fill="white" fill-opacity="0.01"/>
<path d="M146.21 16.1096L154.571 20.9366L153.411 21.606L143.03 20.5195L142.952 20.5642L149.084 24.1044L147.823 24.8327L139.462 20.0056L140.629 19.3316L151.023 20.4205L151.101 20.3757L144.961 16.8308L146.21 16.1096Z" fill="white"/>
<rect width="35.3984" height="30.0886" rx="15.0443" transform="matrix(0.866026 -0.5 0.866026 0.5 119.377 22.2112)" stroke="#444444" stroke-width="2.65488"/>
</g>
<g filter="url(#filter7_b_1035_2534)">
<path d="M119.37 93.893C136.982 83.7242 188.174 110.806 206.739 100.088" stroke="white" stroke-opacity="0.2" stroke-width="2.65488"/>
</g>
<g filter="url(#filter8_b_1035_2534)">
<path d="M304.84 -13.1868C322.453 -23.3556 373.645 3.72633 392.21 -6.99211" stroke="white" stroke-opacity="0.2" stroke-width="2.65488"/>
</g>
<g filter="url(#filter9_b_1035_2534)">
<path d="M88.7086 111.592C71.0957 121.761 118.003 151.316 99.4381 162.035" stroke="white" stroke-opacity="0.2" stroke-width="2.65488"/>
</g>
<g filter="url(#filter10_b_1035_2534)">
<path d="M274.187 4.51202C256.574 14.6808 303.482 44.2362 284.917 54.9547" stroke="white" stroke-opacity="0.2" stroke-width="2.65488"/>
</g>
<g filter="url(#filter11_b_1035_2534)">
<path d="M392.209 -6.99214C378.118 1.14288 412.425 22.9288 397.573 31.5036" stroke="white" stroke-opacity="0.2" stroke-width="2.65488"/>
</g>
<g filter="url(#filter12_b_1035_2534)">
<path d="M284.914 54.9543C299.005 46.8193 336.739 66.6264 351.591 58.0517" stroke="white" stroke-opacity="0.2" stroke-width="2.65488"/>
</g>
<g filter="url(#filter13_b_1035_2534)">
<rect width="35.3984" height="30.0886" rx="15.0443" transform="matrix(0.866026 -0.5 0.866026 0.5 75.6875 104.07)" fill="white" fill-opacity="0.01"/>
<path d="M102.521 97.9682L110.881 102.795L109.722 103.465L99.3404 102.378L99.2629 102.423L105.395 105.963L104.133 106.691L95.7724 101.864L96.94 101.19L107.334 102.279L107.411 102.234L101.271 98.6895L102.521 97.9682Z" fill="white"/>
<rect width="35.3984" height="30.0886" rx="15.0443" transform="matrix(0.866026 -0.5 0.866026 0.5 75.6875 104.07)" stroke="#444444" stroke-width="2.65488"/>
</g>
<g filter="url(#filter14_b_1035_2534)">
<rect width="35.3984" height="30.0886" rx="15.0443" transform="matrix(0.866026 -0.5 0.866026 0.5 178.389 101.415)" fill="white" fill-opacity="0.01"/>
<path d="M205.222 95.3132L213.582 100.14L212.423 100.81L202.042 99.7231L201.964 99.7679L208.096 103.308L206.834 104.036L198.474 99.2093L199.641 98.5352L210.035 99.6241L210.112 99.5793L203.973 96.0344L205.222 95.3132Z" fill="white"/>
<rect width="35.3984" height="30.0886" rx="15.0443" transform="matrix(0.866026 -0.5 0.866026 0.5 178.389 101.415)" stroke="#444444" stroke-width="2.65488"/>
</g>
<g filter="url(#filter15_b_1035_2534)">
<rect width="35.3984" height="30.0886" rx="15.0443" transform="matrix(0.866026 -0.5 0.866026 0.5 261.148 -3.01001)" fill="white" fill-opacity="0.01"/>
<rect width="35.3984" height="30.0886" rx="15.0443" transform="matrix(0.866026 -0.5 0.866026 0.5 261.148 -3.01001)" stroke="#444444" stroke-width="2.65488"/>
</g>
<g filter="url(#filter16_b_1035_2534)">
<rect width="35.3984" height="30.0886" rx="15.0443" transform="matrix(0.866026 -0.5 0.866026 0.5 256.557 56.282)" fill="white" fill-opacity="0.01"/>
<path d="M283.39 50.1804L291.75 55.0074L290.591 55.6768L280.21 54.5903L280.132 54.635L286.264 58.1752L285.002 58.9035L276.642 54.0764L277.809 53.4024L288.203 54.4913L288.28 54.4465L282.141 50.9016L283.39 50.1804Z" fill="white"/>
<rect width="35.3984" height="30.0886" rx="15.0443" transform="matrix(0.866026 -0.5 0.866026 0.5 256.557 56.282)" stroke="#444444" stroke-width="2.65488"/>
</g>
<g filter="url(#filter17_b_1035_2534)">
<rect width="35.3984" height="30.0886" rx="15.0443" transform="matrix(0.866026 -0.5 0.866026 0.5 382.244 40.3525)" fill="white" fill-opacity="0.01"/>
<path d="M409.077 34.251L417.438 39.078L416.279 39.7474L405.897 38.6608L405.82 38.7056L411.951 42.2458L410.69 42.9741L402.329 38.147L403.497 37.4729L413.89 38.5618L413.968 38.517L407.828 34.9722L409.077 34.251Z" fill="white"/>
<rect width="35.3984" height="30.0886" rx="15.0443" transform="matrix(0.866026 -0.5 0.866026 0.5 382.244 40.3525)" stroke="#444444" stroke-width="2.65488"/>
</g>
<g filter="url(#filter18_b_1035_2534)">
<rect width="35.3984" height="30.0886" rx="15.0443" transform="matrix(0.866026 -0.5 0.866026 0.5 336.26 66.9019)" fill="white" fill-opacity="0.01"/>
<path d="M363.093 60.8003L371.454 65.6273L370.294 66.2967L359.913 65.2101L359.835 65.2549L365.967 68.7951L364.705 69.5234L356.345 64.6963L357.512 64.0222L367.906 65.1111L367.984 65.0664L361.844 61.5215L363.093 60.8003Z" fill="white"/>
<rect width="35.3984" height="30.0886" rx="15.0443" transform="matrix(0.866026 -0.5 0.866026 0.5 336.26 66.9019)" stroke="#444444" stroke-width="2.65488"/>
</g>
<g filter="url(#filter19_b_1035_2534)">
<rect width="35.3984" height="30.0886" rx="15.0443" transform="matrix(0.866026 -0.5 0.866026 0.5 363.852 -5.66479)" fill="white" fill-opacity="0.01"/>
<rect width="35.3984" height="30.0886" rx="15.0443" transform="matrix(0.866026 -0.5 0.866026 0.5 363.852 -5.66479)" stroke="#444444" stroke-width="2.65488"/>
</g>
<g filter="url(#filter20_b_1035_2534)">
<rect width="35.3984" height="30.0886" rx="15.0443" transform="matrix(0.866026 -0.5 0.866026 0.5 250.426 116.459)" fill="white" fill-opacity="0.01"/>
<path d="M277.259 110.358L285.62 115.185L284.46 115.854L274.079 114.768L274.001 114.813L280.133 118.353L278.871 119.081L270.511 114.254L271.678 113.58L282.072 114.669L282.15 114.624L276.01 111.079L277.259 110.358Z" fill="white"/>
<rect width="35.3984" height="30.0886" rx="15.0443" transform="matrix(0.866026 -0.5 0.866026 0.5 250.426 116.459)" stroke="#444444" stroke-width="2.65488"/>
</g>
<g filter="url(#filter21_b_1035_2534)">
<rect width="35.3984" height="30.0886" rx="15.0443" transform="matrix(0.866026 -0.5 0.866026 0.5 204.438 143.008)" fill="white" fill-opacity="0.01"/>
<path d="M231.271 136.907L239.631 141.734L238.472 142.403L228.09 141.317L228.013 141.361L234.145 144.902L232.883 145.63L224.522 140.803L225.69 140.129L236.084 141.218L236.161 141.173L230.021 137.628L231.271 136.907Z" fill="white"/>
<rect width="35.3984" height="30.0886" rx="15.0443" transform="matrix(0.866026 -0.5 0.866026 0.5 204.438 143.008)" stroke="#444444" stroke-width="2.65488"/>
</g>
<g filter="url(#filter22_b_1035_2534)">
<rect width="35.3984" height="30.0886" rx="15.0443" transform="matrix(0.866026 -0.5 0.866026 0.5 97.1465 204.955)" fill="white" fill-opacity="0.01"/>
<path d="M123.98 198.853L132.34 203.68L131.181 204.35L120.799 203.263L120.722 203.308L126.854 206.848L125.592 207.576L117.231 202.749L118.399 202.075L128.793 203.164L128.87 203.119L122.73 199.574L123.98 198.853Z" fill="white"/>
<rect width="35.3984" height="30.0886" rx="15.0443" transform="matrix(0.866026 -0.5 0.866026 0.5 97.1465 204.955)" stroke="#444444" stroke-width="2.65488"/>
</g>
<g filter="url(#filter23_b_1035_2534)">
<rect width="35.3984" height="30.0886" rx="15.0443" transform="matrix(0.866026 -0.5 0.866026 0.5 143.131 178.406)" fill="white" fill-opacity="0.01"/>
<path d="M169.964 172.305L178.325 177.132L177.165 177.801L166.784 176.715L166.706 176.76L172.838 180.3L171.577 181.028L163.216 176.201L164.383 175.527L174.777 176.616L174.855 176.571L168.715 173.026L169.964 172.305Z" fill="white"/>
<rect width="35.3984" height="30.0886" rx="15.0443" transform="matrix(0.866026 -0.5 0.866026 0.5 143.131 178.406)" stroke="#444444" stroke-width="2.65488"/>
</g>
<g filter="url(#filter24_b_1035_2534)">
<rect width="35.3984" height="30.0886" rx="15.0443" transform="matrix(0.866026 -0.5 0.866026 0.5 71.0879 163.362)" fill="white" fill-opacity="0.01"/>
<path d="M97.921 157.261L106.282 162.088L105.122 162.757L94.7408 161.671L94.6633 161.715L100.795 165.256L99.5335 165.984L91.1728 161.157L92.3404 160.483L102.734 161.572L102.812 161.527L96.6718 157.982L97.921 157.261Z" fill="white"/>
<rect width="35.3984" height="30.0886" rx="15.0443" transform="matrix(0.866026 -0.5 0.866026 0.5 71.0879 163.362)" stroke="#444444" stroke-width="2.65488"/>
</g>
</g>
<defs>
<filter id="filter0_b_1035_2534" x="102.423" y="160.448" width="61.4937" height="14.828" filterUnits="userSpaceOnUse" color-interpolation-filters="sRGB">
<feFlood flood-opacity="0" result="BackgroundImageFix"/>
<feGaussianBlur in="BackgroundImageFix" stdDeviation="1.76992"/>
<feComposite in2="SourceAlpha" operator="in" result="effect1_backgroundBlur_1035_2534"/>
<feBlend mode="normal" in="SourceGraphic" in2="effect1_backgroundBlur_1035_2534" result="shape"/>
</filter>
<filter id="filter1_b_1035_2534" x="209.716" y="98.5009" width="61.4937" height="14.828" filterUnits="userSpaceOnUse" color-interpolation-filters="sRGB">
<feFlood flood-opacity="0" result="BackgroundImageFix"/>
<feGaussianBlur in="BackgroundImageFix" stdDeviation="1.76992"/>
<feComposite in2="SourceAlpha" operator="in" result="effect1_backgroundBlur_1035_2534"/>
<feBlend mode="normal" in="SourceGraphic" in2="effect1_backgroundBlur_1035_2534" result="shape"/>
</filter>
<filter id="filter2_b_1035_2534" x="99.2883" y="162.256" width="20.5016" height="38.4957" filterUnits="userSpaceOnUse" color-interpolation-filters="sRGB">
<feFlood flood-opacity="0" result="BackgroundImageFix"/>
<feGaussianBlur in="BackgroundImageFix" stdDeviation="1.76992"/>
<feComposite in2="SourceAlpha" operator="in" result="effect1_backgroundBlur_1035_2534"/>
<feBlend mode="normal" in="SourceGraphic" in2="effect1_backgroundBlur_1035_2534" result="shape"/>
</filter>
<filter id="filter3_b_1035_2534" x="206.585" y="100.309" width="20.5016" height="38.4957" filterUnits="userSpaceOnUse" color-interpolation-filters="sRGB">
<feFlood flood-opacity="0" result="BackgroundImageFix"/>
<feGaussianBlur in="BackgroundImageFix" stdDeviation="1.76992"/>
<feComposite in2="SourceAlpha" operator="in" result="effect1_backgroundBlur_1035_2534"/>
<feBlend mode="normal" in="SourceGraphic" in2="effect1_backgroundBlur_1035_2534" result="shape"/>
</filter>
<filter id="filter4_b_1035_2534" x="115.064" y="25.7512" width="21.6402" height="72.5665" filterUnits="userSpaceOnUse" color-interpolation-filters="sRGB">
<feFlood flood-opacity="0" result="BackgroundImageFix"/>
<feGaussianBlur in="BackgroundImageFix" stdDeviation="1.76992"/>
<feComposite in2="SourceAlpha" operator="in" result="effect1_backgroundBlur_1035_2534"/>
<feBlend mode="normal" in="SourceGraphic" in2="effect1_backgroundBlur_1035_2534" result="shape"/>
</filter>
<filter id="filter5_b_1035_2534" x="158.37" y="0.751177" width="120.505" height="15.4867" filterUnits="userSpaceOnUse" color-interpolation-filters="sRGB">
<feFlood flood-opacity="0" result="BackgroundImageFix"/>
<feGaussianBlur in="BackgroundImageFix" stdDeviation="1.76992"/>
<feComposite in2="SourceAlpha" operator="in" result="effect1_backgroundBlur_1035_2534"/>
<feBlend mode="normal" in="SourceGraphic" in2="effect1_backgroundBlur_1035_2534" result="shape"/>
</filter>
<filter id="filter6_b_1035_2534" x="101.678" y="-13.1872" width="92.1113" height="68.1418" filterUnits="userSpaceOnUse" color-interpolation-filters="sRGB">
<feFlood flood-opacity="0" result="BackgroundImageFix"/>
<feGaussianBlur in="BackgroundImageFix" stdDeviation="8.8496"/>
<feComposite in2="SourceAlpha" operator="in" result="effect1_backgroundBlur_1035_2534"/>
<feBlend mode="normal" in="SourceGraphic" in2="effect1_backgroundBlur_1035_2534" result="shape"/>
</filter>
<filter id="filter7_b_1035_2534" x="114.681" y="87.0866" width="96.7476" height="20.0367" filterUnits="userSpaceOnUse" color-interpolation-filters="sRGB">
<feFlood flood-opacity="0" result="BackgroundImageFix"/>
<feGaussianBlur in="BackgroundImageFix" stdDeviation="1.76992"/>
<feComposite in2="SourceAlpha" operator="in" result="effect1_backgroundBlur_1035_2534"/>
<feBlend mode="normal" in="SourceGraphic" in2="effect1_backgroundBlur_1035_2534" result="shape"/>
</filter>
<filter id="filter8_b_1035_2534" x="300.152" y="-19.9932" width="96.7476" height="20.0367" filterUnits="userSpaceOnUse" color-interpolation-filters="sRGB">
<feFlood flood-opacity="0" result="BackgroundImageFix"/>
<feGaussianBlur in="BackgroundImageFix" stdDeviation="1.76992"/>
<feComposite in2="SourceAlpha" operator="in" result="effect1_backgroundBlur_1035_2534"/>
<feBlend mode="normal" in="SourceGraphic" in2="effect1_backgroundBlur_1035_2534" result="shape"/>
</filter>
<filter id="filter9_b_1035_2534" x="79.5109" y="107.388" width="29.5211" height="58.8497" filterUnits="userSpaceOnUse" color-interpolation-filters="sRGB">
<feFlood flood-opacity="0" result="BackgroundImageFix"/>
<feGaussianBlur in="BackgroundImageFix" stdDeviation="1.76992"/>
<feComposite in2="SourceAlpha" operator="in" result="effect1_backgroundBlur_1035_2534"/>
<feBlend mode="normal" in="SourceGraphic" in2="effect1_backgroundBlur_1035_2534" result="shape"/>
</filter>
<filter id="filter10_b_1035_2534" x="264.989" y="0.30855" width="29.5211" height="58.8497" filterUnits="userSpaceOnUse" color-interpolation-filters="sRGB">
<feFlood flood-opacity="0" result="BackgroundImageFix"/>
<feGaussianBlur in="BackgroundImageFix" stdDeviation="1.76992"/>
<feComposite in2="SourceAlpha" operator="in" result="effect1_backgroundBlur_1035_2534"/>
<feBlend mode="normal" in="SourceGraphic" in2="effect1_backgroundBlur_1035_2534" result="shape"/>
</filter>
<filter id="filter11_b_1035_2534" x="383.57" y="-11.1956" width="22.982" height="46.9027" filterUnits="userSpaceOnUse" color-interpolation-filters="sRGB">
<feFlood flood-opacity="0" result="BackgroundImageFix"/>
<feGaussianBlur in="BackgroundImageFix" stdDeviation="1.76992"/>
<feComposite in2="SourceAlpha" operator="in" result="effect1_backgroundBlur_1035_2534"/>
<feBlend mode="normal" in="SourceGraphic" in2="effect1_backgroundBlur_1035_2534" result="shape"/>
</filter>
<filter id="filter12_b_1035_2534" x="280.226" y="48.4707" width="76.0543" height="16.2603" filterUnits="userSpaceOnUse" color-interpolation-filters="sRGB">
<feFlood flood-opacity="0" result="BackgroundImageFix"/>
<feGaussianBlur in="BackgroundImageFix" stdDeviation="1.76992"/>
<feComposite in2="SourceAlpha" operator="in" result="effect1_backgroundBlur_1035_2534"/>
<feBlend mode="normal" in="SourceGraphic" in2="effect1_backgroundBlur_1035_2534" result="shape"/>
</filter>
<filter id="filter13_b_1035_2534" x="57.9883" y="68.6714" width="92.1113" height="68.1418" filterUnits="userSpaceOnUse" color-interpolation-filters="sRGB">
<feFlood flood-opacity="0" result="BackgroundImageFix"/>
<feGaussianBlur in="BackgroundImageFix" stdDeviation="8.8496"/>
<feComposite in2="SourceAlpha" operator="in" result="effect1_backgroundBlur_1035_2534"/>
<feBlend mode="normal" in="SourceGraphic" in2="effect1_backgroundBlur_1035_2534" result="shape"/>
</filter>
<filter id="filter14_b_1035_2534" x="160.689" y="66.0164" width="92.1113" height="68.1418" filterUnits="userSpaceOnUse" color-interpolation-filters="sRGB">
<feFlood flood-opacity="0" result="BackgroundImageFix"/>
<feGaussianBlur in="BackgroundImageFix" stdDeviation="8.8496"/>
<feComposite in2="SourceAlpha" operator="in" result="effect1_backgroundBlur_1035_2534"/>
<feBlend mode="normal" in="SourceGraphic" in2="effect1_backgroundBlur_1035_2534" result="shape"/>
</filter>
<filter id="filter15_b_1035_2534" x="243.449" y="-38.4084" width="92.1113" height="68.1418" filterUnits="userSpaceOnUse" color-interpolation-filters="sRGB">
<feFlood flood-opacity="0" result="BackgroundImageFix"/>
<feGaussianBlur in="BackgroundImageFix" stdDeviation="8.8496"/>
<feComposite in2="SourceAlpha" operator="in" result="effect1_backgroundBlur_1035_2534"/>
<feBlend mode="normal" in="SourceGraphic" in2="effect1_backgroundBlur_1035_2534" result="shape"/>
</filter>
<filter id="filter16_b_1035_2534" x="238.857" y="20.8836" width="92.1113" height="68.1418" filterUnits="userSpaceOnUse" color-interpolation-filters="sRGB">
<feFlood flood-opacity="0" result="BackgroundImageFix"/>
<feGaussianBlur in="BackgroundImageFix" stdDeviation="8.8496"/>
<feComposite in2="SourceAlpha" operator="in" result="effect1_backgroundBlur_1035_2534"/>
<feBlend mode="normal" in="SourceGraphic" in2="effect1_backgroundBlur_1035_2534" result="shape"/>
</filter>
<filter id="filter17_b_1035_2534" x="364.545" y="4.95413" width="92.1113" height="68.1418" filterUnits="userSpaceOnUse" color-interpolation-filters="sRGB">
<feFlood flood-opacity="0" result="BackgroundImageFix"/>
<feGaussianBlur in="BackgroundImageFix" stdDeviation="8.8496"/>
<feComposite in2="SourceAlpha" operator="in" result="effect1_backgroundBlur_1035_2534"/>
<feBlend mode="normal" in="SourceGraphic" in2="effect1_backgroundBlur_1035_2534" result="shape"/>
</filter>
<filter id="filter18_b_1035_2534" x="318.561" y="31.5034" width="92.1113" height="68.1418" filterUnits="userSpaceOnUse" color-interpolation-filters="sRGB">
<feFlood flood-opacity="0" result="BackgroundImageFix"/>
<feGaussianBlur in="BackgroundImageFix" stdDeviation="8.8496"/>
<feComposite in2="SourceAlpha" operator="in" result="effect1_backgroundBlur_1035_2534"/>
<feBlend mode="normal" in="SourceGraphic" in2="effect1_backgroundBlur_1035_2534" result="shape"/>
</filter>
<filter id="filter19_b_1035_2534" x="346.152" y="-41.0632" width="92.1113" height="68.1418" filterUnits="userSpaceOnUse" color-interpolation-filters="sRGB">
<feFlood flood-opacity="0" result="BackgroundImageFix"/>
<feGaussianBlur in="BackgroundImageFix" stdDeviation="8.8496"/>
<feComposite in2="SourceAlpha" operator="in" result="effect1_backgroundBlur_1035_2534"/>
<feBlend mode="normal" in="SourceGraphic" in2="effect1_backgroundBlur_1035_2534" result="shape"/>
</filter>
<filter id="filter20_b_1035_2534" x="232.727" y="81.0611" width="92.1113" height="68.1418" filterUnits="userSpaceOnUse" color-interpolation-filters="sRGB">
<feFlood flood-opacity="0" result="BackgroundImageFix"/>
<feGaussianBlur in="BackgroundImageFix" stdDeviation="8.8496"/>
<feComposite in2="SourceAlpha" operator="in" result="effect1_backgroundBlur_1035_2534"/>
<feBlend mode="normal" in="SourceGraphic" in2="effect1_backgroundBlur_1035_2534" result="shape"/>
</filter>
<filter id="filter21_b_1035_2534" x="186.738" y="107.61" width="92.1113" height="68.1418" filterUnits="userSpaceOnUse" color-interpolation-filters="sRGB">
<feFlood flood-opacity="0" result="BackgroundImageFix"/>
<feGaussianBlur in="BackgroundImageFix" stdDeviation="8.8496"/>
<feComposite in2="SourceAlpha" operator="in" result="effect1_backgroundBlur_1035_2534"/>
<feBlend mode="normal" in="SourceGraphic" in2="effect1_backgroundBlur_1035_2534" result="shape"/>
</filter>
<filter id="filter22_b_1035_2534" x="79.4473" y="169.556" width="92.1113" height="68.1418" filterUnits="userSpaceOnUse" color-interpolation-filters="sRGB">
<feFlood flood-opacity="0" result="BackgroundImageFix"/>
<feGaussianBlur in="BackgroundImageFix" stdDeviation="8.8496"/>
<feComposite in2="SourceAlpha" operator="in" result="effect1_backgroundBlur_1035_2534"/>
<feBlend mode="normal" in="SourceGraphic" in2="effect1_backgroundBlur_1035_2534" result="shape"/>
</filter>
<filter id="filter23_b_1035_2534" x="125.432" y="143.008" width="92.1113" height="68.1418" filterUnits="userSpaceOnUse" color-interpolation-filters="sRGB">
<feFlood flood-opacity="0" result="BackgroundImageFix"/>
<feGaussianBlur in="BackgroundImageFix" stdDeviation="8.8496"/>
<feComposite in2="SourceAlpha" operator="in" result="effect1_backgroundBlur_1035_2534"/>
<feBlend mode="normal" in="SourceGraphic" in2="effect1_backgroundBlur_1035_2534" result="shape"/>
</filter>
<filter id="filter24_b_1035_2534" x="53.3887" y="127.964" width="92.1113" height="68.1418" filterUnits="userSpaceOnUse" color-interpolation-filters="sRGB">
<feFlood flood-opacity="0" result="BackgroundImageFix"/>
<feGaussianBlur in="BackgroundImageFix" stdDeviation="8.8496"/>
<feComposite in2="SourceAlpha" operator="in" result="effect1_backgroundBlur_1035_2534"/>
<feBlend mode="normal" in="SourceGraphic" in2="effect1_backgroundBlur_1035_2534" result="shape"/>
</filter>
<clipPath id="clip0_1035_2534">
<rect width="495" height="200" fill="white"/>
</clipPath>
</defs>
</svg>
