<svg width="24" height="24" viewBox="0 0 24 24" fill="none" xmlns="http://www.w3.org/2000/svg">
<path fill-rule="evenodd" clip-rule="evenodd" d="M11.9989 0.479996C5.47736 0.479996 0.188477 5.76816 0.188477 12.2919C0.188477 17.5105 3.57252 21.9372 8.26611 23.4991C8.85706 23.6078 9.07242 23.2431 9.07242 22.9299C9.07242 22.65 9.06227 21.9067 9.05646 20.9213C5.77103 21.6348 5.07783 19.3377 5.07783 19.3377C4.54053 17.9731 3.76612 17.6098 3.76612 17.6098C2.6937 16.8774 3.84733 16.8919 3.84733 16.8919C5.03287 16.9753 5.65646 18.1094 5.65646 18.1094C6.71003 19.9142 8.42128 19.3928 9.09417 19.0905C9.20149 18.3276 9.50675 17.807 9.84392 17.5119C7.22123 17.2139 4.46367 16.2002 4.46367 11.6741C4.46367 10.3849 4.92411 9.32986 5.67967 8.50469C5.55785 8.20595 5.15251 7.00446 5.79568 5.37878C5.79568 5.37878 6.78689 5.06119 9.04341 6.5897C9.98532 6.32721 10.9961 6.1967 12.0004 6.19162C13.0039 6.1967 14.014 6.32721 14.9573 6.5897C17.2124 5.06119 18.2022 5.37878 18.2022 5.37878C18.8468 7.00446 18.4415 8.20595 18.3204 8.50469C19.0774 9.32986 19.5342 10.3849 19.5342 11.6741C19.5342 16.2118 16.7723 17.2103 14.1416 17.5025C14.5651 17.8672 14.9428 18.588 14.9428 19.6901C14.9428 21.2687 14.9283 22.5427 14.9283 22.9299C14.9283 23.246 15.1415 23.6136 15.7405 23.4983C20.4304 21.9328 23.8116 17.509 23.8116 12.2919C23.8116 5.76816 18.5227 0.479996 11.9989 0.479996Z" fill="white"/>
</svg>
