<svg width="28" height="33" viewBox="0 0 28 33" fill="none" xmlns="http://www.w3.org/2000/svg">
<path d="M13.3711 32.0977C13.9089 32.0977 14.5332 31.8971 15.2441 31.4961L25.8945 25.3711C26.3594 25.0977 26.724 24.8242 26.9883 24.5508C27.2526 24.2682 27.4395 23.9401 27.5488 23.5664C27.6673 23.1836 27.7266 22.7142 27.7266 22.1582V9.85352C27.7266 8.96029 27.5625 8.28581 27.2344 7.83008C26.9154 7.36523 26.4642 7.13281 25.8809 7.13281C25.3613 7.13281 24.7552 7.32878 24.0625 7.7207L13.4121 13.873C12.929 14.1556 12.5508 14.4382 12.2773 14.7207C12.013 15.0033 11.8262 15.3314 11.7168 15.7051C11.6074 16.0788 11.5527 16.5391 11.5527 17.0859V29.377C11.5527 30.252 11.7077 30.9219 12.0176 31.3867C12.3366 31.8607 12.7878 32.0977 13.3711 32.0977ZM7.49219 28.748C7.80208 28.748 8.11198 28.6523 8.42188 28.4609V14.0508C8.42188 13.7865 8.4401 13.5814 8.47656 13.4355C8.52214 13.2806 8.59961 13.1484 8.70898 13.0391C8.81836 12.9297 8.98698 12.8158 9.21484 12.6973L21.7109 5.47852C21.7018 4.94987 21.5469 4.53516 21.2461 4.23438C20.9453 3.92448 20.5579 3.76953 20.084 3.76953C19.6556 3.76953 19.2044 3.90169 18.7305 4.16602L7.45117 10.6738C6.9681 10.9473 6.60807 11.1934 6.37109 11.4121C6.13411 11.6309 5.97917 11.8997 5.90625 12.2188C5.83333 12.5286 5.79688 12.9661 5.79688 13.5312L5.7832 26.4238C5.7832 27.1074 5.94271 27.6634 6.26172 28.0918C6.58984 28.5293 7 28.748 7.49219 28.748ZM1.96875 25.5488C2.27865 25.5488 2.58854 25.4531 2.89844 25.2617V10.8516C2.89844 10.5964 2.91667 10.3958 2.95312 10.25C2.98958 10.0951 3.0625 9.96289 3.17188 9.85352C3.29036 9.73503 3.45898 9.61654 3.67773 9.49805L16.1738 2.29297C16.1738 1.75521 16.0189 1.33594 15.709 1.03516C15.3991 0.734375 15.0208 0.583984 14.5742 0.583984C14.3555 0.583984 14.1322 0.620443 13.9043 0.693359C13.6764 0.757161 13.444 0.857422 13.207 0.994141L1.92773 7.47461C1.43555 7.76628 1.07096 8.02148 0.833984 8.24023C0.60612 8.44987 0.455729 8.70964 0.382812 9.01953C0.309896 9.32943 0.273438 9.76693 0.273438 10.332V23.2246C0.273438 23.9082 0.428385 24.4688 0.738281 24.9062C1.05729 25.3346 1.46745 25.5488 1.96875 25.5488Z" fill="#4F66B3"/>
</svg>
