<svg width="30" height="32" viewBox="0 0 30 32" fill="none" xmlns="http://www.w3.org/2000/svg">
<path d="M5.66211 9.61914H24.3242C25.5456 9.61914 26.6576 9.87435 27.6602 10.3848L24.625 3.28906C24.224 2.32292 23.6224 1.58464 22.8203 1.07422C22.0182 0.563802 21.0658 0.308594 19.9629 0.308594H10.0234C8.92057 0.308594 7.9681 0.563802 7.16602 1.07422C6.36393 1.58464 5.76237 2.32292 5.36133 3.28906L2.32617 10.3848C3.32878 9.87435 4.44076 9.61914 5.66211 9.61914ZM5.66211 21.5H24.3242C25.3268 21.5 26.2064 21.2904 26.9629 20.8711C27.7285 20.4427 28.3255 19.8503 28.7539 19.0938C29.1823 18.3372 29.3965 17.4622 29.3965 16.4688C29.3965 15.4753 29.1823 14.6003 28.7539 13.8438C28.3255 13.0781 27.7285 12.4857 26.9629 12.0664C26.2064 11.638 25.3268 11.4238 24.3242 11.4238H5.66211C4.65951 11.4238 3.77539 11.638 3.00977 12.0664C2.24414 12.4857 1.64714 13.0781 1.21875 13.8438C0.799479 14.6003 0.589844 15.4753 0.589844 16.4688C0.589844 17.4622 0.799479 18.3372 1.21875 19.0938C1.64714 19.8503 2.24414 20.4427 3.00977 20.8711C3.77539 21.2904 4.65951 21.5 5.66211 21.5ZM22.5879 16.4688C22.5879 16.0312 22.752 15.6484 23.0801 15.3203C23.4082 14.9922 23.791 14.8281 24.2285 14.8281C24.6751 14.8281 25.0625 14.9922 25.3906 15.3203C25.7188 15.6484 25.8828 16.0312 25.8828 16.4688C25.8828 16.9245 25.7188 17.3118 25.3906 17.6309C25.0625 17.9408 24.6751 18.1003 24.2285 18.1094C23.791 18.1094 23.4082 17.9544 23.0801 17.6445C22.752 17.3255 22.5879 16.9336 22.5879 16.4688ZM13.6602 28.1309H16.3125V20.2285H13.6602V28.1309ZM3.40625 29.2793H26.5801C26.9355 29.2793 27.2409 29.1471 27.4961 28.8828C27.7604 28.6276 27.8926 28.3223 27.8926 27.9668C27.8926 27.5931 27.7604 27.2786 27.4961 27.0234C27.2409 26.7682 26.9355 26.6406 26.5801 26.6406H3.40625C3.04167 26.6406 2.72721 26.7682 2.46289 27.0234C2.20768 27.2786 2.08008 27.5931 2.08008 27.9668C2.08008 28.3223 2.20768 28.6276 2.46289 28.8828C2.72721 29.1471 3.04167 29.2793 3.40625 29.2793ZM14.9863 31.3027C15.5879 31.3027 16.1393 31.1523 16.6406 30.8516C17.151 30.5508 17.5566 30.1497 17.8574 29.6484C18.1582 29.1471 18.3086 28.5911 18.3086 27.9805C18.3086 27.3698 18.1582 26.8138 17.8574 26.3125C17.5566 25.8112 17.151 25.4102 16.6406 25.1094C16.1393 24.8086 15.5879 24.6582 14.9863 24.6582C14.3848 24.6582 13.8288 24.8086 13.3184 25.1094C12.8171 25.4102 12.416 25.8112 12.1152 26.3125C11.8145 26.8138 11.6641 27.3698 11.6641 27.9805C11.6641 28.5911 11.8145 29.1471 12.1152 29.6484C12.416 30.1497 12.8171 30.5508 13.3184 30.8516C13.8288 31.1523 14.3848 31.3027 14.9863 31.3027Z" fill="#4F66B3"/>
</svg>
