<svg width="24" height="30" viewBox="0 0 24 30" fill="none" xmlns="http://www.w3.org/2000/svg">
<path d="M4.65116 30H19.3483C20.8529 30 21.9997 29.6055 22.7886 28.8165C23.5776 28.0275 23.9721 26.8716 23.9721 25.3486V13.1697H13.4309C11.752 13.1697 10.9126 12.3257 10.9126 10.6376V0H4.65116C3.13741 0 1.98604 0.399083 1.19706 1.19725C0.417249 1.99541 0.0273438 3.15138 0.0273438 4.66514V25.3486C0.0273438 26.8716 0.417249 28.0275 1.19706 28.8165C1.98604 29.6055 3.13741 30 4.65116 30ZM13.83 11.0505H23.8345C23.7886 10.7294 23.651 10.4037 23.4217 10.0734C23.1923 9.74312 22.8896 9.38532 22.5134 9L15.041 1.44495C14.6832 1.07798 14.3392 0.779817 14.0089 0.550459C13.6786 0.311927 13.3483 0.174312 13.0181 0.137615V10.2523C13.0181 10.7844 13.2887 11.0505 13.83 11.0505Z" fill="#4F66B3"/>
<path d="M18.4322 21.9009C18.4322 21.3945 18.3368 20.9193 18.146 20.4752C17.9588 20.0312 17.6983 19.6422 17.3643 19.3082C17.0304 18.9743 16.6432 18.7138 16.2029 18.5266C15.7625 18.3358 15.2891 18.2404 14.7827 18.2404C14.2873 18.2404 13.8176 18.3321 13.3735 18.5156C12.9332 18.6991 12.5424 18.9596 12.2011 19.2972C11.8598 19.6312 11.5956 20.0257 11.4084 20.4807H6.13507C6.047 20.4807 5.96259 20.4972 5.88186 20.5303C5.8048 20.5596 5.73324 20.6073 5.66718 20.6734L4.73141 21.6477C4.66902 21.7174 4.63416 21.8092 4.62682 21.9229C4.61948 22.033 4.65985 22.1321 4.74792 22.2202L6.47635 23.9486C6.56809 24.0404 6.67268 24.0862 6.79011 24.0862C6.91121 24.0826 7.01763 24.0367 7.10937 23.9486L8.05065 23.0018L9.39926 24.3449C9.48367 24.433 9.58642 24.4771 9.70752 24.4771C9.82862 24.4771 9.93504 24.4312 10.0268 24.3394L11.3204 23.0514C11.68 23.855 12.1607 24.4734 12.7625 24.9064C13.3644 25.3394 14.0378 25.556 14.7827 25.556C15.2891 25.556 15.7625 25.4624 16.2029 25.2752C16.6432 25.0881 17.0304 24.8275 17.3643 24.4936C17.6983 24.156 17.9588 23.767 18.146 23.3266C18.3368 22.8826 18.4322 22.4073 18.4322 21.9009ZM15.1515 21.9009C15.1515 21.644 15.2414 21.4275 15.4212 21.2514C15.6047 21.0715 15.8231 20.9816 16.0763 20.9816C16.3332 20.9816 16.5497 21.0715 16.7258 21.2514C16.9056 21.4275 16.9955 21.644 16.9955 21.9009C16.9955 22.1541 16.9056 22.3725 16.7258 22.556C16.5497 22.7358 16.3332 22.8257 16.0763 22.8257C15.8231 22.8257 15.6047 22.7358 15.4212 22.556C15.2414 22.3725 15.1515 22.1541 15.1515 21.9009Z" fill="white"/>
</svg>
