<svg width="30" height="30" viewBox="0 0 30 30" fill="none" xmlns="http://www.w3.org/2000/svg">
<path d="M14.9927 30C17.044 30 18.9744 29.6079 20.7837 28.8238C22.5931 28.0494 24.1896 26.97 25.5733 25.5857C26.9569 24.2014 28.0406 22.6041 28.8244 20.7938C29.6081 18.9835 30 17.0523 30 15C30 12.9477 29.6081 11.0165 28.8244 9.2062C28.0406 7.39593 26.9569 5.80348 25.5733 4.42885C24.1896 3.04453 22.5931 1.96031 20.7837 1.17619C18.9744 0.392062 17.0392 0 14.9782 0C12.9269 0 10.9966 0.392062 9.18723 1.17619C7.38752 1.96031 5.79584 3.04453 4.41219 4.42885C3.03822 5.80348 1.95936 7.39593 1.17562 9.2062C0.391872 11.0165 0 12.9477 0 15C0 17.0523 0.391872 18.9835 1.17562 20.7938C1.95936 22.6041 3.03822 24.2014 4.41219 25.5857C5.79584 26.97 7.39236 28.0494 9.20174 28.8238C11.0111 29.6079 12.9415 30 14.9927 30ZM7.8955 15.0145C7.8955 14.5886 8.03096 14.2449 8.30189 13.9835C8.57281 13.7125 8.9163 13.577 9.33237 13.577H13.5704V9.33688C13.5704 8.92062 13.701 8.57696 13.9623 8.30591C14.2235 8.02517 14.5622 7.8848 14.9782 7.8848C15.404 7.8848 15.7475 8.02517 16.0087 8.30591C16.2796 8.57696 16.4151 8.92062 16.4151 9.33688V13.577H20.6676C21.0837 13.577 21.4224 13.7125 21.6836 13.9835C21.9545 14.2449 22.09 14.5886 22.09 15.0145C22.09 15.4308 21.9545 15.7696 21.6836 16.031C21.4127 16.2924 21.074 16.423 20.6676 16.423H16.4151V20.6776C16.4151 21.0939 16.2796 21.4376 16.0087 21.7086C15.7475 21.97 15.404 22.1007 14.9782 22.1007C14.5622 22.1007 14.2235 21.97 13.9623 21.7086C13.701 21.4376 13.5704 21.0939 13.5704 20.6776V16.423H9.33237C8.9163 16.423 8.57281 16.2924 8.30189 16.031C8.03096 15.7696 7.8955 15.4308 7.8955 15.0145Z" fill="#CED2D5"/>
</svg>
