<svg width="24" height="20" viewBox="0 0 24 20" fill="none" xmlns="http://www.w3.org/2000/svg">
<path fill-rule="evenodd" clip-rule="evenodd" d="M23.5206 2.85447C22.674 3.23043 21.7612 3.48467 20.8064 3.59827C21.7828 3.01405 22.532 2.08768 22.8836 0.984159C21.9708 1.52645 20.9592 1.91864 19.8814 2.12961C19.0213 1.21135 17.792 0.637955 16.4315 0.637955C13.8228 0.637955 11.7064 2.7544 11.7064 5.36445C11.7064 5.735 11.7456 6.09472 11.8281 6.44093C7.89951 6.24348 4.41718 4.3637 2.08437 1.50211C1.67731 2.20263 1.4447 3.01405 1.4447 3.87956C1.4447 5.51862 2.27911 6.96564 3.54762 7.81357C2.77272 7.79058 2.0438 7.57556 1.40548 7.22394V7.28209C1.40548 9.57299 3.03507 11.4839 5.19885 11.9166C4.80125 12.0275 4.38473 12.083 3.95197 12.083C3.64769 12.083 3.35017 12.0546 3.06347 11.9991C3.66392 13.8762 5.40982 15.2448 7.47892 15.2799C5.86015 16.5485 3.82215 17.3044 1.60834 17.3044C1.22697 17.3044 0.849663 17.2828 0.480469 17.2395C2.57257 18.5783 5.05685 19.3627 7.72641 19.3627C16.4221 19.3627 21.1756 12.1601 21.1756 5.91351C21.1756 5.70795 21.1716 5.50239 21.1621 5.30224C22.0858 4.63418 22.8891 3.80247 23.5206 2.85447Z" fill="white"/>
</svg>
